<?xml version="1.0" encoding="UTF-8" standalone="no"?>
<!-- Created with Inkscape (http://www.inkscape.org/) -->

<svg
   xmlns:dc="http://purl.org/dc/elements/1.1/"
   xmlns:cc="http://creativecommons.org/ns#"
   xmlns:rdf="http://www.w3.org/1999/02/22-rdf-syntax-ns#"
   xmlns:svg="http://www.w3.org/2000/svg"
   xmlns="http://www.w3.org/2000/svg"
   xmlns:sodipodi="http://sodipodi.sourceforge.net/DTD/sodipodi-0.dtd"
   xmlns:inkscape="http://www.inkscape.org/namespaces/inkscape"
   width="100"
   height="100"
   viewBox="0 0 26.458333 26.458334"
   version="1.1"
   id="svg8"
   inkscape:version="0.92.3 (2405546, 2018-03-11)"
   sodipodi:docname="Wheel.svg"
   inkscape:export-filename="E:\Pictures\Game Development\Projects\RotorBall\Assets\Customisation Features\Ball Styles\Clock.png"
   inkscape:export-xdpi="96"
   inkscape:export-ydpi="96">
  <defs
     id="defs2">
    <inkscape:perspective
       sodipodi:type="inkscape:persp3d"
       inkscape:vp_x="0 : 13.229167 : 1"
       inkscape:vp_y="0 : 1000 : 0"
       inkscape:vp_z="26.458333 : 13.229167 : 1"
       inkscape:persp3d-origin="13.229166 : 8.8194447 : 1"
       id="perspective859" />
  </defs>
  <sodipodi:namedview
     id="base"
     pagecolor="#ffffff"
     bordercolor="#666666"
     borderopacity="1.0"
     inkscape:pageopacity="0.0"
     inkscape:pageshadow="2"
     inkscape:zoom="4"
     inkscape:cx="91.413406"
     inkscape:cy="46.318497"
     inkscape:document-units="px"
     inkscape:current-layer="g885"
     showgrid="true"
     units="px"
     inkscape:window-width="1920"
     inkscape:window-height="1017"
     inkscape:window-x="-8"
     inkscape:window-y="-8"
     inkscape:window-maximized="1"
     showguides="true">
    <inkscape:grid
       type="xygrid"
       id="grid815" />
  </sodipodi:namedview>
  <metadata
     id="metadata5">
    <rdf:RDF>
      <cc:Work
         rdf:about="">
        <dc:format>image/svg+xml</dc:format>
        <dc:type
           rdf:resource="http://purl.org/dc/dcmitype/StillImage" />
        <dc:title></dc:title>
      </cc:Work>
    </rdf:RDF>
  </metadata>
  <g
     inkscape:label="Layer 1"
     inkscape:groupmode="layer"
     id="layer1"
     transform="translate(0,-270.54165)">
    <g
       id="g4531"
       transform="translate(0,1.3229103)" />
    <g
       id="g885">
      <path
         style="opacity:1;fill:#cccccc;fill-opacity:1;stroke:none;stroke-width:3.96875;stroke-linecap:round;stroke-linejoin:round;stroke-miterlimit:4;stroke-dasharray:none;stroke-dashoffset:0;stroke-opacity:1;paint-order:normal"
         d="m 11.90625,271.86456 h 2.645833 L 15.875,283.77081 h -5.291667 z"
         id="rect893"
         inkscape:connector-curvature="0"
         sodipodi:nodetypes="ccccc"
         inkscape:transform-center-y="-5.9531251" />
      <path
         inkscape:transform-center-y="-1.21053"
         sodipodi:nodetypes="ccccc"
         inkscape:connector-curvature="0"
         id="path904"
         d="m 1.4968462,281.34974 0.8176073,-2.51633 11.7323205,2.42106 -1.635215,5.03268 z"
         style="opacity:1;fill:#cccccc;fill-opacity:1;stroke:none;stroke-width:3.96875;stroke-linecap:round;stroke-linejoin:round;stroke-miterlimit:4;stroke-dasharray:none;stroke-dashoffset:0;stroke-opacity:1;paint-order:normal"
         inkscape:transform-center-x="5.4573565" />
      <path
         inkscape:transform-center-x="2.9640259"
         style="opacity:1;fill:#cccccc;fill-opacity:1;stroke:none;stroke-width:3.96875;stroke-linecap:round;stroke-linejoin:round;stroke-miterlimit:4;stroke-dasharray:none;stroke-dashoffset:0;stroke-opacity:1;paint-order:normal"
         d="m 7.3011058,294.18076 -2.1405175,-1.55518 5.9280517,-10.40995 4.281053,3.11036 z"
         id="path906"
         inkscape:connector-curvature="0"
         sodipodi:nodetypes="ccccc"
         inkscape:transform-center-y="4.4273851" />
      <path
         inkscape:transform-center-y="4.4273851"
         sodipodi:nodetypes="ccccc"
         inkscape:connector-curvature="0"
         id="path908"
         d="m 21.297746,292.62558 -2.140521,1.55518 -8.068582,-8.85477 4.281047,-3.11036 z"
         style="opacity:1;fill:#cccccc;fill-opacity:1;stroke:none;stroke-width:3.96875;stroke-linecap:round;stroke-linejoin:round;stroke-miterlimit:4;stroke-dasharray:none;stroke-dashoffset:0;stroke-opacity:1;paint-order:normal"
         inkscape:transform-center-x="-2.9640281" />
      <path
         inkscape:transform-center-x="-5.4573581"
         style="opacity:1;fill:#cccccc;fill-opacity:1;stroke:none;stroke-width:3.96875;stroke-linecap:round;stroke-linejoin:round;stroke-miterlimit:4;stroke-dasharray:none;stroke-dashoffset:0;stroke-opacity:1;paint-order:normal"
         d="m 24.143881,278.83341 0.817607,2.51633 -10.914716,4.93741 -1.635211,-5.03268 z"
         id="path910"
         inkscape:connector-curvature="0"
         sodipodi:nodetypes="ccccc"
         inkscape:transform-center-y="-1.21053" />
      <path
         style="opacity:1;fill:#000000;fill-opacity:1;stroke:none;stroke-width:18.75;stroke-linecap:round;stroke-linejoin:round;stroke-miterlimit:4;stroke-dasharray:none;stroke-dashoffset:0;stroke-opacity:1;paint-order:normal"
         d="M 50 0 A 50.000001 50.000001 0 0 0 0 50 A 50.000001 50.000001 0 0 0 50 100 A 50.000001 50.000001 0 0 0 100 50 A 50.000001 50.000001 0 0 0 50 0 z M 50 10 A 39.999999 39.999999 0 0 1 90 50 A 39.999999 39.999999 0 0 1 50 90 A 39.999999 39.999999 0 0 1 10 50 A 39.999999 39.999999 0 0 1 50 10 z "
         id="path887"
         transform="matrix(0.26458333,0,0,0.26458333,0,270.54165)" />
      <path
         style="opacity:1;fill:#cccccc;fill-opacity:1;stroke:none;stroke-width:15;stroke-linecap:round;stroke-linejoin:round;stroke-miterlimit:4;stroke-dasharray:none;stroke-dashoffset:0;stroke-opacity:1;paint-order:normal"
         d="M 50 10 A 39.999999 39.999999 0 0 0 10 50 A 39.999999 39.999999 0 0 0 50 90 A 39.999999 39.999999 0 0 0 90 50 A 39.999999 39.999999 0 0 0 50 10 z M 50 15 A 35.000001 35.000001 0 0 1 85 50 A 35.000001 35.000001 0 0 1 50 85 A 35.000001 35.000001 0 0 1 15 50 A 35.000001 35.000001 0 0 1 50 15 z "
         id="circle889"
         transform="matrix(0.26458333,0,0,0.26458333,0,270.54165)" />
      <path
         id="path915"
         d="M 50 10 A 39.999999 39.999999 0 0 0 10 50 A 39.999999 39.999999 0 0 0 50 90 A 39.999999 39.999999 0 0 0 90 50 A 39.999999 39.999999 0 0 0 50 10 z M 50 15 A 35.000001 35.000001 0 0 1 85 50 A 35.000001 35.000001 0 0 1 50 85 A 35.000001 35.000001 0 0 1 15 50 A 35.000001 35.000001 0 0 1 50 15 z "
         style="opacity:1;fill:#b3b3b3;fill-opacity:1;stroke:none;stroke-width:15;stroke-linecap:round;stroke-linejoin:round;stroke-miterlimit:4;stroke-dasharray:none;stroke-dashoffset:0;stroke-opacity:1;paint-order:normal"
         transform="matrix(0.26458333,0,0,0.26458333,0,270.54165)" />
      <circle
         style="opacity:1;fill:#999999;fill-opacity:1;stroke:none;stroke-width:0.99218762;stroke-linecap:round;stroke-linejoin:round;stroke-miterlimit:4;stroke-dasharray:none;stroke-dashoffset:0;stroke-opacity:1;paint-order:normal"
         id="circle891"
         cx="13.229167"
         cy="283.77081"
         r="2.6458333" />
    </g>
  </g>
</svg>
