<?xml version="1.0" encoding="UTF-8" standalone="no"?>
<!-- Created with Inkscape (http://www.inkscape.org/) -->

<svg
   xmlns:dc="http://purl.org/dc/elements/1.1/"
   xmlns:cc="http://creativecommons.org/ns#"
   xmlns:rdf="http://www.w3.org/1999/02/22-rdf-syntax-ns#"
   xmlns:svg="http://www.w3.org/2000/svg"
   xmlns="http://www.w3.org/2000/svg"
   xmlns:sodipodi="http://sodipodi.sourceforge.net/DTD/sodipodi-0.dtd"
   xmlns:inkscape="http://www.inkscape.org/namespaces/inkscape"
   width="100"
   height="100"
   viewBox="0 0 100 100"
   id="svg2"
   version="1.1"
   inkscape:version="0.92.3 (2405546, 2018-03-11)"
   inkscape:export-filename="E:\Pictures\Game Development\Projects\RotorBall\UI\Boost Icons\Endurance Icon\Endurance Icon (1000x1000).png"
   inkscape:export-xdpi="960"
   inkscape:export-ydpi="960"
   sodipodi:docname="Endurance Icon.svg">
  <defs
     id="defs4" />
  <sodipodi:namedview
     id="base"
     pagecolor="#ffffff"
     bordercolor="#666666"
     borderopacity="1.0"
     inkscape:pageopacity="0.0"
     inkscape:pageshadow="2"
     inkscape:zoom="2"
     inkscape:cx="-12.196343"
     inkscape:cy="126.83387"
     inkscape:document-units="px"
     inkscape:current-layer="layer1"
     showgrid="true"
     units="px"
     inkscape:window-width="1920"
     inkscape:window-height="1017"
     inkscape:window-x="-8"
     inkscape:window-y="-8"
     inkscape:window-maximized="1"
     showguides="true"
     inkscape:measure-start="50,83"
     inkscape:measure-end="50,90">
    <inkscape:grid
       type="xygrid"
       id="grid4542" />
  </sodipodi:namedview>
  <metadata
     id="metadata7">
    <rdf:RDF>
      <cc:Work
         rdf:about="">
        <dc:format>image/svg+xml</dc:format>
        <dc:type
           rdf:resource="http://purl.org/dc/dcmitype/StillImage" />
        <dc:title />
      </cc:Work>
    </rdf:RDF>
  </metadata>
  <g
     inkscape:label="Layer 1"
     inkscape:groupmode="layer"
     id="layer1"
     transform="translate(0,-952.36216)">
    <path
       style="opacity:1;fill:#ffffff;fill-opacity:1;stroke:none;stroke-width:5;stroke-linecap:round;stroke-linejoin:round;stroke-miterlimit:4;stroke-dasharray:none;stroke-dashoffset:0;stroke-opacity:1;paint-order:normal"
       d="M 50 0 A 50 50 0 0 0 0 50 A 50 50 0 0 0 50 100 A 50 50 0 0 0 100 50 A 50 50 0 0 0 50 0 z M 50 5 C 51.385 5 52.5 6.115 52.5 7.5 L 52.5 12.5 C 52.5 13.885 51.385 15 50 15 C 48.615 15 47.5 13.885 47.5 12.5 L 47.5 7.5 C 47.5 6.115 48.615 5 50 5 z M 50 25 C 51.385 25 52.5 26.115 52.5 27.5 L 52.5 42.939453 A 7.5 7.5 0 0 1 57.5 50 A 7.5 7.5 0 0 1 55.699219 54.871094 L 60.916016 63.90625 C 61.608516 65.105695 61.199445 66.627814 60 67.320312 C 58.800555 68.012812 57.276484 67.605695 56.583984 66.40625 L 51.367188 57.369141 A 7.5 7.5 0 0 1 50 57.5 A 7.5 7.5 0 0 1 42.5 50 A 7.5 7.5 0 0 1 47.5 42.9375 L 47.5 27.5 C 47.5 26.115 48.615 25 50 25 z M 7.4980469 47.501953 L 12.498047 47.501953 C 13.883047 47.501953 14.998047 48.616953 14.998047 50.001953 C 14.998047 51.386953 13.883047 52.501953 12.498047 52.501953 L 7.4980469 52.501953 C 6.1130469 52.501953 4.9980469 51.386953 4.9980469 50.001953 C 4.9980469 48.616953 6.1130469 47.501953 7.4980469 47.501953 z M 87.501953 47.501953 L 92.501953 47.501953 C 93.886953 47.501953 95.001953 48.616953 95.001953 50.001953 C 95.001953 51.386953 93.886953 52.501953 92.501953 52.501953 L 87.501953 52.501953 C 86.116953 52.501953 85.001953 51.386953 85.001953 50.001953 C 85.001953 48.616953 86.116953 47.501953 87.501953 47.501953 z M 50 85.001953 C 51.385 85.001953 52.5 86.116953 52.5 87.501953 L 52.5 92.501953 C 52.5 93.886953 51.385 95.001953 50 95.001953 C 48.615 95.001953 47.5 93.886953 47.5 92.501953 L 47.5 87.501953 C 47.5 86.116953 48.615 85.001953 50 85.001953 z "
       transform="translate(0,952.36216)"
       id="path819" />
  </g>
</svg>
