<?xml version="1.0" encoding="UTF-8" standalone="no"?>
<!-- Created with Inkscape (http://www.inkscape.org/) -->

<svg
   xmlns:dc="http://purl.org/dc/elements/1.1/"
   xmlns:cc="http://creativecommons.org/ns#"
   xmlns:rdf="http://www.w3.org/1999/02/22-rdf-syntax-ns#"
   xmlns:svg="http://www.w3.org/2000/svg"
   xmlns="http://www.w3.org/2000/svg"
   xmlns:sodipodi="http://sodipodi.sourceforge.net/DTD/sodipodi-0.dtd"
   xmlns:inkscape="http://www.inkscape.org/namespaces/inkscape"
   width="100"
   height="100"
   viewBox="0 0 100 100"
   id="svg2"
   version="1.1"
   inkscape:version="0.92.3 (2405546, 2018-03-11)"
   inkscape:export-filename="E:\Pictures\Game Development\Projects\RotorBall\UI\Boost Icons\Enlarge Icon\Enlarge Icon (1000x1000).png"
   inkscape:export-xdpi="960"
   inkscape:export-ydpi="960"
   sodipodi:docname="Enlarge Icon.svg">
  <defs
     id="defs4" />
  <sodipodi:namedview
     id="base"
     pagecolor="#ffffff"
     bordercolor="#666666"
     borderopacity="1.0"
     inkscape:pageopacity="0.0"
     inkscape:pageshadow="2"
     inkscape:zoom="1.4142136"
     inkscape:cx="58.591823"
     inkscape:cy="16.71361"
     inkscape:document-units="px"
     inkscape:current-layer="layer1"
     showgrid="true"
     units="px"
     inkscape:window-width="1920"
     inkscape:window-height="1017"
     inkscape:window-x="-8"
     inkscape:window-y="-8"
     inkscape:window-maximized="1"
     showguides="false"
     inkscape:measure-start="50,83"
     inkscape:measure-end="50,90">
    <inkscape:grid
       type="xygrid"
       id="grid4542" />
  </sodipodi:namedview>
  <metadata
     id="metadata7">
    <rdf:RDF>
      <cc:Work
         rdf:about="">
        <dc:format>image/svg+xml</dc:format>
        <dc:type
           rdf:resource="http://purl.org/dc/dcmitype/StillImage" />
        <dc:title />
      </cc:Work>
    </rdf:RDF>
  </metadata>
  <g
     inkscape:label="Layer 1"
     inkscape:groupmode="layer"
     id="layer1"
     transform="translate(0,-952.36216)">
    <g
       id="g821"
       transform="translate(-2.5,2.4999774)"
       style="fill:#000000" />
    <path
       style="opacity:1;fill:#ffffff;fill-opacity:1;stroke:none;stroke-width:5;stroke-linecap:round;stroke-linejoin:round;stroke-miterlimit:4;stroke-dasharray:none;stroke-dashoffset:0;stroke-opacity:1;paint-order:normal"
       d="M 50 0 A 50 50 0 0 0 0 50 A 50 50 0 0 0 50 100 A 50 50 0 0 0 100 50 A 50 50 0 0 0 50 0 z M 19.947266 17.445312 C 19.953795 17.445313 19.960268 17.447212 19.966797 17.447266 L 29.951172 17.447266 C 31.336172 17.447266 32.451172 18.562266 32.451172 19.947266 C 32.451172 21.332266 31.336172 22.447266 29.951172 22.447266 L 25.982422 22.447266 L 42.929688 39.392578 C 43.90903 40.371921 43.90903 41.950344 42.929688 42.929688 C 41.950344 43.90903 40.371921 43.90903 39.392578 42.929688 L 22.447266 25.982422 L 22.447266 29.951172 C 22.447266 31.336172 21.332266 32.451172 19.947266 32.451172 C 18.562266 32.451172 17.447266 31.336172 17.447266 29.951172 L 17.447266 19.966797 C 17.445917 19.794387 17.463752 19.622823 17.498047 19.453125 C 17.498745 19.449642 17.501167 19.446798 17.501953 19.443359 C 17.511705 19.400707 17.526093 19.360647 17.537109 19.318359 C 17.566059 19.207587 17.594219 19.097023 17.638672 18.990234 C 17.640357 18.986172 17.642793 18.982548 17.644531 18.978516 C 17.655432 18.952479 17.671848 18.929872 17.683594 18.904297 C 17.711885 18.849388 17.739593 18.794122 17.769531 18.740234 C 17.80199 18.681869 17.827735 18.620654 17.865234 18.564453 C 17.868067 18.560197 17.872144 18.556972 17.875 18.552734 C 17.928549 18.473042 17.994497 18.402855 18.056641 18.330078 C 18.0981 18.281483 18.132518 18.226857 18.177734 18.181641 L 18.179688 18.179688 C 18.190473 18.168876 18.20386 18.161002 18.214844 18.150391 C 18.400034 17.971469 18.615883 17.827915 18.849609 17.712891 C 18.862942 17.7065 18.875312 17.697698 18.888672 17.691406 C 18.917516 17.677916 18.943218 17.658895 18.972656 17.646484 C 18.973982 17.64592 18.975236 17.645093 18.976562 17.644531 C 19.214593 17.544187 19.474703 17.491 19.744141 17.46875 C 19.811994 17.462257 19.878986 17.445312 19.947266 17.445312 z M 80.052734 17.445312 C 80.221279 17.445312 80.388902 17.463998 80.554688 17.498047 C 80.712958 17.530552 80.868644 17.579031 81.019531 17.642578 C 81.020846 17.64313 81.022124 17.643977 81.023438 17.644531 C 81.024748 17.645081 81.026035 17.645932 81.027344 17.646484 C 81.048112 17.656024 81.067082 17.670151 81.087891 17.679688 C 81.100006 17.68524 81.110955 17.693592 81.123047 17.699219 C 81.231557 17.749712 81.340016 17.801013 81.441406 17.869141 C 81.44489 17.871472 81.447701 17.874606 81.451172 17.876953 C 81.460822 17.88348 81.468963 17.891789 81.478516 17.898438 C 81.599374 17.98255 81.71451 18.073885 81.818359 18.177734 L 81.820312 18.179688 L 81.820312 18.181641 C 81.866349 18.227676 81.902985 18.282514 81.945312 18.332031 C 82.098709 18.51147 82.230169 18.709352 82.328125 18.927734 C 82.335193 18.943564 82.346769 18.956652 82.353516 18.972656 C 82.354088 18.974007 82.354899 18.975212 82.355469 18.976562 C 82.420235 19.129565 82.469204 19.286889 82.501953 19.447266 C 82.535523 19.61166 82.552763 19.778308 82.552734 19.945312 L 82.552734 19.947266 C 82.552733 19.948556 82.552738 19.949881 82.552734 19.951172 L 82.552734 29.951172 C 82.552734 31.336172 81.437734 32.451172 80.052734 32.451172 C 78.667734 32.451172 77.552734 31.336172 77.552734 29.951172 L 77.552734 25.982422 L 60.607422 42.929688 C 59.628079 43.90903 58.049663 43.90903 57.070312 42.929688 C 56.09097 41.950344 56.09097 40.371921 57.070312 39.392578 L 74.015625 22.447266 L 70.048828 22.447266 C 68.663828 22.447266 67.548828 21.332266 67.548828 19.947266 C 67.548828 18.562266 68.663828 17.447266 70.048828 17.447266 L 80.03125 17.447266 C 80.03845 17.447203 80.045534 17.445313 80.052734 17.445312 z M 41.160156 56.335938 C 41.799204 56.335938 42.440016 56.580643 42.929688 57.070312 C 43.90903 58.049656 43.90903 59.628079 42.929688 60.607422 L 25.982422 77.552734 L 29.951172 77.552734 C 31.336172 77.552734 32.451172 78.667734 32.451172 80.052734 C 32.451172 81.437734 31.336172 82.552734 29.951172 82.552734 L 19.96875 82.552734 C 19.793036 82.554252 19.618176 82.53747 19.445312 82.501953 C 19.287045 82.469435 19.131362 82.420985 18.980469 82.357422 C 18.978298 82.356511 18.976728 82.354517 18.974609 82.353516 C 18.974091 82.353271 18.973172 82.353765 18.972656 82.353516 C 18.951237 82.344486 18.933216 82.329916 18.912109 82.320312 C 18.899994 82.314759 18.889045 82.306409 18.876953 82.300781 C 18.768441 82.250282 18.65999 82.198996 18.558594 82.130859 C 18.55511 82.128528 18.552299 82.125394 18.548828 82.123047 C 18.521544 82.104644 18.499154 82.079986 18.472656 82.060547 C 18.371286 81.986208 18.270437 81.911062 18.181641 81.822266 C 18.181641 81.822266 18.179688 81.820312 18.179688 81.820312 C 18.179025 81.81965 18.178396 81.819023 18.177734 81.818359 C 17.964878 81.605503 17.796862 81.350911 17.671875 81.072266 C 17.664229 81.055141 17.651801 81.040765 17.644531 81.023438 C 17.581204 80.873217 17.531246 80.71644 17.498047 80.552734 C 17.464477 80.38834 17.447237 80.221692 17.447266 80.054688 C 17.447266 80.054042 17.447265 80.05338 17.447266 80.052734 C 17.447264 80.051411 17.447266 80.050152 17.447266 80.048828 L 17.447266 70.048828 C 17.447266 68.663828 18.562266 67.548828 19.947266 67.548828 C 21.332266 67.548828 22.447266 68.663828 22.447266 70.048828 L 22.447266 74.017578 L 39.392578 57.070312 C 39.88225 56.580641 40.521108 56.335938 41.160156 56.335938 z M 58.839844 56.335938 C 59.478892 56.335937 60.11775 56.580644 60.607422 57.070312 L 77.552734 74.017578 L 77.552734 70.048828 C 77.552734 68.663828 78.667734 67.548828 80.052734 67.548828 C 81.437734 67.548828 82.552734 68.663828 82.552734 70.048828 L 82.552734 80.033203 C 82.554083 80.205613 82.536248 80.377177 82.501953 80.546875 C 82.501255 80.550358 82.498833 80.553202 82.498047 80.556641 C 82.488295 80.599293 82.473907 80.639353 82.462891 80.681641 C 82.433941 80.792413 82.405781 80.902977 82.361328 81.009766 C 82.359643 81.013828 82.357207 81.017452 82.355469 81.021484 C 82.354682 81.023363 82.354307 81.025467 82.353516 81.027344 C 82.343056 81.051207 82.328287 81.072645 82.316406 81.095703 C 82.288115 81.150612 82.260407 81.205878 82.230469 81.259766 C 82.19801 81.318131 82.172265 81.379346 82.134766 81.435547 C 82.131933 81.439803 82.127856 81.443028 82.125 81.447266 C 82.124191 81.44847 82.123858 81.449969 82.123047 81.451172 C 82.069926 81.529729 82.004626 81.59811 81.943359 81.669922 C 81.901675 81.718739 81.865601 81.77292 81.820312 81.818359 C 81.809179 81.829532 81.796501 81.838649 81.785156 81.849609 C 81.599966 82.028531 81.384117 82.172085 81.150391 82.287109 C 81.137058 82.2935 81.124688 82.302302 81.111328 82.308594 C 81.081134 82.322783 81.054282 82.342465 81.023438 82.355469 C 80.840839 82.432445 80.645351 82.481742 80.443359 82.513672 C 80.336232 82.530743 80.229197 82.54181 80.121094 82.544922 C 80.09652 82.545629 80.073579 82.552734 80.048828 82.552734 L 70.048828 82.552734 C 68.663828 82.552734 67.548828 81.437734 67.548828 80.052734 C 67.548828 78.667734 68.663828 77.552734 70.048828 77.552734 L 74.017578 77.552734 L 57.070312 60.607422 C 56.09097 59.628079 56.09097 58.049659 57.070312 57.070312 C 57.559984 56.580641 58.200796 56.335938 58.839844 56.335938 z "
       transform="translate(0,952.36216)"
       id="path819" />
    <g
       id="g906"
       transform="rotate(-45,49.999967,1002.3622)">
      <g
         inkscape:transform-center-y="-27.5"
         transform="translate(-2.5000026,-4.9999997)"
         id="g830" />
      <g
         inkscape:transform-center-x="27.500036"
         id="g838"
         transform="rotate(-90,48.749993,1006.1122)"
         inkscape:transform-center-y="1.8480733e-005" />
      <g
         inkscape:transform-center-y="27.500056"
         transform="rotate(-180,51.250024,1004.8622)"
         id="g846"
         inkscape:transform-center-x="-4.5625405e-005" />
      <g
         inkscape:transform-center-x="-27.499969"
         id="g854"
         transform="rotate(90,53.75004,1003.6121)"
         inkscape:transform-center-y="-0.00010998829" />
    </g>
  </g>
</svg>
