<?xml version="1.0" encoding="UTF-8" standalone="no"?>
<!-- Created with Inkscape (http://www.inkscape.org/) -->

<svg
   xmlns:dc="http://purl.org/dc/elements/1.1/"
   xmlns:cc="http://creativecommons.org/ns#"
   xmlns:rdf="http://www.w3.org/1999/02/22-rdf-syntax-ns#"
   xmlns:svg="http://www.w3.org/2000/svg"
   xmlns="http://www.w3.org/2000/svg"
   xmlns:sodipodi="http://sodipodi.sourceforge.net/DTD/sodipodi-0.dtd"
   xmlns:inkscape="http://www.inkscape.org/namespaces/inkscape"
   width="100"
   height="100"
   viewBox="0 0 100 100"
   id="svg2"
   version="1.1"
   inkscape:version="0.92.3 (2405546, 2018-03-11)"
   inkscape:export-filename="E:\Pictures\Game Development\Projects\RotorBall\UI\UI Icons\Upgrades Icon\Upgrades Icon (500x500).png"
   inkscape:export-xdpi="480"
   inkscape:export-ydpi="480"
   sodipodi:docname="Upgrades Icon.svg">
  <defs
     id="defs4">
    <inkscape:perspective
       sodipodi:type="inkscape:persp3d"
       inkscape:vp_x="0 : 50 : 1"
       inkscape:vp_y="0 : 1000 : 0"
       inkscape:vp_z="100 : 50 : 1"
       inkscape:persp3d-origin="50 : 33.333333 : 1"
       id="perspective814" />
  </defs>
  <sodipodi:namedview
     id="base"
     pagecolor="#ffffff"
     bordercolor="#666666"
     borderopacity="1.0"
     inkscape:pageopacity="0.0"
     inkscape:pageshadow="2"
     inkscape:zoom="2.8284271"
     inkscape:cx="56.415127"
     inkscape:cy="80.593592"
     inkscape:document-units="px"
     inkscape:current-layer="layer1"
     showgrid="true"
     units="px"
     inkscape:window-width="1920"
     inkscape:window-height="1017"
     inkscape:window-x="-8"
     inkscape:window-y="-8"
     inkscape:window-maximized="1"
     showguides="false">
    <inkscape:grid
       type="xygrid"
       id="grid4136" />
  </sodipodi:namedview>
  <metadata
     id="metadata7">
    <rdf:RDF>
      <cc:Work
         rdf:about="">
        <dc:format>image/svg+xml</dc:format>
        <dc:type
           rdf:resource="http://purl.org/dc/dcmitype/StillImage" />
        <dc:title />
      </cc:Work>
    </rdf:RDF>
  </metadata>
  <g
     inkscape:label="Layer 1"
     inkscape:groupmode="layer"
     id="layer1"
     transform="translate(0,-952.36216)">
    <g
       id="g844"
       transform="rotate(45,50.000037,1002.3622)" />
    <path
       style="opacity:1;fill:#ffffff;fill-opacity:1;stroke:none;stroke-width:5;stroke-linecap:round;stroke-linejoin:round;stroke-miterlimit:4;stroke-dasharray:none;stroke-dashoffset:0;stroke-opacity:1;paint-order:normal"
       d="m 0,1032.3622 50,-20 50,20 v 20 l -50,-20 -50,20 z"
       id="rect824"
       inkscape:connector-curvature="0"
       sodipodi:nodetypes="ccccccc" />
    <path
       sodipodi:nodetypes="ccccccc"
       inkscape:connector-curvature="0"
       id="path827"
       d="m 0,1002.3622 50,-20.00004 50,20.00004 v 20 l -50,-20 -50,20 z"
       style="opacity:1;fill:#ffffff;fill-opacity:1;stroke:none;stroke-width:5;stroke-linecap:round;stroke-linejoin:round;stroke-miterlimit:4;stroke-dasharray:none;stroke-dashoffset:0;stroke-opacity:1;paint-order:normal" />
    <path
       style="opacity:1;fill:#ffffff;fill-opacity:1;stroke:none;stroke-width:5;stroke-linecap:round;stroke-linejoin:round;stroke-miterlimit:4;stroke-dasharray:none;stroke-dashoffset:0;stroke-opacity:1;paint-order:normal"
       d="m 0,972.36216 50,-20.00004 50,20.00004 v 20 l -50,-20 -50,20 z"
       id="path829"
       inkscape:connector-curvature="0"
       sodipodi:nodetypes="ccccccc" />
  </g>
  <g
     inkscape:groupmode="layer"
     id="layer2"
     inkscape:label="Arrows"
     style="display:none"
     sodipodi:insensitive="true">
    <g
       transform="rotate(45,1199.6028,526.18112)"
       id="g853">
      <rect
         style="opacity:0.98999999;fill:#808000;fill-opacity:1;stroke:none;stroke-width:20;stroke-linecap:round;stroke-linejoin:round;stroke-miterlimit:4;stroke-dasharray:none;stroke-dashoffset:0;stroke-opacity:1;paint-order:normal"
         id="rect847"
         width="10"
         height="90"
         x="45"
         y="957.36218"
         ry="4.9999776" />
      <path
         style="opacity:0.98999999;fill:#808000;fill-opacity:1;stroke:none;stroke-width:20;stroke-linecap:round;stroke-linejoin:round;stroke-miterlimit:4;stroke-dasharray:none;stroke-dashoffset:0;stroke-opacity:1;paint-order:normal"
         d="m 49.996094,957.36218 c -0.316286,0 -0.633555,0.0318 -0.945313,0.0918 -0.948037,0.18238 -1.854812,0.63997 -2.591797,1.37695 l -14.140625,14.14258 c -1.958678,1.95868 -1.958678,5.11164 0,7.07031 1.958678,1.95868 5.111635,1.95868 7.070313,0 L 50,969.43445 60.611328,980.04382 c 1.958678,1.95868 5.111635,1.95868 7.070313,0 1.958678,-1.95867 1.958678,-5.11163 0,-7.07031 L 53.541016,958.83093 c -0.736985,-0.73698 -1.64376,-1.19457 -2.591797,-1.37695 -0.314855,-0.0612 -0.633603,-0.0918 -0.953125,-0.0918 z"
         id="path849"
         inkscape:connector-curvature="0" />
      <path
         inkscape:connector-curvature="0"
         id="path851"
         d="m 49.996094,1047.362 c -0.316286,0 -0.633555,-0.032 -0.945313,-0.092 -0.948037,-0.1823 -1.854812,-0.6399 -2.591797,-1.3769 l -14.140625,-14.1424 c -1.958678,-1.9587 -1.958678,-5.1117 0,-7.0703 1.958678,-1.9587 5.111635,-1.9587 7.070313,0 L 50,1035.2897 60.611328,1024.6804 c 1.958678,-1.9587 5.111635,-1.9587 7.070313,0 1.958678,1.9586 1.958678,5.1116 0,7.0703 l -14.140625,14.1426 c -0.736985,0.737 -1.64376,1.1946 -2.591797,1.3769 -0.314855,0.061 -0.633603,0.092 -0.953125,0.092 z"
         style="opacity:0.98999999;fill:#808000;fill-opacity:1;stroke:none;stroke-width:20;stroke-linecap:round;stroke-linejoin:round;stroke-miterlimit:4;stroke-dasharray:none;stroke-dashoffset:0;stroke-opacity:1;paint-order:normal" />
    </g>
  </g>
</svg>
