<?xml version="1.0" encoding="UTF-8" standalone="no"?>
<!-- Created with Inkscape (http://www.inkscape.org/) -->

<svg
   xmlns:dc="http://purl.org/dc/elements/1.1/"
   xmlns:cc="http://creativecommons.org/ns#"
   xmlns:rdf="http://www.w3.org/1999/02/22-rdf-syntax-ns#"
   xmlns:svg="http://www.w3.org/2000/svg"
   xmlns="http://www.w3.org/2000/svg"
   xmlns:sodipodi="http://sodipodi.sourceforge.net/DTD/sodipodi-0.dtd"
   xmlns:inkscape="http://www.inkscape.org/namespaces/inkscape"
   width="100"
   height="100"
   viewBox="0 0 26.458333 26.458334"
   version="1.1"
   id="svg8"
   inkscape:version="0.92.3 (2405546, 2018-03-11)"
   sodipodi:docname="Sausage - Variation 1.svg"
   inkscape:export-filename="E:\Pictures\Game Development\Projects\RotorBall\Assets\Customisation Features\Ball Explosions\Sausages\Sausage - Variation 1 (100x100).png"
   inkscape:export-xdpi="96"
   inkscape:export-ydpi="96">
  <defs
     id="defs2" />
  <sodipodi:namedview
     id="base"
     pagecolor="#ffffff"
     bordercolor="#666666"
     borderopacity="1.0"
     inkscape:pageopacity="0.0"
     inkscape:pageshadow="2"
     inkscape:zoom="1.4142136"
     inkscape:cx="-253.89312"
     inkscape:cy="62.876901"
     inkscape:document-units="px"
     inkscape:current-layer="g869"
     showgrid="true"
     units="px"
     inkscape:window-width="1920"
     inkscape:window-height="1017"
     inkscape:window-x="-8"
     inkscape:window-y="-8"
     inkscape:window-maximized="1">
    <inkscape:grid
       type="xygrid"
       id="grid815" />
  </sodipodi:namedview>
  <metadata
     id="metadata5">
    <rdf:RDF>
      <cc:Work
         rdf:about="">
        <dc:format>image/svg+xml</dc:format>
        <dc:type
           rdf:resource="http://purl.org/dc/dcmitype/StillImage" />
        <dc:title />
      </cc:Work>
    </rdf:RDF>
  </metadata>
  <g
     inkscape:label="Layer 1"
     inkscape:groupmode="layer"
     id="layer1"
     transform="translate(0,-270.54165)">
    <g
       id="g869"
       transform="translate(2.4999999e-7,1.3819878)">
      <g
         id="g877">
        <path
           transform="matrix(0.26458333,0,0,0.26458333,0,270.54165)"
           inkscape:connector-curvature="0"
           style="opacity:1;fill:#000000;fill-opacity:1;stroke:none;stroke-width:5;stroke-linecap:round;stroke-linejoin:round;stroke-miterlimit:4;stroke-dasharray:none;stroke-dashoffset:0;stroke-opacity:1;paint-order:normal"
           d="M 47.505859,39.566406 A 2.4999999,9.9999996 0 0 0 47.5,40 a 2.4999999,9.9999996 0 0 0 0.0059,0.707031 2.4999999,9.9999996 0 0 0 0.03125,0.992188 2.4999999,9.9999996 0 0 0 0.05469,0.976562 2.4999999,9.9999996 0 0 0 0.07813,0.947266 2.4999999,9.9999996 0 0 0 0.101562,0.912109 2.4999999,9.9999996 0 0 0 0.125,0.867188 2.4999999,9.9999996 0 0 0 0.144532,0.814453 2.4999999,9.9999996 0 0 0 0.166015,0.75 2.4999999,9.9999996 0 0 0 0.181641,0.681641 2.4999999,9.9999996 0 0 0 0.199219,0.605468 2.4999999,9.9999996 0 0 0 0.21289,0.521485 2.4999999,9.9999996 0 0 0 0.226563,0.435547 2.4999999,9.9999996 0 0 0 0.234375,0.341796 2.4999999,9.9999996 0 0 0 0.242187,0.248047 A 2.4999999,9.9999996 0 0 0 49.75,49.949219 2.4999999,9.9999996 0 0 0 50,50 a 2.4999999,9.9999996 0 0 0 0.177734,-0.02539 2.4999999,9.9999996 0 0 0 0.248047,-0.121093 2.4999999,9.9999996 0 0 0 0.242188,-0.21875 2.4999999,9.9999996 0 0 0 0.238281,-0.314454 2.4999999,9.9999996 0 0 0 0.228516,-0.408203 2.4999999,9.9999996 0 0 0 0.216796,-0.498047 2.4999999,9.9999996 0 0 0 0.203126,-0.580078 2.4999999,9.9999996 0 0 0 0.1875,-0.660156 2.4999999,9.9999996 0 0 0 0.169921,-0.732422 2.4999999,9.9999996 0 0 0 0.150391,-0.794922 2.4999999,9.9999996 0 0 0 0.130859,-0.851562 2.4999999,9.9999996 0 0 0 0.109375,-0.900391 2.4999999,9.9999996 0 0 0 0.08594,-0.939453 2.4999999,9.9999996 0 0 0 0.06055,-0.96875 2.4999999,9.9999996 0 0 0 0.03906,-0.988281 A 2.4999999,9.9999996 0 0 0 52.5,40 2.4999999,9.9999996 0 0 0 52.4961,39.53125 c -1.589383,0.09376 -3.278502,0.07739 -4.990235,0.03516 z"
           id="path855" />
        <path
           transform="matrix(0.26458333,0,0,0.26458333,0,270.54165)"
           inkscape:connector-curvature="0"
           style="opacity:1;fill:#ffffff;fill-opacity:1;stroke:none;stroke-width:5;stroke-linecap:round;stroke-linejoin:round;stroke-miterlimit:4;stroke-dasharray:none;stroke-dashoffset:0;stroke-opacity:1;paint-order:normal"
           d="m 77.513672,33.472656 c -3.356784,1.088944 -6.646601,2.211782 -10.023438,3.199219 a 2.4999999,9.9999994 0 0 1 0.0039,0.121094 A 2.4999999,9.9999994 0 0 1 67.5,37.5 a 2.4999999,9.9999994 0 0 1 -0.01172,0.998047 2.4999999,9.9999994 0 0 1 -0.03906,0.988281 2.4999999,9.9999994 0 0 1 -0.06055,0.96875 2.4999999,9.9999994 0 0 1 -0.08594,0.939453 2.4999999,9.9999994 0 0 1 -0.109375,0.900391 2.4999999,9.9999994 0 0 1 -0.130859,0.851562 2.4999999,9.9999994 0 0 1 -0.150391,0.794922 2.4999999,9.9999994 0 0 1 -0.169921,0.732422 2.4999999,9.9999994 0 0 1 -0.1875,0.660156 2.4999999,9.9999994 0 0 1 -0.203126,0.580078 2.4999999,9.9999994 0 0 1 -0.216796,0.498047 2.4999999,9.9999994 0 0 1 -0.228516,0.408203 2.4999999,9.9999994 0 0 1 -0.238281,0.314454 2.4999999,9.9999994 0 0 1 -0.242188,0.220703 2.4999999,9.9999994 0 0 1 -0.248047,0.11914 A 2.4999999,9.9999994 0 0 1 65,47.5 a 2.4999999,9.9999994 0 0 1 -0.25,-0.05078 2.4999999,9.9999994 0 0 1 -0.246094,-0.148438 2.4999999,9.9999994 0 0 1 -0.242187,-0.248047 2.4999999,9.9999994 0 0 1 -0.234375,-0.341796 2.4999999,9.9999994 0 0 1 -0.226563,-0.435547 2.4999999,9.9999994 0 0 1 -0.21289,-0.521485 2.4999999,9.9999994 0 0 1 -0.199219,-0.605468 2.4999999,9.9999994 0 0 1 -0.181641,-0.681641 2.4999999,9.9999994 0 0 1 -0.166015,-0.75 2.4999999,9.9999994 0 0 1 -0.144532,-0.814453 2.4999999,9.9999994 0 0 1 -0.125,-0.867188 2.4999999,9.9999994 0 0 1 -0.101562,-0.912109 2.4999999,9.9999994 0 0 1 -0.07813,-0.947266 2.4999999,9.9999994 0 0 1 -0.05469,-0.976562 2.4999999,9.9999994 0 0 1 -0.03125,-0.992188 2.4999999,9.9999994 0 0 1 -0.002,-0.123047 c -3.140913,0.711979 -6.434503,1.236463 -10.007812,1.447266 A 2.4999999,9.9999992 0 0 1 52.5,40 a 2.4999999,9.9999992 0 0 1 -0.01172,0.998047 2.4999999,9.9999992 0 0 1 -0.03906,0.988281 2.4999999,9.9999992 0 0 1 -0.06055,0.96875 2.4999999,9.9999992 0 0 1 -0.08594,0.939453 2.4999999,9.9999992 0 0 1 -0.109375,0.900391 2.4999999,9.9999992 0 0 1 -0.130859,0.851562 2.4999999,9.9999992 0 0 1 -0.150391,0.794922 2.4999999,9.9999992 0 0 1 -0.169921,0.732422 2.4999999,9.9999992 0 0 1 -0.1875,0.660156 2.4999999,9.9999992 0 0 1 -0.203126,0.580078 2.4999999,9.9999992 0 0 1 -0.216796,0.498047 2.4999999,9.9999992 0 0 1 -0.228516,0.408203 2.4999999,9.9999992 0 0 1 -0.238281,0.314454 2.4999999,9.9999992 0 0 1 -0.242188,0.21875 A 2.4999999,9.9999992 0 0 1 50.17773,49.974609 2.4999999,9.9999992 0 0 1 50,50 a 2.4999999,9.9999992 0 0 1 -0.25,-0.05078 2.4999999,9.9999992 0 0 1 -0.246094,-0.148438 2.4999999,9.9999992 0 0 1 -0.242187,-0.248047 2.4999999,9.9999992 0 0 1 -0.234375,-0.341796 2.4999999,9.9999992 0 0 1 -0.226563,-0.435547 2.4999999,9.9999992 0 0 1 -0.21289,-0.521485 2.4999999,9.9999992 0 0 1 -0.199219,-0.605468 2.4999999,9.9999992 0 0 1 -0.181641,-0.681641 2.4999999,9.9999992 0 0 1 -0.166015,-0.75 2.4999999,9.9999992 0 0 1 -0.144532,-0.814453 2.4999999,9.9999992 0 0 1 -0.125,-0.867188 2.4999999,9.9999992 0 0 1 -0.101562,-0.912109 2.4999999,9.9999992 0 0 1 -0.07813,-0.947266 2.4999999,9.9999992 0 0 1 -0.05469,-0.976562 2.4999999,9.9999992 0 0 1 -0.03125,-0.992188 A 2.4999999,9.9999992 0 0 1 47.5,40 2.4999999,9.9999992 0 0 1 47.5059,39.566406 c -3.121311,-0.07701 -6.388683,-0.31543 -10.021484,-0.949218 a 2.4999999,9.999999 0 0 1 -0.03516,0.86914 2.4999999,9.999999 0 0 1 -0.06055,0.96875 2.4999999,9.999999 0 0 1 -0.08594,0.939453 2.4999999,9.999999 0 0 1 -0.109375,0.900391 2.4999999,9.999999 0 0 1 -0.130859,0.851562 2.4999999,9.999999 0 0 1 -0.150391,0.794922 2.4999999,9.999999 0 0 1 -0.169921,0.732422 2.4999999,9.999999 0 0 1 -0.1875,0.660156 2.4999999,9.999999 0 0 1 -0.203126,0.580078 2.4999999,9.999999 0 0 1 -0.216796,0.498047 2.4999999,9.999999 0 0 1 -0.228516,0.408203 2.4999999,9.999999 0 0 1 -0.238281,0.314454 2.4999999,9.999999 0 0 1 -0.242188,0.220703 2.4999999,9.999999 0 0 1 -0.248047,0.11914 A 2.4999999,9.999999 0 0 1 35,47.5 a 2.4999999,9.999999 0 0 1 -0.25,-0.05078 2.4999999,9.999999 0 0 1 -0.246094,-0.148438 2.4999999,9.999999 0 0 1 -0.242187,-0.248047 2.4999999,9.999999 0 0 1 -0.234375,-0.341796 2.4999999,9.999999 0 0 1 -0.226563,-0.435547 2.4999999,9.999999 0 0 1 -0.21289,-0.521485 2.4999999,9.999999 0 0 1 -0.199219,-0.605468 2.4999999,9.999999 0 0 1 -0.181641,-0.681641 2.4999999,9.999999 0 0 1 -0.166015,-0.75 2.4999999,9.999999 0 0 1 -0.144532,-0.814453 2.4999999,9.999999 0 0 1 -0.125,-0.867188 2.4999999,9.999999 0 0 1 -0.101562,-0.912109 2.4999999,9.999999 0 0 1 -0.07813,-0.947266 2.4999999,9.999999 0 0 1 -0.05469,-0.976562 2.4999999,9.999999 0 0 1 -0.03125,-0.992188 2.4999999,9.999999 0 0 1 -0.0039,-0.583984 C 29.32873,36.868877 26.069295,36.02233 22.431641,34.773438 a 2.4999999,9.9999988 0 0 1 -0.04297,0.68164 2.4999999,9.9999988 0 0 1 -0.08594,0.939453 2.4999999,9.9999988 0 0 1 -0.109375,0.900391 2.4999999,9.9999988 0 0 1 -0.130859,0.851562 2.4999999,9.9999988 0 0 1 -0.150391,0.794922 2.4999999,9.9999988 0 0 1 -0.169921,0.732422 2.4999999,9.9999988 0 0 1 -0.1875,0.660156 2.4999999,9.9999988 0 0 1 -0.203126,0.580078 2.4999999,9.9999988 0 0 1 -0.216796,0.498047 2.4999999,9.9999988 0 0 1 -0.228516,0.408203 2.4999999,9.9999988 0 0 1 -0.238281,0.314454 2.4999999,9.9999988 0 0 1 -0.242188,0.21875 2.4999999,9.9999988 0 0 1 -0.248047,0.121093 A 2.4999999,9.9999988 0 0 1 20,42.5 a 2.4999999,9.9999988 0 0 1 -0.25,-0.05078 2.4999999,9.9999988 0 0 1 -0.246094,-0.148438 2.4999999,9.9999988 0 0 1 -0.242187,-0.248047 2.4999999,9.9999988 0 0 1 -0.234375,-0.341796 2.4999999,9.9999988 0 0 1 -0.226563,-0.435547 2.4999999,9.9999988 0 0 1 -0.21289,-0.521485 2.4999999,9.9999988 0 0 1 -0.199219,-0.605468 2.4999999,9.9999988 0 0 1 -0.181641,-0.681641 2.4999999,9.9999988 0 0 1 -0.166015,-0.75 2.4999999,9.9999988 0 0 1 -0.144532,-0.814453 2.4999999,9.9999988 0 0 1 -0.125,-0.867188 2.4999999,9.9999988 0 0 1 -0.101562,-0.912109 2.4999999,9.9999988 0 0 1 -0.07813,-0.947266 2.4999999,9.9999988 0 0 1 -0.05469,-0.976562 2.4999999,9.9999988 0 0 1 -0.03125,-0.992188 2.4999999,9.9999988 0 0 1 -0.002,-0.326172 C 15.00132,31.91861 12.738844,31.209439 10,29.998047 9.3666838,29.717932 8.7350167,29.577055 8.1152344,29.556641 3.7767584,29.413741 0,35.150552 0,39.998047 c 0,5.539994 5.0653963,7.481814 10,10 27.583688,14.076208 54.150314,12.573052 80,0 4.981943,-2.423169 10,-4.460006 10,-10 0,-5.539994 -4.580577,-11.149506 -10,-10 -2.661468,0.56452 -5.052013,1.338354 -7.503906,2.064453 A 2.4999999,9.9999996 0 0 1 82.5,32.5 a 2.4999999,9.9999996 0 0 1 -0.01172,0.998047 2.4999999,9.9999996 0 0 1 -0.03906,0.988281 2.4999999,9.9999996 0 0 1 -0.06055,0.96875 2.4999999,9.9999996 0 0 1 -0.08594,0.939453 2.4999999,9.9999996 0 0 1 -0.109375,0.900391 2.4999999,9.9999996 0 0 1 -0.130859,0.851562 2.4999999,9.9999996 0 0 1 -0.150391,0.794922 2.4999999,9.9999996 0 0 1 -0.169921,0.732422 2.4999999,9.9999996 0 0 1 -0.1875,0.660156 2.4999999,9.9999996 0 0 1 -0.203126,0.580078 2.4999999,9.9999996 0 0 1 -0.216796,0.498047 2.4999999,9.9999996 0 0 1 -0.228516,0.408203 2.4999999,9.9999996 0 0 1 -0.238281,0.314454 2.4999999,9.9999996 0 0 1 -0.242188,0.21875 A 2.4999999,9.9999996 0 0 1 80.17773,42.474609 2.4999999,9.9999996 0 0 1 80,42.5 a 2.4999999,9.9999996 0 0 1 -0.25,-0.05078 2.4999999,9.9999996 0 0 1 -0.246094,-0.148438 2.4999999,9.9999996 0 0 1 -0.242187,-0.248047 2.4999999,9.9999996 0 0 1 -0.234375,-0.341796 2.4999999,9.9999996 0 0 1 -0.226563,-0.435547 2.4999999,9.9999996 0 0 1 -0.21289,-0.521485 2.4999999,9.9999996 0 0 1 -0.199219,-0.605468 2.4999999,9.9999996 0 0 1 -0.181641,-0.681641 2.4999999,9.9999996 0 0 1 -0.166015,-0.75 2.4999999,9.9999996 0 0 1 -0.144532,-0.814453 2.4999999,9.9999996 0 0 1 -0.125,-0.867188 2.4999999,9.9999996 0 0 1 -0.101562,-0.912109 2.4999999,9.9999996 0 0 1 -0.07813,-0.947266 2.4999999,9.9999996 0 0 1 -0.05469,-0.976562 2.4999999,9.9999996 0 0 1 -0.02344,-0.726563 z"
           id="path861" />
        <path
           transform="matrix(0.26458333,0,0,0.26458333,0,270.54165)"
           inkscape:connector-curvature="0"
           style="opacity:1;fill:#000000;fill-opacity:1;stroke:none;stroke-width:5;stroke-linecap:round;stroke-linejoin:round;stroke-miterlimit:4;stroke-dasharray:none;stroke-dashoffset:0;stroke-opacity:1;paint-order:normal"
           d="m 77.513672,33.472656 a 2.4999999,9.9999996 0 0 0 0.02344,0.726563 2.4999999,9.9999996 0 0 0 0.05469,0.976562 2.4999999,9.9999996 0 0 0 0.07813,0.947266 2.4999999,9.9999996 0 0 0 0.101562,0.912109 2.4999999,9.9999996 0 0 0 0.125,0.867188 2.4999999,9.9999996 0 0 0 0.144532,0.814453 2.4999999,9.9999996 0 0 0 0.166015,0.75 2.4999999,9.9999996 0 0 0 0.181641,0.681641 2.4999999,9.9999996 0 0 0 0.199219,0.605468 2.4999999,9.9999996 0 0 0 0.21289,0.521485 2.4999999,9.9999996 0 0 0 0.226563,0.435547 2.4999999,9.9999996 0 0 0 0.234375,0.341796 2.4999999,9.9999996 0 0 0 0.242187,0.248047 A 2.4999999,9.9999996 0 0 0 79.75,42.449219 2.4999999,9.9999996 0 0 0 80,42.5 a 2.4999999,9.9999996 0 0 0 0.177734,-0.02539 2.4999999,9.9999996 0 0 0 0.248047,-0.121093 2.4999999,9.9999996 0 0 0 0.242188,-0.21875 2.4999999,9.9999996 0 0 0 0.238281,-0.314454 2.4999999,9.9999996 0 0 0 0.228516,-0.408203 2.4999999,9.9999996 0 0 0 0.216796,-0.498047 2.4999999,9.9999996 0 0 0 0.203126,-0.580078 2.4999999,9.9999996 0 0 0 0.1875,-0.660156 2.4999999,9.9999996 0 0 0 0.169921,-0.732422 2.4999999,9.9999996 0 0 0 0.150391,-0.794922 2.4999999,9.9999996 0 0 0 0.130859,-0.851562 2.4999999,9.9999996 0 0 0 0.109375,-0.900391 2.4999999,9.9999996 0 0 0 0.08594,-0.939453 2.4999999,9.9999996 0 0 0 0.06055,-0.96875 2.4999999,9.9999996 0 0 0 0.03906,-0.988281 A 2.4999999,9.9999996 0 0 0 82.5,32.5 2.4999999,9.9999996 0 0 0 82.4961,32.0625 c -1.645094,0.487175 -3.387666,0.892816 -4.982422,1.410156 z"
           id="path858" />
        <path
           transform="matrix(0.26458333,0,0,0.26458333,0,270.54165)"
           inkscape:connector-curvature="0"
           style="opacity:1;fill:#000000;fill-opacity:1;stroke:none;stroke-width:5;stroke-linecap:round;stroke-linejoin:round;stroke-miterlimit:4;stroke-dasharray:none;stroke-dashoffset:0;stroke-opacity:1;paint-order:normal"
           d="m 62.503906,38.083984 a 2.4999999,9.9999996 0 0 0 0.002,0.123047 2.4999999,9.9999996 0 0 0 0.03125,0.992188 2.4999999,9.9999996 0 0 0 0.05469,0.976562 2.4999999,9.9999996 0 0 0 0.07813,0.947266 2.4999999,9.9999996 0 0 0 0.101562,0.912109 2.4999999,9.9999996 0 0 0 0.125,0.867188 2.4999999,9.9999996 0 0 0 0.144532,0.814453 2.4999999,9.9999996 0 0 0 0.166015,0.75 2.4999999,9.9999996 0 0 0 0.181641,0.681641 2.4999999,9.9999996 0 0 0 0.199219,0.605468 2.4999999,9.9999996 0 0 0 0.21289,0.521485 2.4999999,9.9999996 0 0 0 0.226563,0.435547 2.4999999,9.9999996 0 0 0 0.234375,0.341796 2.4999999,9.9999996 0 0 0 0.242187,0.248047 A 2.4999999,9.9999996 0 0 0 64.75,47.449219 2.4999999,9.9999996 0 0 0 65,47.5 a 2.4999999,9.9999996 0 0 0 0.177734,-0.02539 2.4999999,9.9999996 0 0 0 0.248047,-0.11914 2.4999999,9.9999996 0 0 0 0.242188,-0.220703 2.4999999,9.9999996 0 0 0 0.238281,-0.314454 2.4999999,9.9999996 0 0 0 0.228516,-0.408203 2.4999999,9.9999996 0 0 0 0.216796,-0.498047 2.4999999,9.9999996 0 0 0 0.203126,-0.580078 2.4999999,9.9999996 0 0 0 0.1875,-0.660156 2.4999999,9.9999996 0 0 0 0.169921,-0.732422 2.4999999,9.9999996 0 0 0 0.150391,-0.794922 2.4999999,9.9999996 0 0 0 0.130859,-0.851562 2.4999999,9.9999996 0 0 0 0.109375,-0.900391 2.4999999,9.9999996 0 0 0 0.08594,-0.939453 2.4999999,9.9999996 0 0 0 0.06055,-0.96875 2.4999999,9.9999996 0 0 0 0.03906,-0.988281 A 2.4999999,9.9999996 0 0 0 67.5,37.5 2.4999999,9.9999996 0 0 0 67.4941,36.792969 2.4999999,9.9999996 0 0 0 67.4902,36.671875 c -1.651438,0.482905 -3.263348,1.021546 -4.986328,1.412109 z"
           id="path852" />
        <path
           transform="matrix(0.26458333,0,0,0.26458333,0,270.54165)"
           inkscape:connector-curvature="0"
           style="opacity:1;fill:#000000;fill-opacity:1;stroke:none;stroke-width:5;stroke-linecap:round;stroke-linejoin:round;stroke-miterlimit:4;stroke-dasharray:none;stroke-dashoffset:0;stroke-opacity:1;paint-order:normal"
           d="m 32.501953,37.623047 a 2.4999999,9.9999996 0 0 0 0.0039,0.583984 2.4999999,9.9999996 0 0 0 0.03125,0.992188 2.4999999,9.9999996 0 0 0 0.05469,0.976562 2.4999999,9.9999996 0 0 0 0.07813,0.947266 2.4999999,9.9999996 0 0 0 0.101562,0.912109 2.4999999,9.9999996 0 0 0 0.125,0.867188 2.4999999,9.9999996 0 0 0 0.144532,0.814453 2.4999999,9.9999996 0 0 0 0.166015,0.75 2.4999999,9.9999996 0 0 0 0.181641,0.681641 2.4999999,9.9999996 0 0 0 0.199219,0.605468 2.4999999,9.9999996 0 0 0 0.21289,0.521485 2.4999999,9.9999996 0 0 0 0.226563,0.435547 2.4999999,9.9999996 0 0 0 0.234375,0.341796 2.4999999,9.9999996 0 0 0 0.242187,0.248047 A 2.4999999,9.9999996 0 0 0 34.75,47.449219 2.4999999,9.9999996 0 0 0 35,47.5 a 2.4999999,9.9999996 0 0 0 0.177734,-0.02539 2.4999999,9.9999996 0 0 0 0.248047,-0.11914 2.4999999,9.9999996 0 0 0 0.242188,-0.220703 2.4999999,9.9999996 0 0 0 0.238281,-0.314454 2.4999999,9.9999996 0 0 0 0.228516,-0.408203 2.4999999,9.9999996 0 0 0 0.216796,-0.498047 2.4999999,9.9999996 0 0 0 0.203126,-0.580078 2.4999999,9.9999996 0 0 0 0.1875,-0.660156 2.4999999,9.9999996 0 0 0 0.169921,-0.732422 2.4999999,9.9999996 0 0 0 0.150391,-0.794922 2.4999999,9.9999996 0 0 0 0.130859,-0.851562 2.4999999,9.9999996 0 0 0 0.109375,-0.900391 2.4999999,9.9999996 0 0 0 0.08594,-0.939453 2.4999999,9.9999996 0 0 0 0.06055,-0.96875 2.4999999,9.9999996 0 0 0 0.03516,-0.86914 C 35.870211,38.335575 34.23808,38.035666 32.501962,37.623048 Z"
           id="path849" />
        <path
           transform="matrix(0.26458333,0,0,0.26458333,0,270.54165)"
           inkscape:connector-curvature="0"
           style="opacity:1;fill:#000000;fill-opacity:1;stroke:none;stroke-width:5;stroke-linecap:round;stroke-linejoin:round;stroke-miterlimit:4;stroke-dasharray:none;stroke-dashoffset:0;stroke-opacity:1;paint-order:normal"
           d="m 17.503906,32.880859 a 2.4999999,9.9999996 0 0 0 0.002,0.326172 2.4999999,9.9999996 0 0 0 0.03125,0.992188 2.4999999,9.9999996 0 0 0 0.05469,0.976562 2.4999999,9.9999996 0 0 0 0.07813,0.947266 2.4999999,9.9999996 0 0 0 0.101562,0.912109 2.4999999,9.9999996 0 0 0 0.125,0.867188 2.4999999,9.9999996 0 0 0 0.144532,0.814453 2.4999999,9.9999996 0 0 0 0.166015,0.75 2.4999999,9.9999996 0 0 0 0.181641,0.681641 2.4999999,9.9999996 0 0 0 0.199219,0.605468 2.4999999,9.9999996 0 0 0 0.21289,0.521485 2.4999999,9.9999996 0 0 0 0.226563,0.435547 2.4999999,9.9999996 0 0 0 0.234375,0.341796 2.4999999,9.9999996 0 0 0 0.242187,0.248047 A 2.4999999,9.9999996 0 0 0 19.75,42.449219 2.4999999,9.9999996 0 0 0 20,42.5 a 2.4999999,9.9999996 0 0 0 0.177734,-0.02539 2.4999999,9.9999996 0 0 0 0.248047,-0.121093 2.4999999,9.9999996 0 0 0 0.242188,-0.21875 2.4999999,9.9999996 0 0 0 0.238281,-0.314454 2.4999999,9.9999996 0 0 0 0.228516,-0.408203 2.4999999,9.9999996 0 0 0 0.216796,-0.498047 2.4999999,9.9999996 0 0 0 0.203126,-0.580078 2.4999999,9.9999996 0 0 0 0.1875,-0.660156 2.4999999,9.9999996 0 0 0 0.169921,-0.732422 2.4999999,9.9999996 0 0 0 0.150391,-0.794922 2.4999999,9.9999996 0 0 0 0.130859,-0.851562 2.4999999,9.9999996 0 0 0 0.109375,-0.900391 2.4999999,9.9999996 0 0 0 0.08594,-0.939453 2.4999999,9.9999996 0 0 0 0.04297,-0.68164 c -1.54876,-0.531727 -3.284373,-1.260703 -4.927735,-1.892579 z"
           id="rect814" />
      </g>
    </g>
  </g>
</svg>
