<?xml version="1.0" encoding="UTF-8" standalone="no"?>
<!-- Created with Inkscape (http://www.inkscape.org/) -->

<svg
   xmlns:dc="http://purl.org/dc/elements/1.1/"
   xmlns:cc="http://creativecommons.org/ns#"
   xmlns:rdf="http://www.w3.org/1999/02/22-rdf-syntax-ns#"
   xmlns:svg="http://www.w3.org/2000/svg"
   xmlns="http://www.w3.org/2000/svg"
   xmlns:sodipodi="http://sodipodi.sourceforge.net/DTD/sodipodi-0.dtd"
   xmlns:inkscape="http://www.inkscape.org/namespaces/inkscape"
   width="100"
   height="100"
   viewBox="0 0 26.458333 26.458334"
   version="1.1"
   id="svg8"
   inkscape:version="0.92.3 (2405546, 2018-03-11)"
   sodipodi:docname="Emoji - Beaming Face.svg">
  <defs
     id="defs2" />
  <sodipodi:namedview
     id="base"
     pagecolor="#ffffff"
     bordercolor="#666666"
     borderopacity="1.0"
     inkscape:pageopacity="0.0"
     inkscape:pageshadow="2"
     inkscape:zoom="2.8284271"
     inkscape:cx="33.336667"
     inkscape:cy="13.548874"
     inkscape:document-units="px"
     inkscape:current-layer="layer1"
     showgrid="true"
     units="px"
     inkscape:window-width="1920"
     inkscape:window-height="1017"
     inkscape:window-x="-8"
     inkscape:window-y="-8"
     inkscape:window-maximized="1">
    <inkscape:grid
       type="xygrid"
       id="grid815" />
  </sodipodi:namedview>
  <metadata
     id="metadata5">
    <rdf:RDF>
      <cc:Work
         rdf:about="">
        <dc:format>image/svg+xml</dc:format>
        <dc:type
           rdf:resource="http://purl.org/dc/dcmitype/StillImage" />
        <dc:title></dc:title>
      </cc:Work>
    </rdf:RDF>
  </metadata>
  <g
     inkscape:label="Layer 1"
     inkscape:groupmode="layer"
     id="layer1"
     transform="translate(0,-270.54165)">
    <circle
       style="opacity:1;fill:#ffd42a;fill-opacity:1;stroke:none;stroke-width:5.29166651;stroke-linecap:round;stroke-linejoin:round;stroke-miterlimit:4;stroke-dasharray:none;stroke-dashoffset:0;stroke-opacity:1;paint-order:normal"
       id="path4520"
       cx="13.229167"
       cy="283.77081"
       r="13.229166" />
    <path
       sodipodi:nodetypes="sssss"
       inkscape:connector-curvature="0"
       id="path4539"
       d="m 22.489583,286.41665 c 0,3.96875 -3.415404,7.93751 -9.260417,7.93751 -5.8450134,0 -9.260416,-3.96876 -9.260416,-7.93751 0,-2.64583 3.96875,0 9.260416,10e-6 5.291667,1e-5 9.260417,-2.64584 9.260417,-10e-6 z"
       style="opacity:1;fill:#000000;fill-opacity:1;stroke:none;stroke-width:5.29166651;stroke-linecap:round;stroke-linejoin:round;stroke-miterlimit:4;stroke-dasharray:none;stroke-dashoffset:0;stroke-opacity:1;paint-order:normal" />
    <path
       style="opacity:1;fill:#ffffff;fill-opacity:1;stroke:none;stroke-width:3.77976203;stroke-linecap:round;stroke-linejoin:round;stroke-miterlimit:4;stroke-dasharray:none;stroke-dashoffset:0;stroke-opacity:1;paint-order:normal"
       d="m 21.166667,287.36158 c 0,3.02382 -15.8750003,3.02382 -15.8750003,0 0,-1.88988 4.1577385,0 7.9374993,10e-6 3.779763,1e-5 7.937501,-1.88989 7.937501,-10e-6 z"
       id="path4542"
       inkscape:connector-curvature="0"
       sodipodi:nodetypes="ccsc" />
    <g
       id="g826"
       transform="matrix(0.74999887,0,0,0.74999887,15.874982,67.63577)">
      <path
         style="opacity:1;fill:#000000;fill-opacity:1;stroke:none;stroke-width:7.05556631;stroke-linecap:round;stroke-linejoin:round;stroke-miterlimit:4;stroke-dasharray:none;stroke-dashoffset:0;stroke-opacity:1;paint-order:normal"
         d="m -5.2916508,285.53467 c -1.92e-5,0.48708 -2.3691767,-2.64585 -5.2916742,-2.64585 -2.922498,0 -5.291656,3.13293 -5.291675,2.64585 -1.4e-5,-0.48709 2.369154,-4.40974 5.291675,-4.40974 2.9225209,0 5.2916882,3.92265 5.2916742,4.40974 z"
         id="path837"
         inkscape:connector-curvature="0"
         sodipodi:nodetypes="cscsc" />
      <path
         sodipodi:nodetypes="cscsc"
         inkscape:connector-curvature="0"
         id="path840"
         d="m 8.8194819,285.53467 c -1.9e-5,0.48708 -2.3691768,-2.64585 -5.2916743,-2.64585 -2.92249802,0 -5.291656,3.13293 -5.291675,2.64585 -1.4e-5,-0.48709 2.36915398,-4.40974 5.291675,-4.40974 2.9225209,0 5.2916883,3.92265 5.2916743,4.40974 z"
         style="opacity:1;fill:#000000;fill-opacity:1;stroke:none;stroke-width:7.05556631;stroke-linecap:round;stroke-linejoin:round;stroke-miterlimit:4;stroke-dasharray:none;stroke-dashoffset:0;stroke-opacity:1;paint-order:normal" />
    </g>
    <path
       sodipodi:nodetypes="ccsc"
       inkscape:connector-curvature="0"
       id="path846"
       d="m 20.6375,289.06248 c -1.058333,6.08542 -13.7583333,6.08542 -14.8166666,0 0,-0.26458 0.79375,1.32292 7.4083336,1.32292 6.614583,0 7.408333,-1.5875 7.408333,-1.32292 z"
       style="opacity:1;fill:#ffffff;fill-opacity:1;stroke:none;stroke-width:3.77976203;stroke-linecap:round;stroke-linejoin:round;stroke-miterlimit:4;stroke-dasharray:none;stroke-dashoffset:0;stroke-opacity:1;paint-order:normal" />
  </g>
</svg>
