<?xml version="1.0" encoding="UTF-8" standalone="no"?>
<!-- Created with Inkscape (http://www.inkscape.org/) -->

<svg
   xmlns:dc="http://purl.org/dc/elements/1.1/"
   xmlns:cc="http://creativecommons.org/ns#"
   xmlns:rdf="http://www.w3.org/1999/02/22-rdf-syntax-ns#"
   xmlns:svg="http://www.w3.org/2000/svg"
   xmlns="http://www.w3.org/2000/svg"
   xmlns:sodipodi="http://sodipodi.sourceforge.net/DTD/sodipodi-0.dtd"
   xmlns:inkscape="http://www.inkscape.org/namespaces/inkscape"
   width="100"
   height="100"
   viewBox="0 0 100 100"
   id="svg2"
   version="1.1"
   inkscape:version="0.92.3 (2405546, 2018-03-11)"
   inkscape:export-filename="E:\Pictures\Game Development\Projects\RotorBall\UI\UI Icons\Record Icon\Record Icon (1000x1000).png"
   inkscape:export-xdpi="960"
   inkscape:export-ydpi="960"
   sodipodi:docname="Record Icon.svg">
  <defs
     id="defs4" />
  <sodipodi:namedview
     id="base"
     pagecolor="#ffffff"
     bordercolor="#666666"
     borderopacity="1.0"
     inkscape:pageopacity="0.0"
     inkscape:pageshadow="2"
     inkscape:zoom="4"
     inkscape:cx="44.505943"
     inkscape:cy="84.274807"
     inkscape:document-units="px"
     inkscape:current-layer="layer1"
     showgrid="true"
     units="px"
     inkscape:window-width="1920"
     inkscape:window-height="1017"
     inkscape:window-x="-8"
     inkscape:window-y="-8"
     inkscape:window-maximized="1"
     showguides="false">
    <inkscape:grid
       type="xygrid"
       id="grid4136" />
  </sodipodi:namedview>
  <metadata
     id="metadata7">
    <rdf:RDF>
      <cc:Work
         rdf:about="">
        <dc:format>image/svg+xml</dc:format>
        <dc:type
           rdf:resource="http://purl.org/dc/dcmitype/StillImage" />
        <dc:title />
      </cc:Work>
    </rdf:RDF>
  </metadata>
  <g
     inkscape:label="Layer 1"
     inkscape:groupmode="layer"
     id="layer1"
     transform="translate(0,-952.36216)">
    <path
       style="opacity:0.98999999;fill:#ffffff;fill-opacity:1;stroke:none;stroke-width:14.28571415;stroke-linecap:round;stroke-linejoin:round;stroke-miterlimit:4;stroke-dasharray:none;stroke-dashoffset:0;stroke-opacity:1;paint-order:normal"
       d="M 7.142857,966.64786 A 7.1428571,7.1428571 0 0 0 0,973.79072 a 7.1428571,7.1428571 0 0 0 7.142857,7.14285 7.1428571,7.1428571 0 0 0 1.08538,-0.0879 l 6.057477,39.37363 v 0.1088 c 0,1.9186 1.544027,3.4626 3.462612,3.4626 h 64.503348 c 1.918585,0 3.462612,-1.544 3.462612,-3.4626 v -0.1088 l 6.057478,-39.37782 a 7.1428571,7.1428571 0 0 0 1.085379,0.0921 7.1428571,7.1428571 0 0 0 7.142857,-7.14287 7.1428571,7.1428571 0 0 0 -7.142857,-7.14286 7.1428571,7.1428571 0 0 0 -7.142857,7.14286 7.1428571,7.1428571 0 0 0 1.725728,4.64285 L 67.857143,995.21927 54.568917,979.27342 a 7.1428571,7.1428571 0 0 0 2.57394,-5.4827 A 7.1428571,7.1428571 0 0 0 50,966.64786 a 7.1428571,7.1428571 0 0 0 -7.142857,7.14286 7.1428571,7.1428571 0 0 0 2.571149,5.48549 L 32.142857,995.21927 12.564174,978.43776 a 7.1428571,7.1428571 0 0 0 1.72154,-4.64704 7.1428571,7.1428571 0 0 0 -7.142857,-7.14286 z m 10.605469,60.71434 c -1.918585,0 -3.462612,1.544 -3.462612,3.4626 v 3.789 c 0,1.9186 1.544027,3.4627 3.462612,3.4627 h 64.503348 c 1.918585,0 3.462612,-1.5441 3.462612,-3.4627 v -3.789 c 0,-1.9186 -1.544027,-3.4626 -3.462612,-3.4626 z"
       id="rect814"
       inkscape:connector-curvature="0" />
  </g>
</svg>
