<?xml version="1.0" encoding="UTF-8" standalone="no"?>
<!-- Created with Inkscape (http://www.inkscape.org/) -->

<svg
   xmlns:dc="http://purl.org/dc/elements/1.1/"
   xmlns:cc="http://creativecommons.org/ns#"
   xmlns:rdf="http://www.w3.org/1999/02/22-rdf-syntax-ns#"
   xmlns:svg="http://www.w3.org/2000/svg"
   xmlns="http://www.w3.org/2000/svg"
   xmlns:sodipodi="http://sodipodi.sourceforge.net/DTD/sodipodi-0.dtd"
   xmlns:inkscape="http://www.inkscape.org/namespaces/inkscape"
   width="200"
   height="100"
   viewBox="0 0 52.916666 26.458334"
   version="1.1"
   id="svg8"
   inkscape:version="0.92.3 (2405546, 2018-03-11)"
   sodipodi:docname="Electrocardiogram Pattern.svg"
   inkscape:export-filename="E:\Pictures\Game Development\Projects\RotorBall\Assets\Customisation Features\Ball Trails\Electrocardiogram\Electrocardiogram Pattern.png"
   inkscape:export-xdpi="96"
   inkscape:export-ydpi="96">
  <defs
     id="defs2" />
  <sodipodi:namedview
     id="base"
     pagecolor="#ffffff"
     bordercolor="#666666"
     borderopacity="1.0"
     inkscape:pageopacity="0.0"
     inkscape:pageshadow="2"
     inkscape:zoom="4"
     inkscape:cx="52.151474"
     inkscape:cy="17.086785"
     inkscape:document-units="px"
     inkscape:current-layer="g824"
     showgrid="true"
     inkscape:window-width="1920"
     inkscape:window-height="1017"
     inkscape:window-x="-8"
     inkscape:window-y="-8"
     inkscape:window-maximized="1"
     units="px"
     inkscape:pagecheckerboard="true">
    <inkscape:grid
       type="xygrid"
       id="grid815" />
  </sodipodi:namedview>
  <metadata
     id="metadata5">
    <rdf:RDF>
      <cc:Work
         rdf:about="">
        <dc:format>image/svg+xml</dc:format>
        <dc:type
           rdf:resource="http://purl.org/dc/dcmitype/StillImage" />
        <dc:title />
      </cc:Work>
    </rdf:RDF>
  </metadata>
  <g
     inkscape:label="Path"
     inkscape:groupmode="layer"
     id="layer1"
     transform="translate(0,-270.54164)"
     style="display:inline">
    <g
       style="display:inline"
       id="g824"
       transform="translate(0,2.6458275)">
      <path
         style="color:#000000;font-style:normal;font-variant:normal;font-weight:normal;font-stretch:normal;font-size:medium;line-height:normal;font-family:sans-serif;font-variant-ligatures:normal;font-variant-position:normal;font-variant-caps:normal;font-variant-numeric:normal;font-variant-alternates:normal;font-feature-settings:normal;text-indent:0;text-align:start;text-decoration:none;text-decoration-line:none;text-decoration-style:solid;text-decoration-color:#000000;letter-spacing:normal;word-spacing:normal;text-transform:none;writing-mode:lr-tb;direction:ltr;text-orientation:mixed;dominant-baseline:auto;baseline-shift:baseline;text-anchor:start;white-space:normal;shape-padding:0;clip-rule:nonzero;display:inline;overflow:visible;visibility:visible;opacity:1;isolation:auto;mix-blend-mode:normal;color-interpolation:sRGB;color-interpolation-filters:linearRGB;solid-color:#000000;solid-opacity:1;vector-effect:none;fill:#ffffff;fill-opacity:1;fill-rule:evenodd;stroke:none;stroke-width:1.32291663;stroke-linecap:butt;stroke-linejoin:miter;stroke-miterlimit:4;stroke-dasharray:none;stroke-dashoffset:0;stroke-opacity:1;color-rendering:auto;image-rendering:auto;shape-rendering:auto;text-rendering:auto;enable-background:accumulate"
         d="M 11.253906,270.43357 8.9414062,284.30271 8.3457031,283.10936 H 4.2304688 c -0.2247963,-0.2237 -0.4404064,-0.44413 -0.6347657,-0.59961 -0.2570971,-0.20568 -0.5633675,-0.39258 -0.9492187,-0.39258 -0.3858513,0 -0.6940748,0.1869 -0.9511719,0.39258 -0.1943593,0.15548 -0.4099694,0.37591 -0.6347656,0.59961 H 0 v 1.32226 h 1.5976562 l 0.1933594,-0.19336 c 0.3307292,-0.33073 0.5741544,-0.57026 0.7304688,-0.69531 0.1563143,-0.12505 0.180122,-0.10352 0.125,-0.10352 -0.055122,0 -0.033268,-0.0215 0.1230468,0.10352 0.1563144,0.12505 0.4016927,0.36458 0.7324219,0.69531 l 0.1933594,0.19336 h 3.8339844 l 2.0488281,4.09961 2.029297,-12.17187 0.960937,15.39062 1.3125,0.0664 1.3125,-7.86719 c 0.315447,-0.93869 0.630237,-1.63774 0.900391,-2.04297 0.274281,-0.41142 0.443359,-0.45117 0.443359,-0.45117 0,0 0.167125,0.0397 0.441407,0.45117 0.274281,0.41142 0.593791,1.11341 0.914062,2.07422 l 0.339844,1.01562 0.755859,-0.75781 c 0.291753,-0.29175 0.471607,-0.38172 0.507813,-0.39258 0.0362,-0.0109 -0.03375,-0.0217 0.05273,0.0215 0.172962,0.0865 0.735243,0.56445 1.617188,0.56445 h 5.292968 v -1.32226 h -5.292968 c -0.440972,0 -0.538848,-0.18154 -1.027344,-0.42579 -0.244248,-0.12212 -0.644279,-0.21667 -1.021484,-0.10351 -0.110861,0.0333 -0.209269,0.15751 -0.3125,0.21289 -0.234568,-0.59274 -0.463969,-1.2272 -0.726563,-1.62109 -0.387177,-0.58077 -0.879557,-1.03907 -1.541016,-1.03907 -0.661458,0 -1.155791,0.4583 -1.542968,1.03907 -0.387177,0.58076 -0.729125,1.36706 -1.070313,2.39062 l -0.01563,0.0488 -0.380859,2.28125 -0.960929,-15.39255 z"
         id="path820"
         inkscape:connector-curvature="0" />
      <path
         style="color:#000000;font-style:normal;font-variant:normal;font-weight:normal;font-stretch:normal;font-size:medium;line-height:normal;font-family:sans-serif;font-variant-ligatures:normal;font-variant-position:normal;font-variant-caps:normal;font-variant-numeric:normal;font-variant-alternates:normal;font-feature-settings:normal;text-indent:0;text-align:start;text-decoration:none;text-decoration-line:none;text-decoration-style:solid;text-decoration-color:#000000;letter-spacing:normal;word-spacing:normal;text-transform:none;writing-mode:lr-tb;direction:ltr;text-orientation:mixed;dominant-baseline:auto;baseline-shift:baseline;text-anchor:start;white-space:normal;shape-padding:0;clip-rule:nonzero;display:inline;overflow:visible;visibility:visible;opacity:1;isolation:auto;mix-blend-mode:normal;color-interpolation:sRGB;color-interpolation-filters:linearRGB;solid-color:#000000;solid-opacity:1;vector-effect:none;fill:#ffffff;fill-opacity:1;fill-rule:evenodd;stroke:none;stroke-width:1.32291663;stroke-linecap:butt;stroke-linejoin:miter;stroke-miterlimit:4;stroke-dasharray:none;stroke-dashoffset:0;stroke-opacity:1;color-rendering:auto;image-rendering:auto;shape-rendering:auto;text-rendering:auto;enable-background:accumulate"
         d="m 37.712891,270.43357 -2.3125,13.86914 -0.595703,-1.19335 h -4.115235 c -0.224796,-0.2237 -0.440406,-0.44413 -0.634765,-0.59961 -0.257098,-0.20568 -0.565321,-0.39258 -0.951172,-0.39258 -0.385852,0 -0.692122,0.1869 -0.949219,0.39258 -0.194359,0.15548 -0.40997,0.37591 -0.634766,0.59961 h -1.060547 v 1.32226 h 1.595704 l 0.193359,-0.19336 c 0.330729,-0.33073 0.576108,-0.57026 0.732422,-0.69531 0.156314,-0.12505 0.178169,-0.10352 0.123047,-0.10352 -0.05512,0 -0.03131,-0.0215 0.125,0.10352 0.156314,0.12505 0.399739,0.36458 0.730468,0.69531 l 0.19336,0.19336 h 3.833984 l 2.050781,4.09961 2.029297,-12.17187 0.960938,15.39062 1.3125,0.0664 1.308594,-7.85938 c 0.316682,-0.94432 0.633087,-1.64397 0.904296,-2.05078 0.274282,-0.41142 0.441407,-0.45117 0.441407,-0.45117 0,0 0.169078,0.0397 0.443359,0.45117 0.274281,0.41142 0.593792,1.11341 0.914062,2.07422 l 0.337891,1.01562 0.757813,-0.75781 c 0.291752,-0.29175 0.471607,-0.38172 0.507812,-0.39258 0.03621,-0.0109 -0.0357,-0.0217 0.05078,0.0215 0.172962,0.0865 0.737196,0.56445 1.619141,0.56445 h 5.291016 v -1.32226 H 47.625 c -0.440972,0 -0.538848,-0.18154 -1.027344,-0.42579 -0.244248,-0.12212 -0.646231,-0.21667 -1.023437,-0.10351 -0.111,0.0333 -0.209145,0.15742 -0.3125,0.21289 -0.234469,-0.59238 -0.462134,-1.22738 -0.72461,-1.62109 -0.387177,-0.58077 -0.88151,-1.03907 -1.542968,-1.03907 -0.661459,0 -1.153839,0.4583 -1.541016,1.03907 -0.387177,0.58076 -0.729125,1.36706 -1.070313,2.39062 l -0.01562,0.0488 -0.38086,2.28125 -0.960941,-15.39255 z"
         id="path822"
         inkscape:connector-curvature="0" />
    </g>
  </g>
  <g
     inkscape:groupmode="layer"
     id="layer2"
     inkscape:label="Stroke"
     style="display:none">
    <g
       transform="translate(0,-270.54165)"
       id="g842">
      <path
         sodipodi:nodetypes="cccccccccsc"
         inkscape:connector-curvature="0"
         id="path832"
         d="m 0,283.77081 h 1.3229167 c 1.3229167,-1.32292 1.3229167,-1.32292 2.6458334,0 h 3.9687501 l 1.3229167,2.64583 2.6458331,-15.875 1.322917,21.16667 1.322917,-7.9375 c 1.322916,-3.96875 2.645833,-3.96875 3.96875,0 1.322916,-1.32292 1.322916,0 2.645833,0 1.322916,0 3.704166,0 5.291666,0"
         style="fill:none;fill-rule:evenodd;stroke:#000000;stroke-width:0.26458335px;stroke-linecap:butt;stroke-linejoin:miter;stroke-opacity:1" />
      <path
         style="fill:none;fill-rule:evenodd;stroke:#000000;stroke-width:0.26458335px;stroke-linecap:butt;stroke-linejoin:miter;stroke-opacity:1"
         d="m 26.458334,283.77081 h 1.322917 c 1.322916,-1.32292 1.322916,-1.32292 2.645833,0 h 3.96875 l 1.322917,2.64583 2.645833,-15.875 1.322917,21.16667 1.322917,-7.9375 c 1.322916,-3.96875 2.645833,-3.96875 3.96875,0 1.322916,-1.32292 1.322916,0 2.645833,0 1.322916,0 3.704166,0 5.291666,0"
         id="path838"
         inkscape:connector-curvature="0"
         sodipodi:nodetypes="cccccccccsc" />
    </g>
  </g>
</svg>
