<?xml version="1.0" encoding="UTF-8" standalone="no"?>
<!-- Created with Inkscape (http://www.inkscape.org/) -->

<svg
   xmlns:dc="http://purl.org/dc/elements/1.1/"
   xmlns:cc="http://creativecommons.org/ns#"
   xmlns:rdf="http://www.w3.org/1999/02/22-rdf-syntax-ns#"
   xmlns:svg="http://www.w3.org/2000/svg"
   xmlns="http://www.w3.org/2000/svg"
   xmlns:sodipodi="http://sodipodi.sourceforge.net/DTD/sodipodi-0.dtd"
   xmlns:inkscape="http://www.inkscape.org/namespaces/inkscape"
   width="100"
   height="100"
   viewBox="0 0 100 100"
   id="svg2"
   version="1.1"
   inkscape:version="0.92.3 (2405546, 2018-03-11)"
   inkscape:export-filename="E:\Pictures\Game Development\Projects\RotorBall\UI\UI Icons\Money Icon\Money Icon (500x500).png"
   inkscape:export-xdpi="480"
   inkscape:export-ydpi="480"
   sodipodi:docname="Money Icon.svg">
  <defs
     id="defs4" />
  <sodipodi:namedview
     id="base"
     pagecolor="#ffffff"
     bordercolor="#666666"
     borderopacity="1.0"
     inkscape:pageopacity="0.0"
     inkscape:pageshadow="2"
     inkscape:zoom="2.8284271"
     inkscape:cx="20.74663"
     inkscape:cy="15.964755"
     inkscape:document-units="px"
     inkscape:current-layer="layer1"
     showgrid="true"
     units="px"
     inkscape:window-width="1920"
     inkscape:window-height="1017"
     inkscape:window-x="-8"
     inkscape:window-y="-8"
     inkscape:window-maximized="1"
     showguides="false"
     inkscape:measure-start="24,85"
     inkscape:measure-end="28,80">
    <inkscape:grid
       type="xygrid"
       id="grid4136" />
  </sodipodi:namedview>
  <metadata
     id="metadata7">
    <rdf:RDF>
      <cc:Work
         rdf:about="">
        <dc:format>image/svg+xml</dc:format>
        <dc:type
           rdf:resource="http://purl.org/dc/dcmitype/StillImage" />
        <dc:title />
      </cc:Work>
    </rdf:RDF>
  </metadata>
  <g
     inkscape:label="Layer 1"
     inkscape:groupmode="layer"
     id="layer1"
     transform="translate(0,-952.36216)">
    <g
       id="g930"
       transform="matrix(1.0638298,0,0,1.0638298,-3.1914885,-69.83164)"
       style="fill:#ffffff">
      <g
         transform="matrix(-0.83032156,0,0,0.83032156,115.68194,160.14047)"
         id="g903"
         style="fill:#ffffff">
        <path
           inkscape:connector-curvature="0"
           id="path897"
           transform="matrix(-1.2043527,0,0,1.2043527,139.32186,958.93173)"
           d="M 74.166016,7 A 22.833843,8.3032156 0 0 0 64.089844,7.8632812 32.47,11.807272 0 0 1 82.470703,18.490234 V 35.484375 A 22.833843,8.3032156 0 0 0 97,27.757812 V 15.302734 A 22.833843,8.3032156 0 0 0 74.166016,7 Z"
           style="opacity:0.98999999;fill:#ffffff;fill-opacity:1;stroke:none;stroke-width:16.60643196;stroke-linecap:round;stroke-linejoin:round;stroke-miterlimit:4;stroke-dasharray:none;stroke-dashoffset:0;stroke-opacity:1;paint-order:normal" />
        <path
           style="opacity:0.98999999;fill:#ffffff;fill-opacity:1;stroke:none;stroke-width:20;stroke-linecap:round;stroke-linejoin:round;stroke-miterlimit:4;stroke-dasharray:none;stroke-dashoffset:0;stroke-opacity:1;paint-order:normal"
           d="M 5.9003906,67.488281 A 27.5,10 0 0 0 5,70 v 15 a 27.5,10 0 0 0 17.5,9.304688 V 90 75 74.296875 A 27.5,10 0 0 1 5.9003906,67.488281 Z"
           transform="translate(17.5,957.3622)"
           id="path899"
           inkscape:connector-curvature="0" />
        <path
           style="opacity:0.98999999;fill:#ffffff;fill-opacity:1;stroke:none;stroke-width:20;stroke-linecap:round;stroke-linejoin:round;stroke-miterlimit:4;stroke-dasharray:none;stroke-dashoffset:0;stroke-opacity:1;paint-order:normal"
           d="M 5.9003906,42.488281 A 27.5,10 0 0 0 5,45 v 15 a 27.5,10 0 0 0 17.5,9.304688 V 65 50 49.296875 A 27.5,10 0 0 1 5.9003906,42.488281 Z"
           transform="translate(17.5,957.3622)"
           id="path901"
           inkscape:connector-curvature="0" />
      </g>
      <g
         style="fill:#ffffff"
         id="g864"
         transform="matrix(0.83032156,0,0,0.83032156,-15.682235,160.14047)">
        <path
           inkscape:connector-curvature="0"
           id="path858"
           transform="matrix(1.2043527,0,0,1.2043527,18.886942,958.93173)"
           d="M 25.833984,7 A 22.833843,8.3032156 0 0 0 3,15.302734 v 12.455078 a 22.833843,8.3032156 0 0 0 14.529297,7.726563 V 18.490234 A 32.47,11.807272 0 0 1 35.925781,7.8652344 22.833843,8.3032156 0 0 0 25.833984,7 Z"
           style="opacity:0.98999999;fill:#ffffff;fill-opacity:1;stroke:none;stroke-width:16.60643196;stroke-linecap:round;stroke-linejoin:round;stroke-miterlimit:4;stroke-dasharray:none;stroke-dashoffset:0;stroke-opacity:1;paint-order:normal" />
        <path
           inkscape:connector-curvature="0"
           id="path860"
           transform="translate(17.5,957.3622)"
           d="M 5.9003906,67.488281 A 27.5,10 0 0 0 5,70 v 15 a 27.5,10 0 0 0 17.5,9.304688 V 90 75 74.296875 A 27.5,10 0 0 1 5.9003906,67.488281 Z"
           style="opacity:0.98999999;fill:#ffffff;fill-opacity:1;stroke:none;stroke-width:20;stroke-linecap:round;stroke-linejoin:round;stroke-miterlimit:4;stroke-dasharray:none;stroke-dashoffset:0;stroke-opacity:1;paint-order:normal" />
        <path
           inkscape:connector-curvature="0"
           id="path862"
           transform="translate(17.5,957.3622)"
           d="M 5.9003906,42.488281 A 27.5,10 0 0 0 5,45 v 15 a 27.5,10 0 0 0 17.5,9.304688 V 65 50 49.296875 A 27.5,10 0 0 1 5.9003906,42.488281 Z"
           style="opacity:0.98999999;fill:#ffffff;fill-opacity:1;stroke:none;stroke-width:20;stroke-linecap:round;stroke-linejoin:round;stroke-miterlimit:4;stroke-dasharray:none;stroke-dashoffset:0;stroke-opacity:1;paint-order:normal" />
      </g>
      <g
         style="fill:#ffffff"
         transform="matrix(0.99984604,0,0,0.99984604,0.007698,0.16198168)"
         id="g856">
        <path
           style="opacity:0.98999999;fill:#ffffff;fill-opacity:1;stroke:none;stroke-width:20;stroke-linecap:round;stroke-linejoin:round;stroke-miterlimit:4;stroke-dasharray:none;stroke-dashoffset:0;stroke-opacity:1;paint-order:normal"
           d="m 50,967.36216 a 27.5,10 0 0 0 -27.5,10 v 15 A 27.5,10 0 0 0 50,1002.3622 27.5,10 0 0 0 77.5,992.36216 v -15 a 27.5,10 0 0 0 -27.5,-10 z"
           id="rect825"
           inkscape:connector-curvature="0" />
        <path
           style="opacity:0.98999999;fill:#ffffff;fill-opacity:1;stroke:none;stroke-width:20;stroke-linecap:round;stroke-linejoin:round;stroke-miterlimit:4;stroke-dasharray:none;stroke-dashoffset:0;stroke-opacity:1;paint-order:normal"
           d="M 23.400391,1024.8504 A 27.5,10 0 0 0 22.5,1027.3622 v 15 a 27.5,10 0 0 0 27.5,10 27.5,10 0 0 0 27.5,-10 v -15 A 27.5,10 0 0 0 76.599609,1024.8739 27.5,10 0 0 1 50,1032.3622 27.5,10 0 0 1 23.400391,1024.8504 Z"
           id="path838"
           inkscape:connector-curvature="0" />
        <path
           id="path844"
           d="M 23.400391,999.85056 A 27.5,10 0 0 0 22.5,1002.3623 v 14.9999 a 27.5,10 0 0 0 27.5,10 27.5,10 0 0 0 27.5,-10 v -14.9999 A 27.5,10 0 0 0 76.599609,999.87396 27.5,10 0 0 1 50,1007.3622 27.5,10 0 0 1 23.400391,999.85056 Z"
           style="opacity:0.98999999;fill:#ffffff;fill-opacity:1;stroke:none;stroke-width:20;stroke-linecap:round;stroke-linejoin:round;stroke-miterlimit:4;stroke-dasharray:none;stroke-dashoffset:0;stroke-opacity:1;paint-order:normal"
           inkscape:connector-curvature="0" />
      </g>
    </g>
    <g
       transform="translate(0,-4e-5)"
       id="g874"
       style="fill:#ff0000" />
  </g>
</svg>
