<?xml version="1.0" encoding="UTF-8" standalone="no"?>
<!-- Created with Inkscape (http://www.inkscape.org/) -->

<svg
   xmlns:dc="http://purl.org/dc/elements/1.1/"
   xmlns:cc="http://creativecommons.org/ns#"
   xmlns:rdf="http://www.w3.org/1999/02/22-rdf-syntax-ns#"
   xmlns:svg="http://www.w3.org/2000/svg"
   xmlns="http://www.w3.org/2000/svg"
   xmlns:sodipodi="http://sodipodi.sourceforge.net/DTD/sodipodi-0.dtd"
   xmlns:inkscape="http://www.inkscape.org/namespaces/inkscape"
   width="100"
   height="100"
   viewBox="0 0 26.458333 26.458334"
   version="1.1"
   id="svg8"
   inkscape:version="0.92.3 (2405546, 2018-03-11)"
   sodipodi:docname="Biscuit - Bourbon.svg"
   inkscape:export-filename="E:\Pictures\Game Development\Projects\RotorBall\Assets\Customisation Features\Ball Explosions\Bones\Bone - Variation 1 (100x100).png"
   inkscape:export-xdpi="96"
   inkscape:export-ydpi="96">
  <defs
     id="defs2" />
  <sodipodi:namedview
     id="base"
     pagecolor="#ffffff"
     bordercolor="#666666"
     borderopacity="1.0"
     inkscape:pageopacity="0.0"
     inkscape:pageshadow="2"
     inkscape:zoom="5.6568545"
     inkscape:cx="43.367879"
     inkscape:cy="37.829925"
     inkscape:document-units="px"
     inkscape:current-layer="text825"
     showgrid="true"
     units="px"
     inkscape:window-width="1920"
     inkscape:window-height="1017"
     inkscape:window-x="-8"
     inkscape:window-y="-8"
     inkscape:window-maximized="1">
    <inkscape:grid
       type="xygrid"
       id="grid815" />
  </sodipodi:namedview>
  <metadata
     id="metadata5">
    <rdf:RDF>
      <cc:Work
         rdf:about="">
        <dc:format>image/svg+xml</dc:format>
        <dc:type
           rdf:resource="http://purl.org/dc/dcmitype/StillImage" />
        <dc:title />
      </cc:Work>
    </rdf:RDF>
  </metadata>
  <g
     inkscape:label="Chip"
     inkscape:groupmode="layer"
     id="layer1"
     transform="translate(0,-270.54165)"
     style="display:inline">
    <g
       id="g934">
      <g
         id="g950"
         transform="translate(2.6984567e-7,2.3152739)">
        <rect
           style="opacity:1;fill:#502d16;fill-opacity:1;stroke:none;stroke-width:3.96875;stroke-linecap:round;stroke-linejoin:round;stroke-miterlimit:4;stroke-dasharray:none;stroke-dashoffset:0;stroke-opacity:1;paint-order:normal"
           id="rect821"
           width="26.458334"
           height="10.58333"
           x="-2.6984566e-007"
           y="276.16388" />
        <g
           aria-label="BOURBON"
           style="font-style:normal;font-variant:normal;font-weight:bold;font-stretch:normal;font-size:3.68689823px;line-height:125%;font-family:Montserrat;-inkscape-font-specification:'Montserrat Bold';letter-spacing:0px;word-spacing:0px;fill:#000000;fill-opacity:1;stroke:none;stroke-width:0.09217245px;stroke-linecap:butt;stroke-linejoin:miter;stroke-opacity:1"
           id="text825">
          <g
             id="g849"
             transform="translate(1.3015432e-7,-1.215e-5)">
            <path
               id="path827"
               style="font-style:normal;font-variant:normal;font-weight:bold;font-stretch:normal;font-family:Montserrat;-inkscape-font-specification:'Montserrat Bold';fill:#28170b;stroke-width:0.09217245px"
               d="m 5.2023574,281.40394 c 0.2101532,-0.11061 0.3428815,-0.3097 0.3428815,-0.56778 0,-0.40187 -0.3318208,-0.67102 -0.977028,-0.67102 H 3.3072917 v 2.58083 h 1.3346571 c 0.6783893,0 1.0323315,-0.25808 1.0323315,-0.7042 0,-0.32444 -0.1843449,-0.54566 -0.4719229,-0.63783 z m -0.7078845,-0.789 c 0.291265,0 0.4498016,0.0996 0.4498016,0.30233 0,0.20278 -0.1585366,0.30601 -0.4498016,0.30601 H 3.9008823 v -0.60834 z m 0.1032331,1.68123 H 3.9008823 v -0.63783 H 4.597706 c 0.3096995,0 0.4756099,0.10323 0.4756099,0.32076 0,0.22121 -0.1659104,0.31707 -0.4756099,0.31707 z"
               inkscape:connector-curvature="0" />
            <path
               id="path829"
               style="font-style:normal;font-variant:normal;font-weight:bold;font-stretch:normal;font-family:Montserrat;-inkscape-font-specification:'Montserrat Bold';fill:#28170b;stroke-width:0.09217245px"
               d="m 7.3799317,282.79021 c 0.8111176,0 1.4120821,-0.56409 1.4120821,-1.33465 0,-0.77056 -0.6009645,-1.33466 -1.4120821,-1.33466 -0.8148045,0 -1.412082,0.56778 -1.412082,1.33466 0,0.76687 0.5972775,1.33465 1.412082,1.33465 z m 0,-0.50879 c -0.4608622,0 -0.8074307,-0.33551 -0.8074307,-0.82586 0,-0.49036 0.3465685,-0.82587 0.8074307,-0.82587 0.4608623,0 0.8074307,0.33551 0.8074307,0.82587 0,0.49035 -0.3465684,0.82586 -0.8074307,0.82586 z"
               inkscape:connector-curvature="0" />
            <path
               id="path831"
               style="font-style:normal;font-variant:normal;font-weight:bold;font-stretch:normal;font-family:Montserrat;-inkscape-font-specification:'Montserrat Bold';fill:#28170b;stroke-width:0.09217245px"
               d="m 10.387519,282.79021 c 0.733693,0 1.168747,-0.4203 1.168747,-1.1798 v -1.44527 h -0.589904 v 1.42315 c 0,0.49035 -0.210153,0.69313 -0.575156,0.69313 -0.361316,0 -0.5751564,-0.20278 -0.5751564,-0.69313 v -1.42315 H 9.2187721 v 1.44527 c 0,0.7595 0.435054,1.1798 1.1687469,1.1798 z"
               inkscape:connector-curvature="0" />
            <path
               id="path833"
               style="font-style:normal;font-variant:normal;font-weight:bold;font-stretch:normal;font-family:Montserrat;-inkscape-font-specification:'Montserrat Bold';fill:#28170b;stroke-width:0.09217245px"
               d="m 14.428763,282.74597 -0.578843,-0.82955 c 0.335507,-0.14379 0.530913,-0.42768 0.530913,-0.8148 0,-0.57885 -0.431367,-0.93648 -1.120817,-0.93648 h -1.11713 v 2.58083 h 0.597277 v -0.71894 h 0.519853 0.02949 l 0.497731,0.71894 z m -0.652581,-1.64435 c 0,0.2802 -0.184345,0.4498 -0.549348,0.4498 h -0.486671 v -0.89961 h 0.486671 c 0.365003,0 0.549348,0.16591 0.549348,0.44981 z"
               inkscape:connector-curvature="0" />
            <path
               id="path835"
               style="font-style:normal;font-variant:normal;font-weight:bold;font-stretch:normal;font-family:Montserrat;-inkscape-font-specification:'Montserrat Bold';fill:#28170b;stroke-width:0.09217245px"
               d="m 16.745517,281.40394 c 0.210153,-0.11061 0.342881,-0.3097 0.342881,-0.56778 0,-0.40187 -0.33182,-0.67102 -0.977028,-0.67102 h -1.260919 v 2.58083 h 1.334657 c 0.67839,0 1.032332,-0.25808 1.032332,-0.7042 0,-0.32444 -0.184345,-0.54566 -0.471923,-0.63783 z m -0.707885,-0.789 c 0.291265,0 0.449802,0.0996 0.449802,0.30233 0,0.20278 -0.158537,0.30601 -0.449802,0.30601 h -0.59359 v -0.60834 z m 0.103234,1.68123 h -0.696824 v -0.63783 h 0.696824 c 0.309699,0 0.475609,0.10323 0.475609,0.32076 0,0.22121 -0.16591,0.31707 -0.475609,0.31707 z"
               inkscape:connector-curvature="0" />
            <path
               id="path837"
               style="font-style:normal;font-variant:normal;font-weight:bold;font-stretch:normal;font-family:Montserrat;-inkscape-font-specification:'Montserrat Bold';fill:#28170b;stroke-width:0.09217245px"
               d="m 18.923091,282.79021 c 0.811118,0 1.412082,-0.56409 1.412082,-1.33465 0,-0.77056 -0.600964,-1.33466 -1.412082,-1.33466 -0.814804,0 -1.412082,0.56778 -1.412082,1.33466 0,0.76687 0.597278,1.33465 1.412082,1.33465 z m 0,-0.50879 c -0.460862,0 -0.80743,-0.33551 -0.80743,-0.82586 0,-0.49036 0.346568,-0.82587 0.80743,-0.82587 0.460862,0 0.807431,0.33551 0.807431,0.82587 0,0.49035 -0.346569,0.82586 -0.807431,0.82586 z"
               inkscape:connector-curvature="0" />
            <path
               id="path839"
               style="font-style:normal;font-variant:normal;font-weight:bold;font-stretch:normal;font-family:Montserrat;-inkscape-font-specification:'Montserrat Bold';fill:#28170b;stroke-width:0.09217245px"
               d="m 22.561137,280.16514 v 1.56693 l -1.28304,-1.56693 h -0.494044 v 2.58083 h 0.589903 v -1.56693 l 1.286728,1.56693 h 0.490357 v -2.58083 z"
               inkscape:connector-curvature="0" />
          </g>
          <g
             id="g870">
            <circle
               r="0.66145831"
               cy="278.14825"
               cx="1.9843748"
               id="path851"
               style="opacity:1;fill:#28170b;fill-opacity:1;stroke:none;stroke-width:3.96875;stroke-linecap:round;stroke-linejoin:round;stroke-miterlimit:4;stroke-dasharray:none;stroke-dashoffset:0;stroke-opacity:1;paint-order:normal" />
            <circle
               r="0.66145831"
               cy="278.14825"
               cx="24.473957"
               id="path853"
               style="opacity:1;fill:#28170b;fill-opacity:1;stroke:none;stroke-width:3.96875;stroke-linecap:round;stroke-linejoin:round;stroke-miterlimit:4;stroke-dasharray:none;stroke-dashoffset:0;stroke-opacity:1;paint-order:normal" />
            <circle
               r="0.66145831"
               cy="278.14825"
               cx="18.851561"
               id="path855"
               style="opacity:1;fill:#28170b;fill-opacity:1;stroke:none;stroke-width:3.96875;stroke-linecap:round;stroke-linejoin:round;stroke-miterlimit:4;stroke-dasharray:none;stroke-dashoffset:0;stroke-opacity:1;paint-order:normal" />
            <circle
               r="0.66145831"
               cy="278.14825"
               cx="13.229165"
               id="path857"
               style="opacity:1;fill:#28170b;fill-opacity:1;stroke:none;stroke-width:3.96875;stroke-linecap:round;stroke-linejoin:round;stroke-miterlimit:4;stroke-dasharray:none;stroke-dashoffset:0;stroke-opacity:1;paint-order:normal" />
            <circle
               r="0.66145831"
               cy="278.14825"
               cx="7.60677"
               id="path859"
               style="opacity:1;fill:#28170b;fill-opacity:1;stroke:none;stroke-width:3.96875;stroke-linecap:round;stroke-linejoin:round;stroke-miterlimit:4;stroke-dasharray:none;stroke-dashoffset:0;stroke-opacity:1;paint-order:normal" />
          </g>
          <g
             id="g882"
             transform="translate(0,6.6145802)">
            <circle
               style="opacity:1;fill:#28170b;fill-opacity:1;stroke:none;stroke-width:3.96875;stroke-linecap:round;stroke-linejoin:round;stroke-miterlimit:4;stroke-dasharray:none;stroke-dashoffset:0;stroke-opacity:1;paint-order:normal"
               id="circle872"
               cx="1.9843748"
               cy="278.14825"
               r="0.66145831" />
            <circle
               style="opacity:1;fill:#28170b;fill-opacity:1;stroke:none;stroke-width:3.96875;stroke-linecap:round;stroke-linejoin:round;stroke-miterlimit:4;stroke-dasharray:none;stroke-dashoffset:0;stroke-opacity:1;paint-order:normal"
               id="circle874"
               cx="24.473957"
               cy="278.14825"
               r="0.66145831" />
            <circle
               style="opacity:1;fill:#28170b;fill-opacity:1;stroke:none;stroke-width:3.96875;stroke-linecap:round;stroke-linejoin:round;stroke-miterlimit:4;stroke-dasharray:none;stroke-dashoffset:0;stroke-opacity:1;paint-order:normal"
               id="circle876"
               cx="18.851561"
               cy="278.14825"
               r="0.66145831" />
            <circle
               style="opacity:1;fill:#28170b;fill-opacity:1;stroke:none;stroke-width:3.96875;stroke-linecap:round;stroke-linejoin:round;stroke-miterlimit:4;stroke-dasharray:none;stroke-dashoffset:0;stroke-opacity:1;paint-order:normal"
               id="circle878"
               cx="13.229165"
               cy="278.14825"
               r="0.66145831" />
            <circle
               style="opacity:1;fill:#28170b;fill-opacity:1;stroke:none;stroke-width:3.96875;stroke-linecap:round;stroke-linejoin:round;stroke-miterlimit:4;stroke-dasharray:none;stroke-dashoffset:0;stroke-opacity:1;paint-order:normal"
               id="circle880"
               cx="7.60677"
               cy="278.14825"
               r="0.66145831" />
          </g>
        </g>
      </g>
    </g>
  </g>
</svg>
