<?xml version="1.0" encoding="UTF-8" standalone="no"?>
<!-- Created with Inkscape (http://www.inkscape.org/) -->

<svg
   xmlns:dc="http://purl.org/dc/elements/1.1/"
   xmlns:cc="http://creativecommons.org/ns#"
   xmlns:rdf="http://www.w3.org/1999/02/22-rdf-syntax-ns#"
   xmlns:svg="http://www.w3.org/2000/svg"
   xmlns="http://www.w3.org/2000/svg"
   xmlns:sodipodi="http://sodipodi.sourceforge.net/DTD/sodipodi-0.dtd"
   xmlns:inkscape="http://www.inkscape.org/namespaces/inkscape"
   width="100"
   height="100"
   viewBox="0 0 26.458333 26.458334"
   version="1.1"
   id="svg8"
   inkscape:version="0.92.3 (2405546, 2018-03-11)"
   sodipodi:docname="Biscuit - Custard Cream.svg"
   inkscape:export-filename="E:\Pictures\Game Development\Projects\RotorBall\Assets\Customisation Features\Ball Explosions\Biscuits\Biscuit - Custard Cream (100x100).png"
   inkscape:export-xdpi="96"
   inkscape:export-ydpi="96">
  <defs
     id="defs2" />
  <sodipodi:namedview
     id="base"
     pagecolor="#ffffff"
     bordercolor="#666666"
     borderopacity="1.0"
     inkscape:pageopacity="0.0"
     inkscape:pageshadow="2"
     inkscape:zoom="4.0000002"
     inkscape:cx="15.116165"
     inkscape:cy="44.112561"
     inkscape:document-units="px"
     inkscape:current-layer="g950"
     showgrid="true"
     units="px"
     inkscape:window-width="1920"
     inkscape:window-height="1017"
     inkscape:window-x="-8"
     inkscape:window-y="-8"
     inkscape:window-maximized="1">
    <inkscape:grid
       type="xygrid"
       id="grid815" />
  </sodipodi:namedview>
  <metadata
     id="metadata5">
    <rdf:RDF>
      <cc:Work
         rdf:about="">
        <dc:format>image/svg+xml</dc:format>
        <dc:type
           rdf:resource="http://purl.org/dc/dcmitype/StillImage" />
        <dc:title />
      </cc:Work>
    </rdf:RDF>
  </metadata>
  <g
     inkscape:label="Chip"
     inkscape:groupmode="layer"
     id="layer1"
     transform="translate(0,-270.54165)"
     style="display:inline">
    <g
       id="g934">
      <g
         id="g950"
         transform="translate(2.6984567e-7,2.3152739)">
        <rect
           style="opacity:1;fill:#fad282;fill-opacity:1;stroke:none;stroke-width:3.96875;stroke-linecap:round;stroke-linejoin:round;stroke-miterlimit:4;stroke-dasharray:none;stroke-dashoffset:0;stroke-opacity:1;paint-order:normal"
           id="rect821"
           width="26.458334"
           height="18.52083"
           x="-5.0440377e-007"
           y="272.19513" />
        <path
           style="opacity:1;fill:#e6b450;fill-opacity:1;stroke:none;stroke-width:3.96875;stroke-linecap:round;stroke-linejoin:round;stroke-miterlimit:4;stroke-dasharray:none;stroke-dashoffset:0;stroke-opacity:1;paint-order:normal"
           d="m 1.3229166,273.51804 v 15.875 h 1.3229167 v -15.875 z m 2.8111979,0 v 7.83828 l 1.3229167,-0.79375 v -7.04453 z m 2.8111979,0 v 6.15156 l 1.3229166,-0.79375 v -5.35781 z m 2.8111979,0 v 4.46484 l 1.3229167,-0.79375 v -3.67109 z m 2.8111977,0 v 2.77812 l 0.661458,-0.39687 0.661459,0.39687 v -2.77812 z m 2.811198,0 v 3.67109 l 1.322917,0.79375 v -4.46484 z m 2.811198,0 v 5.35781 l 1.322917,0.79375 v -6.15156 z m 2.811198,0 v 7.04453 l 1.322916,0.79375 v -7.83828 z m 2.811198,0 v 15.875 h 1.322916 v -15.875 z m -19.6783855,8.03672 v 7.83828 h 1.3229167 v -7.04453 z m 18.1901035,0 -1.322916,0.79375 v 7.04453 h 1.322916 z m -15.3789056,1.68671 v 6.15157 H 8.268229 v -5.35782 z m 12.5677086,0 -1.322917,0.79375 v 5.35782 h 1.322917 z m -9.7565107,1.68672 v 4.46485 h 1.3229167 v -3.6711 z m 6.9453127,0 -1.322917,0.79375 v 3.6711 h 1.322917 z m -4.134115,1.68672 v 2.77813 h 1.322917 v -2.77813 l -0.661459,0.39688 z"
           id="rect860"
           inkscape:connector-curvature="0" />
        <g
           id="g887"
           transform="matrix(0.85714285,0,0,0.85714285,1.8898812,40.207939)"
           style="fill:#e6b450;fill-opacity:1">
          <path
             inkscape:connector-curvature="0"
             id="path843"
             d="m 13.229166,277.48679 -6.6145825,3.96875 6.6145825,3.96875 6.614583,-3.96875 z m 0,0.79375 5.291667,3.175 -5.291667,3.175 -5.2916665,-3.175 z"
             style="fill:#e6b450;fill-opacity:1;fill-rule:evenodd;stroke:none;stroke-width:0.26458332px;stroke-linecap:butt;stroke-linejoin:miter;stroke-opacity:1" />
          <path
             inkscape:connector-curvature="0"
             style="fill:#e6b450;fill-opacity:1;fill-rule:evenodd;stroke:none;stroke-width:0.3704167px;stroke-linecap:butt;stroke-linejoin:miter;stroke-opacity:1"
             d="m 13.229166,275.89929 -9.2604165,5.55625 9.2604165,5.55625 9.260417,-5.55625 z m 0,1.11125 7.408334,4.445 -7.408334,4.445 -7.4083325,-4.445 z"
             id="path854" />
        </g>
      </g>
    </g>
  </g>
</svg>
