<?xml version="1.0" encoding="UTF-8" standalone="no"?>
<!-- Created with Inkscape (http://www.inkscape.org/) -->

<svg
   xmlns:dc="http://purl.org/dc/elements/1.1/"
   xmlns:cc="http://creativecommons.org/ns#"
   xmlns:rdf="http://www.w3.org/1999/02/22-rdf-syntax-ns#"
   xmlns:svg="http://www.w3.org/2000/svg"
   xmlns="http://www.w3.org/2000/svg"
   xmlns:sodipodi="http://sodipodi.sourceforge.net/DTD/sodipodi-0.dtd"
   xmlns:inkscape="http://www.inkscape.org/namespaces/inkscape"
   width="100"
   height="100"
   viewBox="0 0 100 100"
   id="svg2"
   version="1.1"
   inkscape:version="0.92.3 (2405546, 2018-03-11)"
   sodipodi:docname="Clover - Three Leaves.svg"
   inkscape:export-filename="E:\Pictures\Game Development\Projects\RotorBall\Assets\Customisation Features\Ball Explosions\Clovers\Clover - Three Leaves (100x100).png"
   inkscape:export-xdpi="96"
   inkscape:export-ydpi="96">
  <defs
     id="defs4">
    <linearGradient
       x1="0"
       y1="0"
       x2="1"
       y2="0"
       gradientUnits="userSpaceOnUse"
       gradientTransform="matrix(0,63.997116,63.997116,0,540.0625,256.06393)"
       spreadMethod="pad"
       id="linearGradient992">
      <stop
         style="stop-opacity:1;stop-color:#ffd872"
         offset="0"
         id="stop984" />
      <stop
         style="stop-opacity:1;stop-color:#ffd872"
         offset="0.0554448"
         id="stop986" />
      <stop
         style="stop-opacity:1;stop-color:#ffd872"
         offset="0.24236174"
         id="stop988" />
      <stop
         style="stop-opacity:1;stop-color:#ff3c00"
         offset="1"
         id="stop990" />
    </linearGradient>
    <clipPath
       id="clipPath574"
       clipPathUnits="userSpaceOnUse">
      <path
         inkscape:connector-curvature="0"
         id="path572"
         d="m 508.064,288.062 c 0,-17.672 14.326,-31.998 31.998,-31.998 v 0 c 17.672,0 32,14.326 32,31.998 v 0 c 0,17.672 -14.328,31.999 -32,31.999 v 0 c -17.672,0 -31.998,-14.327 -31.998,-31.999" />
    </clipPath>
    <linearGradient
       id="linearGradient588"
       spreadMethod="pad"
       gradientTransform="matrix(0,63.997116,63.997116,0,540.0625,256.06393)"
       gradientUnits="userSpaceOnUse"
       y2="0"
       x2="1"
       y1="0"
       x1="0">
      <stop
         id="stop580"
         offset="0"
         style="stop-opacity:1;stop-color:#ffd872" />
      <stop
         id="stop582"
         offset="0.0554448"
         style="stop-opacity:1;stop-color:#ffd872" />
      <stop
         id="stop584"
         offset="0.24236174"
         style="stop-opacity:1;stop-color:#ffd872" />
      <stop
         id="stop586"
         offset="1"
         style="stop-opacity:1;stop-color:#ec4f65" />
    </linearGradient>
    <clipPath
       id="clipPath574-8"
       clipPathUnits="userSpaceOnUse">
      <path
         inkscape:connector-curvature="0"
         id="path572-9"
         d="m 508.064,288.062 c 0,-17.672 14.326,-31.998 31.998,-31.998 v 0 c 17.672,0 32,14.326 32,31.998 v 0 c 0,17.672 -14.328,31.999 -32,31.999 v 0 c -17.672,0 -31.998,-14.327 -31.998,-31.999" />
    </clipPath>
    <clipPath
       id="clipPath598"
       clipPathUnits="userSpaceOnUse">
      <path
         inkscape:connector-curvature="0"
         id="path596"
         d="M 0,1280 H 720 V 0 H 0 Z" />
    </clipPath>
    <clipPath
       id="clipPath610"
       clipPathUnits="userSpaceOnUse">
      <path
         inkscape:connector-curvature="0"
         id="path608"
         d="m 147.996,319.918 h 63.96 v -63.959 h -63.96 z" />
    </clipPath>
    <clipPath
       id="clipPath626"
       clipPathUnits="userSpaceOnUse">
      <path
         inkscape:connector-curvature="0"
         id="path624"
         d="m 220.065,319.962 h 63.997 v -63.997 h -63.997 z" />
    </clipPath>
  </defs>
  <sodipodi:namedview
     id="base"
     pagecolor="#ffffff"
     bordercolor="#666666"
     borderopacity="1.0"
     inkscape:pageopacity="0.0"
     inkscape:pageshadow="2"
     inkscape:zoom="5.6568543"
     inkscape:cx="47.343414"
     inkscape:cy="37.172895"
     inkscape:document-units="px"
     inkscape:current-layer="g935"
     showgrid="true"
     units="px"
     inkscape:window-width="1920"
     inkscape:window-height="1017"
     inkscape:window-x="-8"
     inkscape:window-y="-8"
     inkscape:window-maximized="1">
    <inkscape:grid
       type="xygrid"
       id="grid4136" />
  </sodipodi:namedview>
  <metadata
     id="metadata7">
    <rdf:RDF>
      <cc:Work
         rdf:about="">
        <dc:format>image/svg+xml</dc:format>
        <dc:type
           rdf:resource="http://purl.org/dc/dcmitype/StillImage" />
        <dc:title />
      </cc:Work>
    </rdf:RDF>
  </metadata>
  <g
     inkscape:label="Layer 1"
     inkscape:groupmode="layer"
     id="layer1"
     transform="translate(0,-952.36216)">
    <g
       id="g4267"
       transform="matrix(23.364705,0,0,23.364705,-22363.53,-2484.6983)">
      <g
         id="g935"
         transform="matrix(1,0,0,1.0000157,-0.26854,0.1325579)">
        <path
           style="fill:#ffffff;fill-opacity:1;fill-rule:evenodd;stroke:none;stroke-width:0.04279926px;stroke-linecap:butt;stroke-linejoin:miter;stroke-opacity:1"
           d="m 959.02364,151.24983 c 0.42799,-0.64198 0.42799,-1.49795 0.42799,-2.13994 h 0.214 c 0,0.64199 0,1.49796 -0.428,2.13994 z"
           id="path852"
           inkscape:connector-curvature="0"
           sodipodi:nodetypes="ccccc" />
        <path
           style="opacity:1;fill:#ffffff;fill-opacity:1;stroke:none;stroke-width:0.01253556;stroke-linecap:round;stroke-linejoin:round;stroke-miterlimit:4;stroke-dasharray:none;stroke-dashoffset:0;stroke-opacity:1;paint-order:normal"
           d="m 960.45029,147.15353 c 0.51274,0.73074 -0.38479,1.63834 -0.88642,2.13995 -0.4308,-0.43752 -1.44457,-1.54681 -0.88639,-2.13996 0.24478,-0.24476 0.64162,-0.24475 0.88639,1e-5 0.24478,-0.24478 0.64164,-0.24478 0.88642,0 z"
           id="path856"
           inkscape:connector-curvature="0"
           sodipodi:nodetypes="ccccc" />
        <path
           sodipodi:nodetypes="ccccc"
           inkscape:connector-curvature="0"
           id="path858"
           d="m 961.51502,150.17986 c -0.73075,0.51274 -1.63836,-0.38478 -2.13998,-0.8864 0.43753,-0.4308 1.54683,-1.44455 2.13999,-0.88638 0.24477,0.24478 0.24476,0.64161 -10e-6,0.88638 0.24479,0.24477 0.24479,0.64163 0,0.8864 z"
           style="opacity:1;fill:#ffffff;fill-opacity:1;stroke:none;stroke-width:0.01253556;stroke-linecap:round;stroke-linejoin:round;stroke-miterlimit:4;stroke-dasharray:none;stroke-dashoffset:0;stroke-opacity:1;paint-order:normal" />
        <path
           style="opacity:1;fill:#ffffff;fill-opacity:1;stroke:none;stroke-width:0.01253556;stroke-linecap:round;stroke-linejoin:round;stroke-miterlimit:4;stroke-dasharray:none;stroke-dashoffset:0;stroke-opacity:1;paint-order:normal"
           d="m 957.60224,150.17986 c 0.73075,0.51274 1.63836,-0.38478 2.13998,-0.8864 -0.43753,-0.4308 -1.54683,-1.44455 -2.13999,-0.88638 -0.24477,0.24478 -0.24476,0.64161 1e-5,0.88638 -0.24479,0.24477 -0.24479,0.64163 0,0.8864 z"
           id="path860"
           inkscape:connector-curvature="0"
           sodipodi:nodetypes="ccccc" />
      </g>
    </g>
  </g>
</svg>
