<?xml version="1.0" encoding="UTF-8" standalone="no"?>
<!-- Created with Inkscape (http://www.inkscape.org/) -->

<svg
   xmlns:dc="http://purl.org/dc/elements/1.1/"
   xmlns:cc="http://creativecommons.org/ns#"
   xmlns:rdf="http://www.w3.org/1999/02/22-rdf-syntax-ns#"
   xmlns:svg="http://www.w3.org/2000/svg"
   xmlns="http://www.w3.org/2000/svg"
   xmlns:sodipodi="http://sodipodi.sourceforge.net/DTD/sodipodi-0.dtd"
   xmlns:inkscape="http://www.inkscape.org/namespaces/inkscape"
   width="100"
   height="100"
   viewBox="0 0 100 100"
   id="svg2"
   version="1.1"
   inkscape:version="0.92.3 (2405546, 2018-03-11)"
   sodipodi:docname="Shell - Variation 4.svg"
   inkscape:export-filename="E:\Pictures\Game Development\Projects\RotorBall\Assets\Customisation Features\Ball Explosions\Shells\Shell - Variation 4 (100x100).png"
   inkscape:export-xdpi="96"
   inkscape:export-ydpi="96">
  <defs
     id="defs4">
    <linearGradient
       x1="0"
       y1="0"
       x2="1"
       y2="0"
       gradientUnits="userSpaceOnUse"
       gradientTransform="matrix(0,63.997116,63.997116,0,540.0625,256.06393)"
       spreadMethod="pad"
       id="linearGradient992">
      <stop
         style="stop-opacity:1;stop-color:#ffd872"
         offset="0"
         id="stop984" />
      <stop
         style="stop-opacity:1;stop-color:#ffd872"
         offset="0.0554448"
         id="stop986" />
      <stop
         style="stop-opacity:1;stop-color:#ffd872"
         offset="0.24236174"
         id="stop988" />
      <stop
         style="stop-opacity:1;stop-color:#ff3c00"
         offset="1"
         id="stop990" />
    </linearGradient>
    <clipPath
       id="clipPath574"
       clipPathUnits="userSpaceOnUse">
      <path
         inkscape:connector-curvature="0"
         id="path572"
         d="m 508.064,288.062 c 0,-17.672 14.326,-31.998 31.998,-31.998 v 0 c 17.672,0 32,14.326 32,31.998 v 0 c 0,17.672 -14.328,31.999 -32,31.999 v 0 c -17.672,0 -31.998,-14.327 -31.998,-31.999" />
    </clipPath>
    <linearGradient
       id="linearGradient588"
       spreadMethod="pad"
       gradientTransform="matrix(0,63.997116,63.997116,0,540.0625,256.06393)"
       gradientUnits="userSpaceOnUse"
       y2="0"
       x2="1"
       y1="0"
       x1="0">
      <stop
         id="stop580"
         offset="0"
         style="stop-opacity:1;stop-color:#ffd872" />
      <stop
         id="stop582"
         offset="0.0554448"
         style="stop-opacity:1;stop-color:#ffd872" />
      <stop
         id="stop584"
         offset="0.24236174"
         style="stop-opacity:1;stop-color:#ffd872" />
      <stop
         id="stop586"
         offset="1"
         style="stop-opacity:1;stop-color:#ec4f65" />
    </linearGradient>
    <clipPath
       id="clipPath574-8"
       clipPathUnits="userSpaceOnUse">
      <path
         inkscape:connector-curvature="0"
         id="path572-9"
         d="m 508.064,288.062 c 0,-17.672 14.326,-31.998 31.998,-31.998 v 0 c 17.672,0 32,14.326 32,31.998 v 0 c 0,17.672 -14.328,31.999 -32,31.999 v 0 c -17.672,0 -31.998,-14.327 -31.998,-31.999" />
    </clipPath>
    <clipPath
       id="clipPath598"
       clipPathUnits="userSpaceOnUse">
      <path
         inkscape:connector-curvature="0"
         id="path596"
         d="M 0,1280 H 720 V 0 H 0 Z" />
    </clipPath>
    <clipPath
       id="clipPath610"
       clipPathUnits="userSpaceOnUse">
      <path
         inkscape:connector-curvature="0"
         id="path608"
         d="m 147.996,319.918 h 63.96 v -63.959 h -63.96 z" />
    </clipPath>
    <clipPath
       id="clipPath626"
       clipPathUnits="userSpaceOnUse">
      <path
         inkscape:connector-curvature="0"
         id="path624"
         d="m 220.065,319.962 h 63.997 v -63.997 h -63.997 z" />
    </clipPath>
  </defs>
  <sodipodi:namedview
     id="base"
     pagecolor="#ffffff"
     bordercolor="#666666"
     borderopacity="1.0"
     inkscape:pageopacity="0.0"
     inkscape:pageshadow="2"
     inkscape:zoom="4"
     inkscape:cx="59.233337"
     inkscape:cy="59.52169"
     inkscape:document-units="px"
     inkscape:current-layer="g895"
     showgrid="true"
     units="px"
     inkscape:window-width="1920"
     inkscape:window-height="1017"
     inkscape:window-x="-8"
     inkscape:window-y="-8"
     inkscape:window-maximized="1">
    <inkscape:grid
       type="xygrid"
       id="grid4136" />
  </sodipodi:namedview>
  <metadata
     id="metadata7">
    <rdf:RDF>
      <cc:Work
         rdf:about="">
        <dc:format>image/svg+xml</dc:format>
        <dc:type
           rdf:resource="http://purl.org/dc/dcmitype/StillImage" />
        <dc:title />
      </cc:Work>
    </rdf:RDF>
  </metadata>
  <g
     inkscape:label="Layer 1"
     inkscape:groupmode="layer"
     id="layer1"
     transform="translate(0,-952.36216)">
    <g
       id="g4267"
       transform="matrix(23.364705,0,0,23.364705,-22363.53,-2484.6983)">
      <g
         id="g935"
         transform="matrix(1,0,0,1.0000157,-0.26854,0.1325579)">
        <g
           id="g895"
           transform="matrix(0.81252203,0,0,0.81252203,179.8961,28.259108)">
          <path
             style="fill:#ffffff;fill-opacity:1;fill-rule:evenodd;stroke:none;stroke-width:0.99999988px;stroke-linecap:butt;stroke-linejoin:miter;stroke-opacity:1"
             d="M 89.849609 79.144531 A 44.999997 44.99999 0 0 0 87.865234 75.685547 A 44.999997 44.99999 0 0 0 85.25 72.027344 A 44.999997 44.99999 0 0 0 82.28125 68.648438 A 44.999997 44.99999 0 0 0 78.990234 65.582031 A 44.999997 44.99999 0 0 0 75.408203 62.859375 A 44.999997 44.99999 0 0 0 71.574219 60.509766 A 44.999997 44.99999 0 0 0 67.523438 58.552734 A 44.999997 44.99999 0 0 0 63.298828 57.009766 A 44.999997 44.99999 0 0 0 58.939453 55.896484 A 44.999997 44.99999 0 0 0 54.492188 55.224609 A 44.999997 44.99999 0 0 0 50 55 A 44.999997 44.99999 0 0 0 46.816406 55.113281 A 44.999997 44.99999 0 0 0 42.351562 55.654297 A 44.999997 44.99999 0 0 0 37.962891 56.640625 A 44.999997 44.99999 0 0 0 33.693359 58.058594 A 44.999997 44.99999 0 0 0 29.587891 59.896484 A 44.999997 44.99999 0 0 0 25.685547 62.134766 A 44.999997 44.99999 0 0 0 22.027344 64.75 A 44.999997 44.99999 0 0 0 18.648438 67.71875 A 44.999997 44.99999 0 0 0 15.582031 71.009766 A 44.999997 44.99999 0 0 0 12.859375 74.591797 A 44.999997 44.99999 0 0 0 10.507812 78.425781 A 44.999997 44.99999 0 0 0 10.144531 79.177734 C 10.130977 79.404537 10 79.791936 10 80 C 9.9620313 106.66468 89.962791 106.66905 90 80 C 90 79.783556 89.864265 79.381244 89.849609 79.144531 z "
             id="path870"
             transform="matrix(0.052675,0,0,0.05267417,956.92489,146.10168)" />
          <path
             style="fill:#999999;fill-opacity:1;fill-rule:evenodd;stroke:none;stroke-width:0.99999988px;stroke-linecap:butt;stroke-linejoin:miter;stroke-opacity:1"
             d="M 86.046875 65.433594 A 49.999995 49.999989 0 0 0 84.835938 64.132812 A 49.999995 49.999989 0 0 0 81.080078 60.833984 A 49.999995 49.999989 0 0 0 77.015625 57.925781 A 49.999995 49.999989 0 0 0 72.679688 55.439453 A 49.999995 49.999989 0 0 0 68.117188 53.398438 A 49.999995 49.999989 0 0 0 63.375 51.822266 A 49.999995 49.999989 0 0 0 58.498047 50.726562 A 49.999995 49.999989 0 0 0 53.537109 50.125 A 49.999995 49.999989 0 0 0 50 50 A 49.999995 49.999989 0 0 0 45.007812 50.25 A 49.999995 49.999989 0 0 0 40.066406 50.996094 A 49.999995 49.999989 0 0 0 35.224609 52.232422 A 49.999995 49.999989 0 0 0 30.529297 53.947266 A 49.999995 49.999989 0 0 0 26.029297 56.121094 A 49.999995 49.999989 0 0 0 21.767578 58.732422 A 49.999995 49.999989 0 0 0 17.789062 61.757812 A 49.999995 49.999989 0 0 0 14.132812 65.164062 A 49.999995 49.999989 0 0 0 13.988281 65.328125 C 11.706229 71.233052 10.333098 76.022492 10.144531 79.177734 A 44.999997 44.99999 0 0 1 10.507812 78.425781 A 44.999997 44.99999 0 0 1 12.859375 74.591797 A 44.999997 44.99999 0 0 1 15.582031 71.009766 A 44.999997 44.99999 0 0 1 18.648438 67.71875 A 44.999997 44.99999 0 0 1 22.027344 64.75 A 44.999997 44.99999 0 0 1 25.685547 62.134766 A 44.999997 44.99999 0 0 1 29.587891 59.896484 A 44.999997 44.99999 0 0 1 33.693359 58.058594 A 44.999997 44.99999 0 0 1 37.962891 56.640625 A 44.999997 44.99999 0 0 1 42.351562 55.654297 A 44.999997 44.99999 0 0 1 46.816406 55.113281 A 44.999997 44.99999 0 0 1 50 55 A 44.999997 44.99999 0 0 1 54.492188 55.224609 A 44.999997 44.99999 0 0 1 58.939453 55.896484 A 44.999997 44.99999 0 0 1 63.298828 57.009766 A 44.999997 44.99999 0 0 1 67.523438 58.552734 A 44.999997 44.99999 0 0 1 71.574219 60.509766 A 44.999997 44.99999 0 0 1 75.408203 62.859375 A 44.999997 44.99999 0 0 1 78.990234 65.582031 A 44.999997 44.99999 0 0 1 82.28125 68.648438 A 44.999997 44.99999 0 0 1 85.25 72.027344 A 44.999997 44.99999 0 0 1 87.865234 75.685547 A 44.999997 44.99999 0 0 1 89.849609 79.144531 C 89.655503 76.009455 88.295793 71.269039 86.046875 65.433594 z "
             id="path868"
             transform="matrix(0.052675,0,0,0.05267417,956.92489,146.10168)" />
          <path
             style="fill:#ffffff;fill-opacity:1;fill-rule:evenodd;stroke:none;stroke-width:0.99999988px;stroke-linecap:butt;stroke-linejoin:miter;stroke-opacity:1"
             d="M 50 35 A 44.999996 44.999987 0 0 0 46.816406 35.113281 A 44.999996 44.999987 0 0 0 42.351562 35.654297 A 44.999996 44.999987 0 0 0 37.962891 36.640625 A 44.999996 44.999987 0 0 0 33.693359 38.058594 A 44.999996 44.999987 0 0 0 29.587891 39.896484 A 44.999996 44.999987 0 0 0 25.685547 42.134766 A 44.999996 44.999987 0 0 0 23.693359 43.558594 C 19.927547 51.263693 16.486268 58.864457 13.988281 65.328125 A 49.999995 49.999989 0 0 1 14.132812 65.164062 A 49.999995 49.999989 0 0 1 17.789062 61.757812 A 49.999995 49.999989 0 0 1 21.767578 58.732422 A 49.999995 49.999989 0 0 1 26.029297 56.121094 A 49.999995 49.999989 0 0 1 30.529297 53.947266 A 49.999995 49.999989 0 0 1 35.224609 52.232422 A 49.999995 49.999989 0 0 1 40.066406 50.996094 A 49.999995 49.999989 0 0 1 45.007812 50.25 A 49.999995 49.999989 0 0 1 50 50 A 49.999995 49.999989 0 0 1 53.537109 50.125 A 49.999995 49.999989 0 0 1 58.498047 50.726562 A 49.999995 49.999989 0 0 1 63.375 51.822266 A 49.999995 49.999989 0 0 1 68.117188 53.398438 A 49.999995 49.999989 0 0 1 72.679688 55.439453 A 49.999995 49.999989 0 0 1 77.015625 57.925781 A 49.999995 49.999989 0 0 1 81.080078 60.833984 A 49.999995 49.999989 0 0 1 84.835938 64.132812 A 49.999995 49.999989 0 0 1 86.046875 65.433594 C 83.54334 58.937472 80.09048 51.29394 76.296875 43.533203 A 44.999996 44.999987 0 0 0 75.408203 42.859375 A 44.999996 44.999987 0 0 0 71.574219 40.509766 A 44.999996 44.999987 0 0 0 67.523438 38.552734 A 44.999996 44.999987 0 0 0 63.298828 37.009766 A 44.999996 44.999987 0 0 0 58.939453 35.896484 A 44.999996 44.999987 0 0 0 54.492188 35.224609 A 44.999996 44.999987 0 0 0 50 35 z "
             id="path865"
             transform="matrix(0.052675,0,0,0.05267417,956.92489,146.10168)" />
          <path
             style="fill:#999999;fill-opacity:1;fill-rule:evenodd;stroke:none;stroke-width:0.99999988px;stroke-linecap:butt;stroke-linejoin:miter;stroke-opacity:1"
             d="M 72.228516 35.238281 A 49.999995 49.999989 0 0 0 68.117188 33.398438 A 49.999995 49.999989 0 0 0 63.375 31.822266 A 49.999995 49.999989 0 0 0 58.498047 30.728516 A 49.999995 49.999989 0 0 0 53.537109 30.125 A 49.999995 49.999989 0 0 0 50 30 A 49.999995 49.999989 0 0 0 45.007812 30.25 A 49.999995 49.999989 0 0 0 40.066406 30.996094 A 49.999995 49.999989 0 0 0 35.224609 32.232422 A 49.999995 49.999989 0 0 0 30.529297 33.947266 A 49.999995 49.999989 0 0 0 27.748047 35.291016 C 26.328959 38.040339 25.04955 40.783739 23.693359 43.558594 A 44.999997 44.99999 0 0 1 25.685547 42.134766 A 44.999997 44.99999 0 0 1 29.587891 39.896484 A 44.999997 44.99999 0 0 1 33.693359 38.058594 A 44.999997 44.99999 0 0 1 37.962891 36.640625 A 44.999997 44.99999 0 0 1 42.351562 35.654297 A 44.999997 44.99999 0 0 1 46.816406 35.113281 A 44.999997 44.99999 0 0 1 50 35 A 44.999997 44.99999 0 0 1 54.492188 35.224609 A 44.999997 44.99999 0 0 1 58.939453 35.896484 A 44.999997 44.99999 0 0 1 63.298828 37.009766 A 44.999997 44.99999 0 0 1 67.523438 38.552734 A 44.999997 44.99999 0 0 1 71.574219 40.509766 A 44.999997 44.99999 0 0 1 75.408203 42.859375 A 44.999997 44.99999 0 0 1 76.296875 43.533203 C 74.935896 40.748992 73.652558 37.99635 72.228516 35.238281 z "
             id="path863"
             transform="matrix(0.052675,0,0,0.05267417,956.92489,146.10168)" />
          <path
             style="fill:#ffffff;fill-opacity:1;fill-rule:evenodd;stroke:none;stroke-width:0.99999988px;stroke-linecap:butt;stroke-linejoin:miter;stroke-opacity:1"
             d="M 50 15 A 44.999996 44.999987 0 0 0 46.816406 15.113281 A 44.999996 44.999987 0 0 0 42.351562 15.654297 A 44.999996 44.999987 0 0 0 37.962891 16.640625 A 44.999996 44.999987 0 0 0 37.933594 16.650391 C 34.692063 22.167114 31.189961 28.622693 27.748047 35.291016 A 49.999995 49.999989 0 0 1 30.529297 33.947266 A 49.999995 49.999989 0 0 1 35.224609 32.232422 A 49.999995 49.999989 0 0 1 40.066406 30.996094 A 49.999995 49.999989 0 0 1 45.007812 30.25 A 49.999995 49.999989 0 0 1 50 30 A 49.999995 49.999989 0 0 1 53.537109 30.125 A 49.999995 49.999989 0 0 1 58.498047 30.728516 A 49.999995 49.999989 0 0 1 63.375 31.822266 A 49.999995 49.999989 0 0 1 68.117188 33.398438 A 49.999995 49.999989 0 0 1 72.228516 35.238281 C 68.805937 28.60947 65.322453 22.194134 62.097656 16.703125 A 44.999996 44.999987 0 0 0 58.939453 15.896484 A 44.999996 44.999987 0 0 0 54.492188 15.224609 A 44.999996 44.999987 0 0 0 50 15 z "
             id="path858"
             transform="matrix(0.052675,0,0,0.05267417,956.92489,146.10168)" />
          <path
             style="fill:#999999;fill-opacity:1;fill-rule:evenodd;stroke:none;stroke-width:0.99999988px;stroke-linecap:butt;stroke-linejoin:miter;stroke-opacity:1"
             d="M 58.568359 10.742188 A 49.999995 49.999989 0 0 0 58.498047 10.726562 A 49.999995 49.999989 0 0 0 53.537109 10.125 A 49.999995 49.999989 0 0 0 50 10 A 49.999995 49.999989 0 0 0 45.007812 10.25 A 49.999995 49.999989 0 0 0 41.402344 10.794922 C 40.330196 12.506585 39.106265 14.654636 37.933594 16.650391 A 44.999997 44.99999 0 0 1 37.962891 16.640625 A 44.999997 44.99999 0 0 1 42.351562 15.654297 A 44.999997 44.99999 0 0 1 46.816406 15.113281 A 44.999997 44.99999 0 0 1 50 15 A 44.999997 44.99999 0 0 1 54.492188 15.224609 A 44.999997 44.99999 0 0 1 58.939453 15.896484 A 44.999997 44.99999 0 0 1 62.097656 16.703125 C 60.90329 14.669423 59.658579 12.481561 58.568359 10.742188 z "
             id="path856"
             transform="matrix(0.052675,0,0,0.05267417,956.92489,146.10168)" />
          <path
             style="fill:#ffffff;fill-opacity:1;fill-rule:evenodd;stroke:none;stroke-width:0.99999988px;stroke-linecap:butt;stroke-linejoin:miter;stroke-opacity:1"
             d="M 50 0 C 48.726963 0 45.491951 4.2659429 41.402344 10.794922 A 49.999995 49.999989 0 0 1 45.007812 10.25 A 49.999995 49.999989 0 0 1 50 10 A 49.999995 49.999989 0 0 1 53.537109 10.125 A 49.999995 49.999989 0 0 1 58.498047 10.726562 A 49.999995 49.999989 0 0 1 58.568359 10.742188 C 54.492308 4.2391175 51.270032 0 50 0 z "
             id="path839"
             transform="matrix(0.052675,0,0,0.05267417,956.92489,146.10168)" />
        </g>
      </g>
    </g>
  </g>
</svg>
