<?xml version="1.0" encoding="UTF-8" standalone="no"?>
<!-- Created with Inkscape (http://www.inkscape.org/) -->

<svg
   xmlns:dc="http://purl.org/dc/elements/1.1/"
   xmlns:cc="http://creativecommons.org/ns#"
   xmlns:rdf="http://www.w3.org/1999/02/22-rdf-syntax-ns#"
   xmlns:svg="http://www.w3.org/2000/svg"
   xmlns="http://www.w3.org/2000/svg"
   xmlns:sodipodi="http://sodipodi.sourceforge.net/DTD/sodipodi-0.dtd"
   xmlns:inkscape="http://www.inkscape.org/namespaces/inkscape"
   width="100"
   height="100"
   viewBox="0 0 100 100"
   id="svg2"
   version="1.1"
   inkscape:version="0.92.3 (2405546, 2018-03-11)"
   sodipodi:docname="Reactions - Like.svg"
   inkscape:export-filename="E:\Pictures\Game Development\Projects\RotorBall\Assets\Customisation Features\Ball Explosions\Reactions\Reactions - Like (100x100).png"
   inkscape:export-xdpi="96"
   inkscape:export-ydpi="96">
  <defs
     id="defs4">
    <clipPath
       id="clipPath574"
       clipPathUnits="userSpaceOnUse">
      <path
         inkscape:connector-curvature="0"
         id="path572"
         d="m 508.064,288.062 c 0,-17.672 14.326,-31.998 31.998,-31.998 v 0 c 17.672,0 32,14.326 32,31.998 v 0 c 0,17.672 -14.328,31.999 -32,31.999 v 0 c -17.672,0 -31.998,-14.327 -31.998,-31.999" />
    </clipPath>
    <linearGradient
       id="linearGradient588"
       spreadMethod="pad"
       gradientTransform="matrix(0,63.997116,63.997116,0,540.0625,256.06393)"
       gradientUnits="userSpaceOnUse"
       y2="0"
       x2="1"
       y1="0"
       x1="0">
      <stop
         id="stop580"
         offset="0"
         style="stop-opacity:1;stop-color:#ffd872" />
      <stop
         id="stop582"
         offset="0.0554448"
         style="stop-opacity:1;stop-color:#ffd872" />
      <stop
         id="stop584"
         offset="0.24236174"
         style="stop-opacity:1;stop-color:#ffd872" />
      <stop
         id="stop586"
         offset="1"
         style="stop-opacity:1;stop-color:#ec4f65" />
    </linearGradient>
    <clipPath
       id="clipPath574-8"
       clipPathUnits="userSpaceOnUse">
      <path
         inkscape:connector-curvature="0"
         id="path572-9"
         d="m 508.064,288.062 c 0,-17.672 14.326,-31.998 31.998,-31.998 v 0 c 17.672,0 32,14.326 32,31.998 v 0 c 0,17.672 -14.328,31.999 -32,31.999 v 0 c -17.672,0 -31.998,-14.327 -31.998,-31.999" />
    </clipPath>
    <clipPath
       id="clipPath598"
       clipPathUnits="userSpaceOnUse">
      <path
         inkscape:connector-curvature="0"
         id="path596"
         d="M 0,1280 H 720 V 0 H 0 Z" />
    </clipPath>
    <clipPath
       id="clipPath610"
       clipPathUnits="userSpaceOnUse">
      <path
         inkscape:connector-curvature="0"
         id="path608"
         d="m 147.996,319.918 h 63.96 v -63.959 h -63.96 z" />
    </clipPath>
    <clipPath
       id="clipPath626"
       clipPathUnits="userSpaceOnUse">
      <path
         inkscape:connector-curvature="0"
         id="path624"
         d="m 220.065,319.962 h 63.997 v -63.997 h -63.997 z" />
    </clipPath>
  </defs>
  <sodipodi:namedview
     id="base"
     pagecolor="#ffffff"
     bordercolor="#666666"
     borderopacity="1.0"
     inkscape:pageopacity="0.0"
     inkscape:pageshadow="2"
     inkscape:zoom="2.8"
     inkscape:cx="-17.051758"
     inkscape:cy="31.749078"
     inkscape:document-units="px"
     inkscape:current-layer="g4258"
     showgrid="true"
     units="px"
     inkscape:window-width="1920"
     inkscape:window-height="1017"
     inkscape:window-x="-8"
     inkscape:window-y="-8"
     inkscape:window-maximized="1">
    <inkscape:grid
       type="xygrid"
       id="grid4136" />
  </sodipodi:namedview>
  <metadata
     id="metadata7">
    <rdf:RDF>
      <cc:Work
         rdf:about="">
        <dc:format>image/svg+xml</dc:format>
        <dc:type
           rdf:resource="http://purl.org/dc/dcmitype/StillImage" />
        <dc:title></dc:title>
      </cc:Work>
    </rdf:RDF>
  </metadata>
  <g
     inkscape:label="Layer 1"
     inkscape:groupmode="layer"
     id="layer1"
     transform="translate(0,-952.36216)">
    <g
       id="g4267"
       transform="matrix(23.364705,0,0,23.364705,-22363.53,-2484.6983)">
      <g
         id="g4306"
         transform="translate(191.99481)">
        <g
           id="g842"
           transform="matrix(0.05076829,0,0,0.05076829,726.27679,143.73211)">
          <g
             transform="matrix(1.3451838,0,0,-1.3451838,565.90897,495.88053)"
             id="g604">
            <circle
               transform="scale(1,-1)"
               r="31.335421"
               cy="-287.9126"
               cx="179.93521"
               id="path4256"
               style="opacity:1;fill:#006ad4;fill-opacity:1;stroke:none;stroke-width:0.95450747;stroke-linecap:round;stroke-linejoin:round;stroke-miterlimit:4;stroke-dasharray:none;stroke-opacity:1" />
            <g
               id="g606" />
          </g>
          <g
             id="g4258"
             transform="matrix(0.96212099,0,0,0.96212099,31.057749,4.4071623)">
            <g
               id="g846"
               transform="matrix(1.0324328,0,0,1.0324328,-26.188964,-27.150166)">
              <path
                 style="opacity:1;fill:#ffffff;fill-opacity:1;stroke:none;stroke-width:2.5;stroke-miterlimit:4;stroke-dasharray:none;stroke-opacity:1"
                 d="m 787.28075,152.03777 c -0.17937,-0.0359 -0.42626,-0.1588 -0.54864,-0.27312 -0.49385,-0.46134 -0.46548,0.259 -0.46548,-11.82076 v -11.14591 l 0.19455,-0.28502 c 0.10701,-0.15676 0.33074,-0.35782 0.4972,-0.44679 0.28537,-0.15253 0.53776,-0.16043 4.42524,-0.13849 4.03748,0.0228 4.12764,0.027 4.36664,0.20525 0.13423,0.10009 0.32187,0.3141 0.41698,0.47558 0.17052,0.28949 0.17294,0.44911 0.17294,11.40477 0,10.95786 -0.002,11.11513 -0.17294,11.39816 -0.0951,0.15785 -0.30912,0.37186 -0.47557,0.47558 -0.29841,0.18594 -0.35703,0.18877 -4.19371,0.20229 -2.14009,0.008 -4.03783,-0.0157 -4.21721,-0.0515 z"
                 id="path4189"
                 inkscape:connector-curvature="0" />
              <path
                 style="opacity:1;fill:#ffffff;fill-opacity:1;stroke:none;stroke-width:2.5;stroke-miterlimit:4;stroke-dasharray:none;stroke-opacity:1"
                 d="m 800.14185,151.98979 c -0.39242,-0.17192 -0.81998,-0.64155 -1.07074,-1.17608 l -0.22335,-0.47611 -0.0268,-7.30656 c -0.0281,-7.6524 0.0225,-9.34934 0.32867,-11.03373 0.47341,-2.60433 1.20458,-4.38374 2.64331,-6.43286 1.74707,-2.48828 2.96637,-4.02135 4.43257,-5.5732 1.0872,-1.15071 1.8928,-2.20758 2.34289,-3.07362 l 0.33703,-0.64852 0.0313,-1.9023 c 0.0309,-1.87858 0.0344,-1.90902 0.27854,-2.44137 0.51127,-1.11481 1.43972,-1.66587 2.80672,-1.66587 1.08306,0 1.48013,0.15625 2.17918,0.85755 0.67591,0.67808 1.01819,1.25352 1.36971,2.30272 0.52545,1.56836 0.74824,4.01568 0.49644,5.45323 -0.28836,1.64628 -1.21262,4.22303 -2.55325,7.11828 l -0.68318,1.4754 h 6.16896 c 4.24133,0 6.31214,0.0304 6.62717,0.0973 1.99212,0.42302 3.3641,2.43272 3.02214,4.42689 -0.17498,1.02035 -0.71644,1.93294 -1.50715,2.54018 l -0.24026,0.18451 0.47946,0.45345 c 0.30112,0.28479 0.58346,0.6647 0.75906,1.02141 0.26146,0.5311 0.27961,0.62702 0.27961,1.4777 0,0.80605 -0.0264,0.96609 -0.23174,1.40417 -0.33158,0.70744 -0.93461,1.3147 -1.64843,1.65998 l -0.5962,0.28839 0.29816,0.18428 c 0.42969,0.26555 0.99678,0.91018 1.21271,1.3785 0.14699,0.3188 0.18651,0.56886 0.18685,1.18251 4.3e-4,0.67743 -0.0308,0.84193 -0.24118,1.27022 -0.39325,0.80081 -1.09628,1.3565 -2.12141,1.67681 -0.0761,0.0238 -0.0255,0.1111 0.14973,0.25853 0.14553,0.12245 0.40636,0.50948 0.57962,0.86005 0.30533,0.6178 0.31381,0.66084 0.27546,1.39876 -0.0645,1.24074 -0.62661,2.10517 -1.69441,2.60569 l -0.49257,0.23089 -11.84615,0.0189 c -9.69593,0.0155 -11.89377,-0.002 -12.10849,-0.0961 z"
                 id="path4191"
                 inkscape:connector-curvature="0" />
            </g>
          </g>
        </g>
      </g>
    </g>
  </g>
</svg>
