<?xml version="1.0" encoding="UTF-8" standalone="no"?>
<!-- Created with Inkscape (http://www.inkscape.org/) -->

<svg
   xmlns:dc="http://purl.org/dc/elements/1.1/"
   xmlns:cc="http://creativecommons.org/ns#"
   xmlns:rdf="http://www.w3.org/1999/02/22-rdf-syntax-ns#"
   xmlns:svg="http://www.w3.org/2000/svg"
   xmlns="http://www.w3.org/2000/svg"
   xmlns:sodipodi="http://sodipodi.sourceforge.net/DTD/sodipodi-0.dtd"
   xmlns:inkscape="http://www.inkscape.org/namespaces/inkscape"
   width="100"
   height="100"
   viewBox="0 0 26.458333 26.458334"
   version="1.1"
   id="svg8"
   inkscape:version="0.92.3 (2405546, 2018-03-11)"
   sodipodi:docname="Ball - 8 Ball.svg">
  <defs
     id="defs2" />
  <sodipodi:namedview
     id="base"
     pagecolor="#ffffff"
     bordercolor="#666666"
     borderopacity="1.0"
     inkscape:pageopacity="0.0"
     inkscape:pageshadow="2"
     inkscape:zoom="5.6"
     inkscape:cx="-30.079967"
     inkscape:cy="39.291174"
     inkscape:document-units="px"
     inkscape:current-layer="flowRoot820"
     showgrid="true"
     units="px"
     inkscape:window-width="1920"
     inkscape:window-height="1017"
     inkscape:window-x="-8"
     inkscape:window-y="-8"
     inkscape:window-maximized="1">
    <inkscape:grid
       type="xygrid"
       id="grid815" />
  </sodipodi:namedview>
  <metadata
     id="metadata5">
    <rdf:RDF>
      <cc:Work
         rdf:about="">
        <dc:format>image/svg+xml</dc:format>
        <dc:type
           rdf:resource="http://purl.org/dc/dcmitype/StillImage" />
        <dc:title />
      </cc:Work>
    </rdf:RDF>
  </metadata>
  <g
     inkscape:label="Layer 1"
     inkscape:groupmode="layer"
     id="layer1"
     transform="translate(0,-270.54165)">
    <circle
       style="opacity:1;fill:#000000;fill-opacity:1;stroke:none;stroke-width:5.29166651;stroke-linecap:round;stroke-linejoin:round;stroke-miterlimit:4;stroke-dasharray:none;stroke-dashoffset:0;stroke-opacity:1;paint-order:normal"
       id="path4520"
       cx="13.229166"
       cy="283.77081"
       r="13.229166" />
    <g
       id="g4531"
       transform="translate(0,1.3229103)" />
    <circle
       r="7.9375"
       cy="283.77081"
       cx="13.229167"
       id="circle818"
       style="opacity:1;fill:#ffffff;fill-opacity:1;stroke:none;stroke-width:3.17500019;stroke-linecap:round;stroke-linejoin:round;stroke-miterlimit:4;stroke-dasharray:none;stroke-dashoffset:0;stroke-opacity:1;paint-order:normal" />
    <g
       aria-label="8"
       transform="matrix(0.3695298,0,0,0.3695298,-4.4639201,266.12069)"
       style="font-style:normal;font-variant:normal;font-weight:normal;font-stretch:normal;font-size:40px;line-height:125%;font-family:Montserrat;-inkscape-font-specification:Montserrat;letter-spacing:0px;word-spacing:0px;fill:#000000;fill-opacity:1;stroke:none;stroke-width:1px;stroke-linecap:butt;stroke-linejoin:miter;stroke-opacity:1"
       id="flowRoot820">
      <path
         d="m 54.04,47.083744 c 2.56,-1.2 3.96,-3.28 3.96,-6.04 0,-4.68 -4.08,-7.6 -10.16,-7.6 -6.04,0 -10.08,2.92 -10.08,7.6 0,2.76 1.36,4.84 3.92,6.04 -3.16,1.2 -4.92,3.56 -4.92,6.76 0,5.08 4.28,8.24 11.08,8.24 6.84,0 11.16,-3.16 11.16,-8.24 0,-3.2 -1.76,-5.52 -4.96,-6.76 z m -6.2,-10.4 c 3.76,0 6.24,1.72 6.24,4.52 0,2.76 -2.36,4.48 -6.24,4.48 -3.84,0 -6.12,-1.72 -6.12,-4.48 0,-2.8 2.36,-4.52 6.12,-4.52 z m 0,22.16 c -4.44,0 -7.08,-1.96 -7.08,-5.12 0,-3.08 2.64,-5 7.08,-5 4.44,0 7.16,1.92 7.16,5 0,3.16 -2.72,5.12 -7.16,5.12 z"
         style="font-style:normal;font-variant:normal;font-weight:500;font-stretch:normal;font-family:Montserrat;-inkscape-font-specification:'Montserrat Medium'"
         id="path820"
         inkscape:connector-curvature="0" />
    </g>
  </g>
</svg>
