<?xml version="1.0" encoding="UTF-8" standalone="no"?>
<!-- Created with Inkscape (http://www.inkscape.org/) -->

<svg
   xmlns:dc="http://purl.org/dc/elements/1.1/"
   xmlns:cc="http://creativecommons.org/ns#"
   xmlns:rdf="http://www.w3.org/1999/02/22-rdf-syntax-ns#"
   xmlns:svg="http://www.w3.org/2000/svg"
   xmlns="http://www.w3.org/2000/svg"
   xmlns:sodipodi="http://sodipodi.sourceforge.net/DTD/sodipodi-0.dtd"
   xmlns:inkscape="http://www.inkscape.org/namespaces/inkscape"
   width="100"
   height="100"
   viewBox="0 0 100 100"
   id="svg2"
   version="1.1"
   inkscape:version="0.92.3 (2405546, 2018-03-11)"
   inkscape:export-filename="E:\Documents\Game Development\Game Development Projects\Gravismash\Gravismash\Assets\Images\PNG Files\UI Icons\Restart Icon\Restart Icon (500x500).png"
   inkscape:export-xdpi="480"
   inkscape:export-ydpi="480"
   sodipodi:docname="Refresh Icon.svg">
  <defs
     id="defs4" />
  <sodipodi:namedview
     id="base"
     pagecolor="#ffffff"
     bordercolor="#666666"
     borderopacity="1.0"
     inkscape:pageopacity="0.0"
     inkscape:pageshadow="2"
     inkscape:zoom="4"
     inkscape:cx="108.25145"
     inkscape:cy="21.894596"
     inkscape:document-units="px"
     inkscape:current-layer="layer1"
     showgrid="true"
     units="px"
     inkscape:window-width="1920"
     inkscape:window-height="1017"
     inkscape:window-x="-8"
     inkscape:window-y="-8"
     inkscape:window-maximized="1"
     showguides="false">
    <inkscape:grid
       type="xygrid"
       id="grid4136" />
  </sodipodi:namedview>
  <metadata
     id="metadata7">
    <rdf:RDF>
      <cc:Work
         rdf:about="">
        <dc:format>image/svg+xml</dc:format>
        <dc:type
           rdf:resource="http://purl.org/dc/dcmitype/StillImage" />
        <dc:title />
      </cc:Work>
    </rdf:RDF>
  </metadata>
  <g
     inkscape:label="Layer 1"
     inkscape:groupmode="layer"
     id="layer1"
     transform="translate(0,-952.36216)">
    <g
       id="g830"
       transform="matrix(0.74073913,0,0,0.74073913,9.2594262,258.02154)"
       style="fill:#ffffff">
      <path
         inkscape:connector-curvature="0"
         id="path814"
         d="m 61.886498,937.36245 a 5.3801978,5.3801978 0 0 0 -3.726207,1.57623 l -15.215872,15.21797 a 5.3801978,5.3801978 0 0 0 0,7.60794 l 15.215872,15.21797 a 5.3801978,5.3801978 0 0 0 7.610038,0 5.3801978,5.3801978 0 0 0 0,-7.61004 l -6.824025,-6.82402 a 43.041583,43.041583 0 0 1 27.687003,12.47113 43.041583,43.041583 0 0 1 0,60.87007 43.041583,43.041583 0 0 1 -16.542007,10.2455 v 11.227 a 53.801978,53.801978 0 0 0 24.149942,-13.8645 53.801978,53.801978 0 0 0 0,-76.08811 53.801978,53.801978 0 0 0 -33.771249,-15.56264 l 5.300336,-5.30034 a 5.3801978,5.3801978 0 0 0 0,-7.60793 5.3801978,5.3801978 0 0 0 -3.883831,-1.57623 z"
         style="opacity:0.98999999;fill:#ffffff;fill-opacity:1;stroke:none;stroke-width:21.52079201;stroke-linecap:round;stroke-linejoin:round;stroke-miterlimit:4;stroke-dasharray:none;stroke-dashoffset:0;stroke-opacity:1" />
      <path
         inkscape:connector-curvature="0"
         style="opacity:0.98999999;fill:#ffffff;fill-opacity:1;stroke:none;stroke-width:21.52079201;stroke-linecap:round;stroke-linejoin:round;stroke-miterlimit:4;stroke-dasharray:none;stroke-dashoffset:0;stroke-opacity:1"
         d="m 48.113045,1072.3616 a 5.3801979,5.3801979 0 0 0 3.726208,-1.5763 l 15.215873,-15.218 a 5.3801979,5.3801979 0 0 0 0,-7.608 l -15.215873,-15.2179 a 5.3801979,5.3801979 0 0 0 -7.610038,0 5.3801979,5.3801979 0 0 0 0,7.61 l 6.824025,6.8241 a 43.041583,43.041583 0 0 1 -27.687004,-12.4711 43.041583,43.041583 0 0 1 0,-60.86978 43.041583,43.041583 0 0 1 16.542007,-10.2455 v -11.22696 a 53.801979,53.801979 0 0 0 -24.149942,13.86452 53.801979,53.801979 0 0 0 0,76.08762 53.801979,53.801979 0 0 0 33.771249,15.5627 l -5.300335,5.3003 a 5.3801979,5.3801979 0 0 0 0,7.608 5.3801979,5.3801979 0 0 0 3.88383,1.5763 z"
         id="path821" />
    </g>
  </g>
</svg>
