<?xml version="1.0" encoding="UTF-8" standalone="no"?>
<!-- Created with Inkscape (http://www.inkscape.org/) -->

<svg
   xmlns:dc="http://purl.org/dc/elements/1.1/"
   xmlns:cc="http://creativecommons.org/ns#"
   xmlns:rdf="http://www.w3.org/1999/02/22-rdf-syntax-ns#"
   xmlns:svg="http://www.w3.org/2000/svg"
   xmlns="http://www.w3.org/2000/svg"
   xmlns:sodipodi="http://sodipodi.sourceforge.net/DTD/sodipodi-0.dtd"
   xmlns:inkscape="http://www.inkscape.org/namespaces/inkscape"
   width="100"
   height="100"
   viewBox="0 0 26.458333 26.458334"
   version="1.1"
   id="svg8"
   inkscape:version="0.92.3 (2405546, 2018-03-11)"
   sodipodi:docname="Popcorn - Variation 2.svg"
   inkscape:export-filename="E:\Pictures\Game Development\Projects\RotorBall\Assets\Customisation Features\Ball Explosions\Popcorn\Popcorn - Variation 2 (100x100).png"
   inkscape:export-xdpi="96"
   inkscape:export-ydpi="96">
  <defs
     id="defs2" />
  <sodipodi:namedview
     id="base"
     pagecolor="#ffffff"
     bordercolor="#666666"
     borderopacity="1.0"
     inkscape:pageopacity="0.0"
     inkscape:pageshadow="2"
     inkscape:zoom="2.0000001"
     inkscape:cx="53.302413"
     inkscape:cy="48.437607"
     inkscape:document-units="px"
     inkscape:current-layer="g950"
     showgrid="true"
     units="px"
     inkscape:window-width="958"
     inkscape:window-height="1008"
     inkscape:window-x="-7"
     inkscape:window-y="0"
     inkscape:window-maximized="0">
    <inkscape:grid
       type="xygrid"
       id="grid815" />
  </sodipodi:namedview>
  <metadata
     id="metadata5">
    <rdf:RDF>
      <cc:Work
         rdf:about="">
        <dc:format>image/svg+xml</dc:format>
        <dc:type
           rdf:resource="http://purl.org/dc/dcmitype/StillImage" />
        <dc:title />
      </cc:Work>
    </rdf:RDF>
  </metadata>
  <g
     inkscape:label="Chip"
     inkscape:groupmode="layer"
     id="layer1"
     transform="translate(0,-270.54165)"
     style="display:inline">
    <g
       id="g934">
      <g
         id="g950"
         transform="translate(2.6984567e-7,2.3152739)">
        <path
           style="opacity:1;fill:#ffffff;fill-opacity:1;stroke:none;stroke-width:15;stroke-linecap:round;stroke-linejoin:round;stroke-miterlimit:4;stroke-dasharray:none;stroke-dashoffset:0;stroke-opacity:1;paint-order:normal"
           d="M 27.5 0 A 27.499999 24.999999 0 0 0 0 25 A 27.499999 24.999999 0 0 0 15.136719 47.298828 A 35.000001 35.000001 0 0 0 15 50 A 35.000001 35.000001 0 0 0 16.232422 59.173828 A 27.499999 24.999999 0 0 0 10 75 A 27.499999 24.999999 0 0 0 37.5 100 A 27.499999 24.999999 0 0 0 62.800781 84.791016 A 41 40.250002 0 0 0 100 44.75 A 41 40.250002 0 0 0 59 4.5 A 41 40.250002 0 0 0 46.074219 6.6054688 A 27.499999 24.999999 0 0 0 27.5 0 z "
           transform="matrix(0.26458333,0,0,0.26458333,-2.6984567e-7,268.22638)"
           id="path817" />
      </g>
    </g>
  </g>
</svg>
