<?xml version="1.0" encoding="UTF-8" standalone="no"?>
<!-- Created with Inkscape (http://www.inkscape.org/) -->

<svg
   xmlns:dc="http://purl.org/dc/elements/1.1/"
   xmlns:cc="http://creativecommons.org/ns#"
   xmlns:rdf="http://www.w3.org/1999/02/22-rdf-syntax-ns#"
   xmlns:svg="http://www.w3.org/2000/svg"
   xmlns="http://www.w3.org/2000/svg"
   xmlns:sodipodi="http://sodipodi.sourceforge.net/DTD/sodipodi-0.dtd"
   xmlns:inkscape="http://www.inkscape.org/namespaces/inkscape"
   width="100"
   height="100"
   viewBox="0 0 100 100"
   id="svg2"
   version="1.1"
   inkscape:version="0.92.3 (2405546, 2018-03-11)"
   inkscape:export-filename="E:\Pictures\Game Development\Projects\RotorBall\UI\UI Icons\Notification Icon\Notification Icon (500x500).png"
   inkscape:export-xdpi="480"
   inkscape:export-ydpi="480"
   sodipodi:docname="Notification Icon.svg">
  <defs
     id="defs4" />
  <sodipodi:namedview
     id="base"
     pagecolor="#ffffff"
     bordercolor="#666666"
     borderopacity="1.0"
     inkscape:pageopacity="0.0"
     inkscape:pageshadow="2"
     inkscape:zoom="5.6568542"
     inkscape:cx="47.049415"
     inkscape:cy="47.360361"
     inkscape:document-units="px"
     inkscape:current-layer="g835"
     showgrid="true"
     units="px"
     inkscape:window-width="1920"
     inkscape:window-height="1017"
     inkscape:window-x="-8"
     inkscape:window-y="-8"
     inkscape:window-maximized="1"
     showguides="false">
    <inkscape:grid
       type="xygrid"
       id="grid4136" />
  </sodipodi:namedview>
  <metadata
     id="metadata7">
    <rdf:RDF>
      <cc:Work
         rdf:about="">
        <dc:format>image/svg+xml</dc:format>
        <dc:type
           rdf:resource="http://purl.org/dc/dcmitype/StillImage" />
        <dc:title />
      </cc:Work>
    </rdf:RDF>
  </metadata>
  <g
     inkscape:label="Layer 1"
     inkscape:groupmode="layer"
     id="layer1"
     transform="translate(0,-952.36216)">
    <g
       id="g835"
       transform="translate(0,-3.1308594e-5)"
       style="fill:#ff0000">
      <path
         style="opacity:1;fill:#ffffff;fill-opacity:1;stroke:none;stroke-width:15;stroke-linecap:round;stroke-linejoin:round;stroke-miterlimit:4;stroke-dasharray:none;stroke-dashoffset:0;stroke-opacity:1;paint-order:normal"
         d="M 50 0 A 5 5 0 0 0 45 5 A 5 5 0 0 0 45.029297 5.4921875 C 33.576975 7.7852165 25 17.853203 25 30 L 25 50 L 25 65 L 20 65 C 17.230012 65 15 67.230012 15 70 L 15 80 C 15 82.769988 17.230012 85 20 85 L 30 85 L 70 85 L 80 85 C 82.769988 85 85 82.769988 85 80 L 85 70 C 85 67.230012 82.769988 65 80 65 L 75 65 L 75 50 L 75 30 C 75 17.854531 66.42505 7.786666 54.974609 5.4921875 A 5 5 0 0 0 55 5 A 5 5 0 0 0 50 0 z M 40 90 A 10 10 0 0 0 50 100 A 10 10 0 0 0 60 90 L 40 90 z "
         transform="translate(0,952.36219)"
         id="rect817" />
    </g>
  </g>
</svg>
