<?xml version="1.0" encoding="UTF-8" standalone="no"?>
<!-- Created with Inkscape (http://www.inkscape.org/) -->

<svg
   xmlns:dc="http://purl.org/dc/elements/1.1/"
   xmlns:cc="http://creativecommons.org/ns#"
   xmlns:rdf="http://www.w3.org/1999/02/22-rdf-syntax-ns#"
   xmlns:svg="http://www.w3.org/2000/svg"
   xmlns="http://www.w3.org/2000/svg"
   xmlns:sodipodi="http://sodipodi.sourceforge.net/DTD/sodipodi-0.dtd"
   xmlns:inkscape="http://www.inkscape.org/namespaces/inkscape"
   width="100"
   height="100"
   viewBox="0 0 100 100"
   id="svg2"
   version="1.1"
   inkscape:version="0.92.3 (2405546, 2018-03-11)"
   inkscape:export-filename="E:\Pictures\Game Development\Projects\RotorBall\UI\UI Icons\Brick Icon\Brick Icon (500x500).png"
   inkscape:export-xdpi="480"
   inkscape:export-ydpi="480"
   sodipodi:docname="Brick Icon.svg">
  <defs
     id="defs4">
    <inkscape:perspective
       sodipodi:type="inkscape:persp3d"
       inkscape:vp_x="0 : 50 : 1"
       inkscape:vp_y="0 : 1000 : 0"
       inkscape:vp_z="100 : 50 : 1"
       inkscape:persp3d-origin="50 : 33.333333 : 1"
       id="perspective814" />
  </defs>
  <sodipodi:namedview
     id="base"
     pagecolor="#ffffff"
     bordercolor="#666666"
     borderopacity="1.0"
     inkscape:pageopacity="0.0"
     inkscape:pageshadow="2"
     inkscape:zoom="2.8284271"
     inkscape:cx="43.03237"
     inkscape:cy="76.271311"
     inkscape:document-units="px"
     inkscape:current-layer="layer1"
     showgrid="true"
     units="px"
     inkscape:window-width="1920"
     inkscape:window-height="1017"
     inkscape:window-x="-8"
     inkscape:window-y="-8"
     inkscape:window-maximized="1"
     showguides="false">
    <inkscape:grid
       type="xygrid"
       id="grid4136" />
  </sodipodi:namedview>
  <metadata
     id="metadata7">
    <rdf:RDF>
      <cc:Work
         rdf:about="">
        <dc:format>image/svg+xml</dc:format>
        <dc:type
           rdf:resource="http://purl.org/dc/dcmitype/StillImage" />
        <dc:title></dc:title>
      </cc:Work>
    </rdf:RDF>
  </metadata>
  <g
     inkscape:label="Layer 1"
     inkscape:groupmode="layer"
     id="layer1"
     transform="translate(0,-952.36216)">
    <path
       style="opacity:0.98999999;fill:#ffffff;fill-opacity:1;stroke:none;stroke-width:16.91022301;stroke-linecap:round;stroke-linejoin:round;stroke-miterlimit:4;stroke-dasharray:none;stroke-dashoffset:0;stroke-opacity:1;paint-order:normal"
       d="m 69.843828,954.80033 c -0.04024,0.003 -0.0788,0.0159 -0.1189,0.0198 -0.126899,0.0124 -0.251827,0.0386 -0.378167,0.0627 -0.142057,0.0272 -0.282642,0.0542 -0.421105,0.0958 -0.204253,0.0615 -0.406662,0.13197 -0.604408,0.22624 -0.02809,0.0134 -0.05476,0.0289 -0.08257,0.0429 -0.0733,0.037 -0.147629,0.0707 -0.219635,0.1123 l -65.9003277,38.048 c -0.062385,0.036 -0.120164,0.0769 -0.1800017,0.1156 -0.041631,0.0268 -0.083251,0.0527 -0.1238538,0.0809 -0.041587,0.0289 -0.081947,0.059 -0.1222026,0.0892 -0.00943,0.007 -0.018695,0.0143 -0.028074,0.0215 -0.1134955,0.0865 -0.2161659,0.18164 -0.3187188,0.27744 -0.077468,0.0725 -0.1494771,0.14815 -0.2212855,0.22624 -0.057338,0.0626 -0.1144687,0.12496 -0.1684419,0.19156 -0.049204,0.0605 -0.099784,0.11891 -0.1453222,0.18165 -0.00579,0.008 -0.010771,0.0167 -0.016514,0.0248 -0.059523,0.0832 -0.1116667,0.17003 -0.1651393,0.25761 -0.01858,0.0304 -0.039869,0.0581 -0.057798,0.0892 -0.019043,0.033 -0.033132,0.0675 -0.051193,0.10074 -0.045588,0.0843 -0.090831,0.16731 -0.1304598,0.25431 -0.0049,0.0107 -0.011715,0.0207 -0.016514,0.0314 -0.032726,0.0734 -0.058923,0.14901 -0.087524,0.22458 -0.032359,0.0844 -0.060884,0.16892 -0.087524,0.25431 -0.026488,0.0861 -0.051727,0.17163 -0.072661,0.25927 -0.034388,0.14454 -0.066664,0.28931 -0.085873,0.43927 -0.0022,0.0166 -0.00461,0.033 -0.0066,0.0496 -0.00603,0.0519 -0.010719,0.10441 -0.014862,0.15688 -0.00254,0.032 -0.00314,0.0637 -0.00495,0.0958 -0.0046,0.0812 -0.01321,0.16203 -0.01321,0.2444 v 33.82047 c 0,0.082 0.00863,0.1618 0.01321,0.2427 0.00178,0.032 0.00247,0.063 0.00495,0.094 0.017442,0.2222 0.057142,0.4364 0.1073401,0.6474 0.030649,0.1283 0.074731,0.2516 0.1172488,0.3765 0.045349,0.1334 0.08908,0.2661 0.1469735,0.393 0.053191,0.1168 0.1177552,0.2267 0.181653,0.3386 0.072727,0.1271 0.1444175,0.2532 0.2295427,0.3715 0.069888,0.097 0.1509229,0.1858 0.2295436,0.2775 0.1009025,0.1176 0.2022725,0.2327 0.3154146,0.3385 0.1471485,0.1375 0.2994327,0.2702 0.4689949,0.3881 0.040602,0.028 0.082223,0.054 0.1238538,0.081 0.059838,0.039 0.1176165,0.08 0.1800017,0.1156 l 25.6279046,14.7964 c 0.06877,0.04 0.139771,0.072 0.209727,0.1074 0.03266,0.017 0.06438,0.034 0.09743,0.05 0.03759,0.018 0.07442,0.038 0.112295,0.054 0.04854,0.021 0.09914,0.037 0.148625,0.056 0.108225,0.043 0.217072,0.077 0.326975,0.1106 0.08068,0.024 0.160756,0.048 0.242754,0.068 0.139705,0.033 0.279629,0.065 0.424407,0.084 0.01656,0 0.03298,0 0.04954,0.01 0.05747,0.01 0.115227,0.012 0.173395,0.017 0.03309,0 0.06591,0 0.09908,0 0.07769,0 0.15407,0.012 0.232846,0.012 0.07878,0 0.155158,-0.01 0.232847,-0.012 0.03318,-0 0.06599,-0 0.09908,-0 0.05817,-0 0.115927,-0.01 0.173396,-0.017 0.0171,-0 0.0341,-0 0.0512,-0.01 0.144219,-0.019 0.283572,-0.051 0.422755,-0.084 0.07862,-0.019 0.155435,-0.041 0.232847,-0.064 0.116379,-0.035 0.232292,-0.07 0.346791,-0.1156 0.04637,-0.018 0.09318,-0.035 0.138716,-0.054 0.03786,-0.017 0.07472,-0.037 0.112295,-0.054 0.03304,-0.016 0.06477,-0.033 0.09743,-0.05 0.06996,-0.035 0.140953,-0.068 0.209726,-0.1073 l 65.901984,-38.048 c 0.06392,-0.037 0.122058,-0.079 0.183298,-0.1189 0.03957,-0.026 0.07863,-0.051 0.117247,-0.078 0.170109,-0.1182 0.324736,-0.2503 0.472303,-0.3881 0.114626,-0.1073 0.216662,-0.2241 0.318715,-0.3435 0.07703,-0.09 0.15598,-0.177 0.224593,-0.2725 0.08516,-0.1184 0.156784,-0.2443 0.22954,-0.3715 0.06426,-0.1125 0.129887,-0.2228 0.183307,-0.3402 0.05513,-0.1212 0.09661,-0.2479 0.140363,-0.3749 0.04625,-0.134 0.09297,-0.2667 0.125508,-0.4046 0.04845,-0.2061 0.08849,-0.4157 0.105688,-0.6325 0.0025,-0.035 0.0034,-0.07 0.0051,-0.1057 0.0042,-0.079 0.01158,-0.1565 0.01158,-0.2361 v -33.82045 c 0,-0.0799 -0.0076,-0.15739 -0.01158,-0.23615 -0.0017,-0.0348 -0.0025,-0.0693 -0.0051,-0.10404 -0.0042,-0.056 -0.01,-0.11148 -0.01649,-0.16679 -8.46e-4,-0.008 -0.0025,-0.0154 -0.0034,-0.0232 -0.01877,-0.15102 -0.05166,-0.29701 -0.08587,-0.44257 -0.02232,-0.0945 -0.05048,-0.18631 -0.07922,-0.27908 -0.0268,-0.0852 -0.05335,-0.17009 -0.08587,-0.25431 -0.02765,-0.0726 -0.05276,-0.14568 -0.08421,-0.21633 -0.0059,-0.0134 -0.0137,-0.0264 -0.01978,-0.0397 -0.03585,-0.0783 -0.07652,-0.15339 -0.117247,-0.22954 -0.02097,-0.039 -0.03881,-0.0786 -0.06113,-0.11725 -0.02029,-0.0351 -0.04498,-0.0664 -0.06603,-0.10074 -0.05149,-0.0837 -0.101546,-0.1664 -0.158534,-0.24605 -0.0059,-0.008 -0.01074,-0.0167 -0.01649,-0.0248 -0.046,-0.0634 -0.0972,-0.12225 -0.146975,-0.18331 -0.05175,-0.0638 -0.105334,-0.12483 -0.160183,-0.18495 -0.07373,-0.0805 -0.148167,-0.15834 -0.22789,-0.23285 -0.103026,-0.0961 -0.207971,-0.19069 -0.322022,-0.27743 -0.0085,-0.006 -0.01505,-0.0137 -0.02308,-0.0198 -0.03805,-0.0285 -0.07635,-0.0568 -0.115598,-0.0842 -0.04583,-0.032 -0.09325,-0.0606 -0.140364,-0.0908 -0.05707,-0.0366 -0.110728,-0.0763 -0.170091,-0.11065 L 72.253299,955.36005 c -0.07074,-0.0408 -0.142696,-0.0743 -0.214685,-0.11064 -0.02936,-0.0149 -0.05786,-0.0304 -0.08752,-0.0446 -0.198422,-0.0945 -0.401098,-0.16475 -0.606059,-0.22624 -0.136262,-0.0408 -0.274754,-0.0671 -0.4145,-0.0941 -0.127974,-0.0246 -0.25457,-0.0518 -0.383121,-0.0644 -0.136696,-0.0135 -0.273223,-0.0115 -0.411197,-0.0116 -0.0973,6e-5 -0.195558,-0.015 -0.292295,-0.008 z m 0.292296,9.1008 17.184355,9.9199 -57.456778,33.17307 -17.182702,-9.91986 z m 21.408605,17.24546 v 24.05741 l -57.453472,33.1698 v -24.0574 z m -83.0896335,23.24991 17.1810505,9.9199 v 24.0574 l -17.1810505,-9.9199 z"
       id="rect844"
       inkscape:connector-curvature="0" />
  </g>
</svg>
