<?xml version="1.0" encoding="UTF-8" standalone="no"?>
<!-- Created with Inkscape (http://www.inkscape.org/) -->

<svg
   xmlns:dc="http://purl.org/dc/elements/1.1/"
   xmlns:cc="http://creativecommons.org/ns#"
   xmlns:rdf="http://www.w3.org/1999/02/22-rdf-syntax-ns#"
   xmlns:svg="http://www.w3.org/2000/svg"
   xmlns="http://www.w3.org/2000/svg"
   xmlns:sodipodi="http://sodipodi.sourceforge.net/DTD/sodipodi-0.dtd"
   xmlns:inkscape="http://www.inkscape.org/namespaces/inkscape"
   width="100"
   height="100"
   viewBox="0 0 26.458333 26.458334"
   version="1.1"
   id="svg8"
   inkscape:version="0.92.3 (2405546, 2018-03-11)"
   sodipodi:docname="Bottlecap.svg">
  <defs
     id="defs2" />
  <sodipodi:namedview
     id="base"
     pagecolor="#ffffff"
     bordercolor="#666666"
     borderopacity="1.0"
     inkscape:pageopacity="0.0"
     inkscape:pageshadow="2"
     inkscape:zoom="5.6"
     inkscape:cx="48.56043"
     inkscape:cy="46.97687"
     inkscape:document-units="px"
     inkscape:current-layer="layer1"
     showgrid="true"
     units="px"
     inkscape:window-width="1920"
     inkscape:window-height="1017"
     inkscape:window-x="-8"
     inkscape:window-y="-8"
     inkscape:window-maximized="1"
     showguides="true">
    <inkscape:grid
       type="xygrid"
       id="grid815" />
  </sodipodi:namedview>
  <metadata
     id="metadata5">
    <rdf:RDF>
      <cc:Work
         rdf:about="">
        <dc:format>image/svg+xml</dc:format>
        <dc:type
           rdf:resource="http://purl.org/dc/dcmitype/StillImage" />
        <dc:title />
      </cc:Work>
    </rdf:RDF>
  </metadata>
  <g
     inkscape:label="Layer 1"
     inkscape:groupmode="layer"
     id="layer1"
     transform="translate(0,-270.54165)">
    <g
       id="g827"
       transform="translate(7.191162e-7,3.7617188e-6)">
      <path
         d="m 13.229166,296.99998 c -1.278276,0 -0.808642,-1.28183 -2.067499,-1.5038 -1.2588562,-0.22197 -1.2559555,1.14318 -2.4571419,0.70598 -1.2011872,-0.43719 -0.3214645,-1.48109 -1.4284846,-2.12023 -1.1070194,-0.63914 -1.5712021,0.64467 -2.5504182,-0.17699 -0.9792167,-0.82166 0.2044872,-1.50172 -0.6171733,-2.48094 -0.8216599,-0.97921 -1.6969388,0.0684 -2.3360766,-1.0386 -0.6391383,-1.10702 0.7057746,-1.34122 0.2685782,-2.54241 -0.4371962,-1.20119 -1.61799956,-0.5161 -1.83996978,-1.77496 -0.22197036,-1.25885 1.12193528,-1.01894 1.12193518,-2.29722 0,-1.27827 -1.34390564,-1.03836 -1.1219353,-2.29722 0.22197047,-1.25885 1.4027739,-0.57377 1.8399703,-1.77495 0.437196,-1.20119 -0.907717,-1.43539 -0.268579,-2.54241 0.6391384,-1.10702 1.5144174,-0.0594 2.3360777,-1.03861 0.8216599,-0.97921 -0.3620441,-1.65928 0.617172,-2.48094 0.9792168,-0.82166 1.4433998,0.46216 2.5504198,-0.17698 1.1070194,-0.63914 0.2272965,-1.68304 1.4284829,-2.12024 1.2011872,-0.43719 1.1982868,0.92796 2.4571436,0.70599 1.258856,-0.22197 0.789222,-1.5038 2.067498,-1.5038 1.278276,0 0.808642,1.28183 2.067499,1.5038 1.258856,0.22197 1.255956,-1.14318 2.457142,-0.70599 1.201187,0.4372 0.321464,1.4811 1.428485,2.12024 1.107019,0.63914 1.571202,-0.64468 2.550418,0.17698 0.979216,0.82166 -0.204487,1.50173 0.617173,2.48094 0.82166,0.97922 1.696939,-0.0684 2.336077,1.03861 0.639138,1.10702 -0.705775,1.34122 -0.268579,2.54241 0.437197,1.20118 1.618,0.5161 1.83997,1.77495 0.221971,1.25886 -1.121935,1.01895 -1.121935,2.29722 0,1.27828 1.343906,1.03837 1.121935,2.29722 -0.22197,1.25886 -1.402774,0.57377 -1.83997,1.77496 -0.437196,1.20119 0.907717,1.43539 0.268579,2.54241 -0.639138,1.10702 -1.514417,0.0594 -2.336078,1.0386 -0.82166,0.97922 0.362044,1.65928 -0.617172,2.48094 -0.979216,0.82166 -1.443399,-0.46215 -2.550419,0.17699 -1.10702,0.63914 -0.227297,1.68304 -1.428483,2.12023 -1.201188,0.4372 -1.198287,-0.92795 -2.457144,-0.70598 -1.258856,0.22197 -0.789222,1.5038 -2.067498,1.5038 z"
         inkscape:randomized="0"
         inkscape:rounded="0.5"
         inkscape:flatsided="false"
         sodipodi:arg2="1.7453293"
         sodipodi:arg1="1.5707963"
         sodipodi:r2="11.90625"
         sodipodi:r1="13.229166"
         sodipodi:cy="283.77081"
         sodipodi:cx="13.229166"
         sodipodi:sides="18"
         id="path819"
         style="opacity:1;fill:#808080;fill-opacity:1;stroke:none;stroke-width:3.96875;stroke-linecap:round;stroke-linejoin:round;stroke-miterlimit:4;stroke-dasharray:none;stroke-dashoffset:0;stroke-opacity:1;paint-order:normal"
         sodipodi:type="star" />
      <circle
         r="10.583333"
         cy="283.77081"
         cx="13.229167"
         id="path823"
         style="opacity:1;fill:#999999;fill-opacity:1;stroke:none;stroke-width:3.17500019;stroke-linecap:round;stroke-linejoin:round;stroke-miterlimit:4;stroke-dasharray:none;stroke-dashoffset:0;stroke-opacity:1;paint-order:normal" />
    </g>
  </g>
</svg>
