<?xml version="1.0" encoding="UTF-8" standalone="no"?>
<!-- Created with Inkscape (http://www.inkscape.org/) -->

<svg
   xmlns:dc="http://purl.org/dc/elements/1.1/"
   xmlns:cc="http://creativecommons.org/ns#"
   xmlns:rdf="http://www.w3.org/1999/02/22-rdf-syntax-ns#"
   xmlns:svg="http://www.w3.org/2000/svg"
   xmlns="http://www.w3.org/2000/svg"
   xmlns:sodipodi="http://sodipodi.sourceforge.net/DTD/sodipodi-0.dtd"
   xmlns:inkscape="http://www.inkscape.org/namespaces/inkscape"
   width="100"
   height="100"
   viewBox="0 0 26.458333 26.458334"
   version="1.1"
   id="svg8"
   inkscape:version="0.92.3 (2405546, 2018-03-11)"
   sodipodi:docname="Button.svg"
   inkscape:export-filename="E:\Pictures\Game Development\Projects\RotorBall\Assets\Customisation Features\Ball Styles\Clock.png"
   inkscape:export-xdpi="96"
   inkscape:export-ydpi="96">
  <defs
     id="defs2">
    <inkscape:perspective
       sodipodi:type="inkscape:persp3d"
       inkscape:vp_x="0 : 13.229167 : 1"
       inkscape:vp_y="0 : 1000 : 0"
       inkscape:vp_z="26.458333 : 13.229167 : 1"
       inkscape:persp3d-origin="13.229166 : 8.8194447 : 1"
       id="perspective859" />
  </defs>
  <sodipodi:namedview
     id="base"
     pagecolor="#ffffff"
     bordercolor="#666666"
     borderopacity="1.0"
     inkscape:pageopacity="0.0"
     inkscape:pageshadow="2"
     inkscape:zoom="5.6568543"
     inkscape:cx="60.92572"
     inkscape:cy="69.362378"
     inkscape:document-units="px"
     inkscape:current-layer="g885"
     showgrid="true"
     units="px"
     inkscape:window-width="1920"
     inkscape:window-height="1017"
     inkscape:window-x="-8"
     inkscape:window-y="-8"
     inkscape:window-maximized="1"
     showguides="false">
    <inkscape:grid
       type="xygrid"
       id="grid815" />
  </sodipodi:namedview>
  <metadata
     id="metadata5">
    <rdf:RDF>
      <cc:Work
         rdf:about="">
        <dc:format>image/svg+xml</dc:format>
        <dc:type
           rdf:resource="http://purl.org/dc/dcmitype/StillImage" />
        <dc:title></dc:title>
      </cc:Work>
    </rdf:RDF>
  </metadata>
  <g
     inkscape:label="Layer 1"
     inkscape:groupmode="layer"
     id="layer1"
     transform="translate(0,-270.54165)">
    <g
       id="g4531"
       transform="translate(0,1.3229103)" />
    <g
       id="g885">
      <path
         id="path831"
         transform="matrix(0.26458333,0,0,0.26458333,0,270.54165)"
         d="M 50 0 A 49.999997 49.999997 0 0 0 0 50 A 49.999997 49.999997 0 0 0 50 100 A 49.999997 49.999997 0 0 0 100 50 A 49.999997 49.999997 0 0 0 50 0 z M 50 20 A 30 30 0 0 1 80 50 A 30 30 0 0 1 50 80 A 30 30 0 0 1 20 50 A 30 30 0 0 1 50 20 z "
         style="opacity:1;fill:#ffffff;fill-opacity:1;stroke:none;stroke-width:20;stroke-linecap:round;stroke-linejoin:round;stroke-miterlimit:4;stroke-dasharray:none;stroke-dashoffset:0;stroke-opacity:1;paint-order:normal" />
      <path
         id="circle833"
         transform="matrix(0.26458333,0,0,0.26458333,0,270.54165)"
         d="M 50 15 A 35.000001 35.000001 0 0 0 15 50 A 35.000001 35.000001 0 0 0 50 85 A 35.000001 35.000001 0 0 0 85 50 A 35.000001 35.000001 0 0 0 50 15 z M 50 20 A 30 30 0 0 1 80 50 A 30 30 0 0 1 50 80 A 30 30 0 0 1 20 50 A 30 30 0 0 1 50 20 z "
         style="opacity:1;fill:#cccccc;fill-opacity:1;stroke:none;stroke-width:14.00000095;stroke-linecap:round;stroke-linejoin:round;stroke-miterlimit:4;stroke-dasharray:none;stroke-dashoffset:0;stroke-opacity:1;paint-order:normal" />
      <path
         transform="matrix(0.26458333,0,0,0.26458333,0,270.54165)"
         id="circle847"
         d="M 50 20 A 30 30 0 0 0 20 50 A 30 30 0 0 0 50 80 A 30 30 0 0 0 80 50 A 30 30 0 0 0 50 20 z M 42.5 37.5 A 4.9999997 4.9999997 0 0 1 47.5 42.5 A 4.9999997 4.9999997 0 0 1 42.5 47.5 A 4.9999997 4.9999997 0 0 1 37.5 42.5 A 4.9999997 4.9999997 0 0 1 42.5 37.5 z M 57.5 37.5 A 4.9999997 4.9999997 0 0 1 62.5 42.5 A 4.9999997 4.9999997 0 0 1 57.5 47.5 A 4.9999997 4.9999997 0 0 1 52.5 42.5 A 4.9999997 4.9999997 0 0 1 57.5 37.5 z M 42.5 52.5 A 4.9999997 4.9999997 0 0 1 47.5 57.5 A 4.9999997 4.9999997 0 0 1 42.5 62.5 A 4.9999997 4.9999997 0 0 1 37.5 57.5 A 4.9999997 4.9999997 0 0 1 42.5 52.5 z M 57.5 52.5 A 4.9999997 4.9999997 0 0 1 62.5 57.5 A 4.9999997 4.9999997 0 0 1 57.5 62.5 A 4.9999997 4.9999997 0 0 1 52.5 57.5 A 4.9999997 4.9999997 0 0 1 57.5 52.5 z "
         style="opacity:1;fill:#ffffff;fill-opacity:1;stroke:none;stroke-width:12.00000095;stroke-linecap:round;stroke-linejoin:round;stroke-miterlimit:4;stroke-dasharray:none;stroke-dashoffset:0;stroke-opacity:1;paint-order:normal" />
    </g>
  </g>
</svg>
