<?xml version="1.0" encoding="UTF-8" standalone="no"?>
<!-- Created with Inkscape (http://www.inkscape.org/) -->

<svg
   xmlns:dc="http://purl.org/dc/elements/1.1/"
   xmlns:cc="http://creativecommons.org/ns#"
   xmlns:rdf="http://www.w3.org/1999/02/22-rdf-syntax-ns#"
   xmlns:svg="http://www.w3.org/2000/svg"
   xmlns="http://www.w3.org/2000/svg"
   xmlns:sodipodi="http://sodipodi.sourceforge.net/DTD/sodipodi-0.dtd"
   xmlns:inkscape="http://www.inkscape.org/namespaces/inkscape"
   width="100"
   height="100"
   viewBox="0 0 26.458333 26.458334"
   version="1.1"
   id="svg8"
   inkscape:version="0.92.3 (2405546, 2018-03-11)"
   sodipodi:docname="Other - CD.svg">
  <defs
     id="defs2" />
  <sodipodi:namedview
     id="base"
     pagecolor="#ffffff"
     bordercolor="#666666"
     borderopacity="1.0"
     inkscape:pageopacity="0.0"
     inkscape:pageshadow="2"
     inkscape:zoom="5.6"
     inkscape:cx="20.809844"
     inkscape:cy="53.779014"
     inkscape:document-units="px"
     inkscape:current-layer="layer1"
     showgrid="true"
     units="px"
     inkscape:window-width="1920"
     inkscape:window-height="1017"
     inkscape:window-x="-8"
     inkscape:window-y="-8"
     inkscape:window-maximized="1"
     showguides="false">
    <inkscape:grid
       type="xygrid"
       id="grid815" />
  </sodipodi:namedview>
  <metadata
     id="metadata5">
    <rdf:RDF>
      <cc:Work
         rdf:about="">
        <dc:format>image/svg+xml</dc:format>
        <dc:type
           rdf:resource="http://purl.org/dc/dcmitype/StillImage" />
        <dc:title />
      </cc:Work>
    </rdf:RDF>
  </metadata>
  <g
     inkscape:label="Layer 1"
     inkscape:groupmode="layer"
     id="layer1"
     transform="translate(0,-270.54165)">
    <g
       id="g4531"
       transform="translate(0,1.3229103)" />
    <path
       style="opacity:1;fill:#e6e6e6;fill-opacity:1;stroke:none;stroke-width:47.14044952;stroke-linecap:round;stroke-linejoin:round;stroke-miterlimit:4;stroke-dasharray:none;stroke-dashoffset:0;stroke-opacity:1;paint-order:normal"
       d="M 50 0 A 50.000001 50.000001 0 0 0 0 50 A 50.000001 50.000001 0 0 0 50 100 A 50.000001 50.000001 0 0 0 100 50 A 50.000001 50.000001 0 0 0 50 0 z M 50 45 A 4.9999998 4.9999998 0 0 1 55 50 A 4.9999998 4.9999998 0 0 1 50 55 A 4.9999998 4.9999998 0 0 1 45 50 A 4.9999998 4.9999998 0 0 1 50 45 z "
       transform="matrix(0.26458333,0,0,0.26458333,0,270.54165)"
       id="path831" />
    <path
       style="opacity:1;fill:#f9f9f9;fill-opacity:1;stroke:none;stroke-width:20;stroke-linecap:round;stroke-linejoin:round;stroke-miterlimit:4;stroke-dasharray:none;stroke-dashoffset:0;stroke-opacity:1;paint-order:normal"
       d="M 50 35 A 15 15 0 0 0 35 50 A 15 15 0 0 0 50 65 A 15 15 0 0 0 65 50 A 15 15 0 0 0 50 35 z M 50 37.5 A 12.5 12.5 0 0 1 62.5 50 A 12.5 12.5 0 0 1 50 62.5 A 12.5 12.5 0 0 1 37.5 50 A 12.5 12.5 0 0 1 50 37.5 z "
       transform="matrix(0.26458333,0,0,0.26458333,0,270.54165)"
       id="path833" />
    <ellipse
       r="3.96875"
       cy="283.77081"
       cx="13.229166"
       id="ellipse835"
       style="opacity:1;fill:#f9f9f9;fill-opacity:1;stroke:none;stroke-width:5.29166651;stroke-linecap:round;stroke-linejoin:round;stroke-miterlimit:4;stroke-dasharray:none;stroke-dashoffset:0;stroke-opacity:1;paint-order:normal" />
    <path
       style="opacity:1;fill:#f9f9f9;fill-opacity:1;stroke:none;stroke-width:13.33333302;stroke-linecap:round;stroke-linejoin:round;stroke-miterlimit:4;stroke-dasharray:none;stroke-dashoffset:0;stroke-opacity:1;paint-order:normal"
       d="M 50 40 A 9.9999996 9.9999996 0 0 0 40 50 A 9.9999996 9.9999996 0 0 0 50 60 A 9.9999996 9.9999996 0 0 0 60 50 A 9.9999996 9.9999996 0 0 0 50 40 z M 50 45 A 4.9999998 4.9999998 0 0 1 55 50 A 4.9999998 4.9999998 0 0 1 50 55 A 4.9999998 4.9999998 0 0 1 45 50 A 4.9999998 4.9999998 0 0 1 50 45 z "
       transform="matrix(0.26458333,0,0,0.26458333,0,270.54165)"
       id="path840" />
    <path
       style="opacity:1;fill:#ffffff;fill-opacity:1;stroke:none;stroke-width:18.00000191;stroke-linecap:round;stroke-linejoin:round;stroke-miterlimit:4;stroke-dasharray:none;stroke-dashoffset:0;stroke-opacity:1;paint-order:normal"
       d="M 9.2167969 30.982422 A 44.999999 44.999999 0 0 0 5 50 L 30 50 A 19.999999 19.999999 0 0 1 31.894531 41.556641 L 9.2167969 30.982422 z M 70 50 A 19.999999 19.999999 0 0 1 68.105469 58.443359 L 90.783203 69.017578 A 44.999999 44.999999 0 0 0 95 50 L 70 50 z "
       transform="matrix(0.26458333,0,0,0.26458333,0,270.54165)"
       id="path849" />
  </g>
</svg>
