<?xml version="1.0" encoding="UTF-8" standalone="no"?>
<!-- Created with Inkscape (http://www.inkscape.org/) -->

<svg
   xmlns:dc="http://purl.org/dc/elements/1.1/"
   xmlns:cc="http://creativecommons.org/ns#"
   xmlns:rdf="http://www.w3.org/1999/02/22-rdf-syntax-ns#"
   xmlns:svg="http://www.w3.org/2000/svg"
   xmlns="http://www.w3.org/2000/svg"
   xmlns:sodipodi="http://sodipodi.sourceforge.net/DTD/sodipodi-0.dtd"
   xmlns:inkscape="http://www.inkscape.org/namespaces/inkscape"
   width="100"
   height="100"
   viewBox="0 0 26.458333 26.458334"
   version="1.1"
   id="svg8"
   inkscape:version="0.92.3 (2405546, 2018-03-11)"
   sodipodi:docname="Film Reel.svg"
   inkscape:export-filename="E:\Pictures\Game Development\Projects\RotorBall\Assets\Customisation Features\Ball Styles\Clock.png"
   inkscape:export-xdpi="96"
   inkscape:export-ydpi="96">
  <defs
     id="defs2" />
  <sodipodi:namedview
     id="base"
     pagecolor="#ffffff"
     bordercolor="#666666"
     borderopacity="1.0"
     inkscape:pageopacity="0.0"
     inkscape:pageshadow="2"
     inkscape:zoom="2"
     inkscape:cx="106.58108"
     inkscape:cy="70.363096"
     inkscape:document-units="px"
     inkscape:current-layer="layer1"
     showgrid="true"
     units="px"
     inkscape:window-width="1920"
     inkscape:window-height="1017"
     inkscape:window-x="-8"
     inkscape:window-y="-8"
     inkscape:window-maximized="1"
     showguides="false">
    <inkscape:grid
       type="xygrid"
       id="grid815" />
  </sodipodi:namedview>
  <metadata
     id="metadata5">
    <rdf:RDF>
      <cc:Work
         rdf:about="">
        <dc:format>image/svg+xml</dc:format>
        <dc:type
           rdf:resource="http://purl.org/dc/dcmitype/StillImage" />
        <dc:title />
      </cc:Work>
    </rdf:RDF>
  </metadata>
  <g
     inkscape:label="Layer 1"
     inkscape:groupmode="layer"
     id="layer1"
     transform="translate(0,-270.54165)">
    <g
       id="g4531"
       transform="translate(0,1.3229103)" />
    <path
       style="opacity:1;fill:#808080;fill-opacity:1;stroke:none;stroke-width:15;stroke-linecap:round;stroke-linejoin:round;stroke-miterlimit:4;stroke-dasharray:none;stroke-dashoffset:0;stroke-opacity:1;paint-order:normal"
       d="M 50 0 A 49.999997 49.999997 0 0 0 0 50 A 49.999997 49.999997 0 0 0 50 100 A 49.999997 49.999997 0 0 0 100 50 A 49.999997 49.999997 0 0 0 50 0 z M 50 40.998047 A 2.4999999 2.4999999 0 0 1 52.5 43.498047 A 2.4999999 2.4999999 0 0 1 50 45.998047 A 2.4999999 2.4999999 0 0 1 47.5 43.498047 A 2.4999999 2.4999999 0 0 1 50 40.998047 z M 44.427734 44.25 A 2.4999999 2.4999999 0 0 1 45.619141 44.583984 A 2.4999999 2.4999999 0 0 1 46.535156 47.998047 A 2.4999999 2.4999999 0 0 1 43.119141 48.914062 A 2.4999999 2.4999999 0 0 1 42.205078 45.498047 A 2.4999999 2.4999999 0 0 1 44.251953 44.251953 A 2.4999999 2.4999999 0 0 1 44.427734 44.25 z M 55.572266 44.25 A 2.4999999 2.4999999 0 0 1 57.794922 45.498047 A 2.4999999 2.4999999 0 0 1 56.880859 48.914062 A 2.4999999 2.4999999 0 0 1 53.464844 47.998047 A 2.4999999 2.4999999 0 0 1 54.380859 44.583984 A 2.4999999 2.4999999 0 0 1 55.572266 44.25 z M 44.310547 50.751953 A 2.4999999 2.4999999 0 0 1 46.535156 52 A 2.4999999 2.4999999 0 0 1 45.619141 55.416016 A 2.4999999 2.4999999 0 0 1 42.205078 54.5 A 2.4999999 2.4999999 0 0 1 43.119141 51.085938 A 2.4999999 2.4999999 0 0 1 44.310547 50.751953 z M 55.689453 50.751953 A 2.4999999 2.4999999 0 0 1 56.880859 51.085938 A 2.4999999 2.4999999 0 0 1 57.794922 54.5 A 2.4999999 2.4999999 0 0 1 54.380859 55.416016 A 2.4999999 2.4999999 0 0 1 53.464844 52 A 2.4999999 2.4999999 0 0 1 55.513672 50.753906 A 2.4999999 2.4999999 0 0 1 55.689453 50.751953 z M 50 54.001953 A 2.4999999 2.4999999 0 0 1 52.5 56.501953 A 2.4999999 2.4999999 0 0 1 50 59.001953 A 2.4999999 2.4999999 0 0 1 47.5 56.501953 A 2.4999999 2.4999999 0 0 1 50 54.001953 z "
       transform="matrix(0.26458333,0,0,0.26458333,0,270.54165)"
       id="path820" />
    <circle
       inkscape:transform-center-y="-8.5992672"
       style="opacity:1;fill:#4d4d4d;fill-opacity:1;stroke:none;stroke-width:0.99218762;stroke-linecap:round;stroke-linejoin:round;stroke-miterlimit:4;stroke-dasharray:none;stroke-dashoffset:0;stroke-opacity:1;paint-order:normal"
       id="circle828"
       cx="13.229167"
       cy="275.17184"
       r="3.3072917" />
    <circle
       r="3.3072917"
       cy="144.74309"
       cx="-239.13841"
       id="circle830"
       style="opacity:1;fill:#4d4d4d;fill-opacity:1;stroke:none;stroke-width:0.99218762;stroke-linecap:round;stroke-linejoin:round;stroke-miterlimit:4;stroke-dasharray:none;stroke-dashoffset:0;stroke-opacity:1;paint-order:normal"
       inkscape:transform-center-y="-4.2996275"
       transform="rotate(-60)"
       inkscape:transform-center-x="7.4471823" />
    <circle
       inkscape:transform-center-x="7.4471811"
       transform="rotate(-120)"
       inkscape:transform-center-y="4.2996428"
       style="opacity:1;fill:#4d4d4d;fill-opacity:1;stroke:none;stroke-width:0.99218762;stroke-linecap:round;stroke-linejoin:round;stroke-miterlimit:4;stroke-dasharray:none;stroke-dashoffset:0;stroke-opacity:1;paint-order:normal"
       id="circle832"
       cx="-252.36758"
       cy="-139.02803"
       r="3.3072917" />
    <circle
       r="3.3072917"
       cy="-292.37039"
       cx="-13.229177"
       id="circle834"
       style="opacity:1;fill:#4d4d4d;fill-opacity:1;stroke:none;stroke-width:0.99218762;stroke-linecap:round;stroke-linejoin:round;stroke-miterlimit:4;stroke-dasharray:none;stroke-dashoffset:0;stroke-opacity:1;paint-order:normal"
       inkscape:transform-center-y="8.5992805"
       transform="scale(-1)"
       inkscape:transform-center-x="-1.0562077e-005" />
    <circle
       inkscape:transform-center-x="-7.4472046"
       transform="rotate(120)"
       inkscape:transform-center-y="4.2996331"
       style="opacity:1;fill:#4d4d4d;fill-opacity:1;stroke:none;stroke-width:0.99218762;stroke-linecap:round;stroke-linejoin:round;stroke-miterlimit:4;stroke-dasharray:none;stroke-dashoffset:0;stroke-opacity:1;paint-order:normal"
       id="circle836"
       cx="239.1384"
       cy="-161.94164"
       r="3.3072917" />
    <circle
       r="3.3072917"
       cy="121.82948"
       cx="252.36757"
       id="circle838"
       style="opacity:1;fill:#4d4d4d;fill-opacity:1;stroke:none;stroke-width:0.99218762;stroke-linecap:round;stroke-linejoin:round;stroke-miterlimit:4;stroke-dasharray:none;stroke-dashoffset:0;stroke-opacity:1;paint-order:normal"
       inkscape:transform-center-y="-4.2996443"
       transform="rotate(60)"
       inkscape:transform-center-x="-7.4471905" />
    <path
       style="opacity:1;fill:#666666;fill-opacity:1;stroke:none;stroke-width:15;stroke-linecap:round;stroke-linejoin:round;stroke-miterlimit:4;stroke-dasharray:none;stroke-dashoffset:0;stroke-opacity:1;paint-order:normal"
       d="M 28.365234 10.529297 L 26.632812 11.529297 L 45.773438 44.681641 A 2.4999999 2.4999999 0 0 1 46.861328 46.566406 L 48.267578 49.001953 L 45.447266 49.001953 A 2.4999999 2.4999999 0 0 1 43.291016 49.001953 L 4.9980469 49.001953 L 4.9980469 51.001953 L 43.285156 51.001953 A 2.4999999 2.4999999 0 0 1 44.310547 50.751953 A 2.4999999 2.4999999 0 0 1 45.462891 51.001953 L 48.267578 51.001953 L 46.861328 53.439453 A 2.4999999 2.4999999 0 0 1 45.777344 55.3125 L 26.632812 88.472656 L 28.365234 89.472656 L 47.505859 56.318359 A 2.4999999 2.4999999 0 0 1 48.59375 54.435547 L 50 52 L 51.408203 54.439453 A 2.4999999 2.4999999 0 0 1 52.492188 56.314453 L 71.634766 89.472656 L 73.367188 88.472656 L 54.228516 55.322266 A 2.4999999 2.4999999 0 0 1 53.136719 53.429688 L 51.734375 51.001953 L 54.539062 51.001953 A 2.4999999 2.4999999 0 0 1 55.513672 50.753906 A 2.4999999 2.4999999 0 0 1 56.714844 51.001953 L 95.001953 51.001953 L 95.001953 49.001953 L 56.712891 49.001953 A 2.4999999 2.4999999 0 0 1 54.548828 49.001953 L 51.732422 49.001953 L 53.138672 46.564453 A 2.4999999 2.4999999 0 0 1 54.224609 44.683594 L 73.367188 11.529297 L 71.634766 10.529297 L 52.492188 43.683594 A 2.4999999 2.4999999 0 0 1 51.408203 45.5625 L 50 48.001953 L 48.589844 45.560547 A 2.4999999 2.4999999 0 0 1 47.509766 43.6875 L 28.365234 10.529297 z "
       transform="matrix(0.26458333,0,0,0.26458333,0,270.54165)"
       id="rect844" />
    <path
       style="opacity:1;fill:#666666;fill-opacity:1;stroke:none;stroke-width:12.24744892;stroke-linecap:round;stroke-linejoin:round;stroke-miterlimit:4;stroke-dasharray:none;stroke-dashoffset:0;stroke-opacity:1;paint-order:normal"
       d="M 50 40 A 9.9999996 9.9999996 0 0 0 40 50 A 9.9999996 9.9999996 0 0 0 50 60 A 9.9999996 9.9999996 0 0 0 60 50 A 9.9999996 9.9999996 0 0 0 50 40 z M 50 41 A 2.4999999 2.4999999 0 0 1 52.5 43.5 A 2.4999999 2.4999999 0 0 1 50 46 A 2.4999999 2.4999999 0 0 1 47.5 43.5 A 2.4999999 2.4999999 0 0 1 50 41 z M 44.427734 44.251953 A 2.4999999 2.4999999 0 0 1 45.619141 44.585938 A 2.4999999 2.4999999 0 0 1 46.535156 48 A 2.4999999 2.4999999 0 0 1 43.119141 48.916016 A 2.4999999 2.4999999 0 0 1 42.205078 45.5 A 2.4999999 2.4999999 0 0 1 44.251953 44.253906 A 2.4999999 2.4999999 0 0 1 44.427734 44.251953 z M 55.572266 44.251953 A 2.4999999 2.4999999 0 0 1 57.794922 45.5 A 2.4999999 2.4999999 0 0 1 56.880859 48.916016 A 2.4999999 2.4999999 0 0 1 53.464844 48 A 2.4999999 2.4999999 0 0 1 54.380859 44.585938 A 2.4999999 2.4999999 0 0 1 55.572266 44.251953 z M 44.310547 50.753906 A 2.4999999 2.4999999 0 0 1 46.535156 52.001953 A 2.4999999 2.4999999 0 0 1 45.619141 55.417969 A 2.4999999 2.4999999 0 0 1 42.205078 54.501953 A 2.4999999 2.4999999 0 0 1 43.119141 51.087891 A 2.4999999 2.4999999 0 0 1 44.310547 50.753906 z M 55.689453 50.753906 A 2.4999999 2.4999999 0 0 1 56.880859 51.087891 A 2.4999999 2.4999999 0 0 1 57.794922 54.501953 A 2.4999999 2.4999999 0 0 1 54.380859 55.417969 A 2.4999999 2.4999999 0 0 1 53.464844 52.001953 A 2.4999999 2.4999999 0 0 1 55.513672 50.755859 A 2.4999999 2.4999999 0 0 1 55.689453 50.753906 z M 50 54.003906 A 2.4999999 2.4999999 0 0 1 52.5 56.503906 A 2.4999999 2.4999999 0 0 1 50 59.003906 A 2.4999999 2.4999999 0 0 1 47.5 56.503906 A 2.4999999 2.4999999 0 0 1 50 54.003906 z "
       transform="matrix(0.26458333,0,0,0.26458333,0,270.54165)"
       id="path842" />
  </g>
</svg>
