<?xml version="1.0" encoding="UTF-8" standalone="no"?>
<!-- Created with Inkscape (http://www.inkscape.org/) -->

<svg
   xmlns:dc="http://purl.org/dc/elements/1.1/"
   xmlns:cc="http://creativecommons.org/ns#"
   xmlns:rdf="http://www.w3.org/1999/02/22-rdf-syntax-ns#"
   xmlns:svg="http://www.w3.org/2000/svg"
   xmlns="http://www.w3.org/2000/svg"
   xmlns:sodipodi="http://sodipodi.sourceforge.net/DTD/sodipodi-0.dtd"
   xmlns:inkscape="http://www.inkscape.org/namespaces/inkscape"
   width="100"
   height="100"
   viewBox="0 0 26.458333 26.458334"
   version="1.1"
   id="svg8"
   inkscape:version="0.92.3 (2405546, 2018-03-11)"
   sodipodi:docname="Gingerbread Face.svg">
  <defs
     id="defs2" />
  <sodipodi:namedview
     id="base"
     pagecolor="#ffffff"
     bordercolor="#666666"
     borderopacity="1.0"
     inkscape:pageopacity="0.0"
     inkscape:pageshadow="2"
     inkscape:zoom="2.8"
     inkscape:cx="-32.87293"
     inkscape:cy="57.483231"
     inkscape:document-units="px"
     inkscape:current-layer="layer1"
     showgrid="true"
     units="px"
     inkscape:window-width="1920"
     inkscape:window-height="1017"
     inkscape:window-x="-8"
     inkscape:window-y="-8"
     inkscape:window-maximized="1"
     showguides="false">
    <inkscape:grid
       type="xygrid"
       id="grid815" />
  </sodipodi:namedview>
  <metadata
     id="metadata5">
    <rdf:RDF>
      <cc:Work
         rdf:about="">
        <dc:format>image/svg+xml</dc:format>
        <dc:type
           rdf:resource="http://purl.org/dc/dcmitype/StillImage" />
        <dc:title />
      </cc:Work>
    </rdf:RDF>
  </metadata>
  <g
     inkscape:label="Layer 1"
     inkscape:groupmode="layer"
     id="layer1"
     transform="translate(0,-270.54165)">
    <circle
       style="opacity:1;fill:#a05528;fill-opacity:1;stroke:none;stroke-width:3.96875;stroke-linecap:round;stroke-linejoin:round;stroke-miterlimit:4;stroke-dasharray:none;stroke-dashoffset:0;stroke-opacity:1;paint-order:normal"
       id="path825"
       cx="13.229166"
       cy="283.77081"
       r="13.229166" />
    <g
       id="g828"
       transform="matrix(1.1666614,0,0,1.1666614,-3.5277506,-46.191232)">
      <g
         style="stroke:#800000;stroke-opacity:1"
         transform="matrix(0.07000005,0,0,0.07000005,0.63499115,262.98081)"
         id="g889">
        <g
           style="stroke:#800000;stroke-opacity:1"
           id="g835"
           transform="matrix(0.31498016,0,0,0.31498016,38.625638,147.31548)">
          <g
             transform="translate(-2.7276402e-4,5.0215335e-4)"
             id="g900">
            <path
               style="color:#000000;font-style:normal;font-variant:normal;font-weight:normal;font-stretch:normal;font-size:medium;line-height:normal;font-family:sans-serif;font-variant-ligatures:normal;font-variant-position:normal;font-variant-caps:normal;font-variant-numeric:normal;font-variant-alternates:normal;font-feature-settings:normal;text-indent:0;text-align:start;text-decoration:none;text-decoration-line:none;text-decoration-style:solid;text-decoration-color:#000000;letter-spacing:normal;word-spacing:normal;text-transform:none;writing-mode:lr-tb;direction:ltr;text-orientation:mixed;dominant-baseline:auto;baseline-shift:baseline;text-anchor:start;white-space:normal;shape-padding:0;clip-rule:nonzero;display:inline;overflow:visible;visibility:visible;opacity:1;isolation:auto;mix-blend-mode:normal;color-interpolation:sRGB;color-interpolation-filters:linearRGB;solid-color:#000000;solid-opacity:1;vector-effect:none;fill:#ffffff;fill-opacity:1;fill-rule:evenodd;stroke:none;stroke-width:18.80972099;stroke-linecap:round;stroke-linejoin:round;stroke-miterlimit:4;stroke-dasharray:none;stroke-dashoffset:0;stroke-opacity:1;color-rendering:auto;image-rendering:auto;shape-rendering:auto;text-rendering:auto;enable-background:accumulate"
               d="m 414.21815,298.09178 c -2.76338,-59.35175 -49.52891,-111.56114 -111.04348,-114.32783 -57.15871,-2.57077 -109.87853,41.24239 -111.85538,99.95052 -1.69001,50.18971 37.12497,96.43825 88.93838,97.40459 43.21541,0.80598 83.01799,-33.03938 82.91523,-77.97768 -0.0829,-36.23418 -29.01726,-69.64281 -67.11249,-68.36709 -29.24543,0.97937 -56.35557,25.12107 -53.69587,56.42917 a 9.4058006,9.4058006 0 1 0 18.74175,-1.59075 c -1.65432,-19.47362 16.27909,-35.39139 35.58417,-36.03788 26.61496,-0.89127 47.61273,23.37105 47.67272,49.6088 0.077,33.67625 -30.58606,59.74615 -63.75466,59.12755 -40.69784,-0.75903 -71.83902,-37.8613 -70.48869,-77.96298 1.60607,-47.69717 45.17262,-83.91029 92.20987,-81.79474 54.68284,2.45942 95.96733,52.50572 93.06404,106.48065 -3.31666,61.6596 -59.85368,108.01637 -120.76796,104.30945 -68.63021,-4.17647 -120.06048,-67.2095 -115.53834,-135.06444 5.03807,-75.59643 74.57532,-132.10231 149.37195,-126.7562 a 9.4058006,9.4058006 0 1 0 1.34093,-18.76197 c -85.00323,-6.07563 -163.72358,57.88666 -169.48034,144.26725 -5.20129,78.04538 53.70942,150.25505 133.16326,155.09018 71.08571,4.3259 136.7912,-49.54237 140.69266,-122.07398 0.21558,-4.00773 0.22648,-7.99583 0.0423,-11.95262 z"
               id="path4138"
               inkscape:connector-curvature="0" />
            <path
               style="color:#000000;font-style:normal;font-variant:normal;font-weight:normal;font-stretch:normal;font-size:medium;line-height:normal;font-family:sans-serif;font-variant-ligatures:normal;font-variant-position:normal;font-variant-caps:normal;font-variant-numeric:normal;font-variant-alternates:normal;font-feature-settings:normal;text-indent:0;text-align:start;text-decoration:none;text-decoration-line:none;text-decoration-style:solid;text-decoration-color:#000000;letter-spacing:normal;word-spacing:normal;text-transform:none;writing-mode:lr-tb;direction:ltr;text-orientation:mixed;dominant-baseline:auto;baseline-shift:baseline;text-anchor:start;white-space:normal;shape-padding:0;clip-rule:nonzero;display:inline;overflow:visible;visibility:visible;opacity:1;isolation:auto;mix-blend-mode:normal;color-interpolation:sRGB;color-interpolation-filters:linearRGB;solid-color:#000000;solid-opacity:1;vector-effect:none;fill:#aa0000;fill-opacity:1;fill-rule:evenodd;stroke:none;stroke-width:20;stroke-linecap:round;stroke-linejoin:round;stroke-miterlimit:4;stroke-dasharray:none;stroke-dashoffset:0;stroke-opacity:1;color-rendering:auto;image-rendering:auto;shape-rendering:auto;text-rendering:auto;enable-background:accumulate"
               d="m 699.70508,512.36719 a 10.001,10.001 0 0 0 -4.17774,1.05078 C 647.91249,537.22547 573.88888,549.86133 500,549.86133 c -73.88888,0 -147.91249,-12.63586 -195.52734,-36.44336 A 10.001,10.001 0 0 0 290,522.36133 c 0,53.33345 26.35834,105.5008 65.42969,144.57226 39.07134,39.07147 91.23697,65.42774 144.57031,65.42774 53.33334,0 105.49897,-26.35627 144.57031,-65.42774 C 683.64166,627.86213 710,575.69478 710,522.36133 a 10.001,10.001 0 0 0 -10.29492,-9.99414 z M 310.93555,538.27148 C 362.23044,559.6679 431.02813,569.86133 500,569.86133 c 68.97187,0 137.76956,-10.19343 189.06445,-31.58985 -4.62663,41.45756 -26.78258,82.66726 -58.63476,114.51954 -35.92866,35.92876 -83.76304,59.57031 -130.42969,59.57031 -46.66665,0 -94.50103,-23.64155 -130.42969,-59.57031 -31.85218,-31.85228 -54.00813,-73.06198 -58.63476,-114.51954 z"
               id="path4143"
               inkscape:connector-curvature="0" />
            <path
               style="color:#000000;font-style:normal;font-variant:normal;font-weight:normal;font-stretch:normal;font-size:medium;line-height:normal;font-family:sans-serif;font-variant-ligatures:normal;font-variant-position:normal;font-variant-caps:normal;font-variant-numeric:normal;font-variant-alternates:normal;font-feature-settings:normal;text-indent:0;text-align:start;text-decoration:none;text-decoration-line:none;text-decoration-style:solid;text-decoration-color:#000000;letter-spacing:normal;word-spacing:normal;text-transform:none;writing-mode:lr-tb;direction:ltr;text-orientation:mixed;dominant-baseline:auto;baseline-shift:baseline;text-anchor:start;white-space:normal;shape-padding:0;clip-rule:nonzero;display:inline;overflow:visible;visibility:visible;opacity:1;isolation:auto;mix-blend-mode:normal;color-interpolation:sRGB;color-interpolation-filters:linearRGB;solid-color:#000000;solid-opacity:1;vector-effect:none;fill:#ffffff;fill-opacity:1;fill-rule:evenodd;stroke:none;stroke-width:18.80972099;stroke-linecap:round;stroke-linejoin:round;stroke-miterlimit:4;stroke-dasharray:none;stroke-dashoffset:0;stroke-opacity:1;color-rendering:auto;image-rendering:auto;shape-rendering:auto;text-rendering:auto;enable-background:accumulate"
               d="m 859.87385,266.63254 c -2.7634,59.35175 -49.5289,111.56115 -111.04349,114.32783 -57.15871,2.57077 -109.87853,-41.24239 -111.85538,-99.95052 -1.69001,-50.18971 37.12497,-96.43825 88.93838,-97.40459 43.21539,-0.80598 83.01799,33.03939 82.91519,77.97768 -0.083,36.23418 -29.0172,69.64281 -67.11245,68.36709 -29.24543,-0.97937 -56.35557,-25.12107 -53.69587,-56.42916 a 9.4058006,9.4058006 0 1 1 18.74175,1.59074 c -1.65432,19.47362 16.27909,35.3914 35.58417,36.03789 26.615,0.89127 47.6127,-23.37105 47.6727,-49.60881 0.077,-33.67625 -30.58604,-59.74615 -63.75464,-59.12754 -40.69784,0.75902 -71.83902,37.86129 -70.48869,77.96298 1.60607,47.69716 45.17262,83.91028 92.20987,81.79473 54.68286,-2.45942 95.96736,-52.50571 93.06406,-106.48065 -3.3167,-61.6596 -59.8537,-108.01637 -120.76798,-104.30945 -68.63021,4.17647 -120.06048,67.20951 -115.53834,135.06444 5.03807,75.59643 74.57532,132.10231 149.37195,126.75621 a 9.4058006,9.4058006 0 1 1 1.34093,18.76196 C 670.45278,438.039 591.73242,374.07671 585.97566,287.69613 c -5.20128,-78.04539 53.70943,-150.25506 133.16327,-155.09019 71.08572,-4.3259 136.79122,49.54238 140.69262,122.07398 0.2156,4.00773 0.2265,7.99584 0.042,11.95262 z"
               id="path4152"
               inkscape:connector-curvature="0" />
          </g>
        </g>
      </g>
    </g>
  </g>
</svg>
