<?xml version="1.0" encoding="UTF-8" standalone="no"?>
<!-- Created with Inkscape (http://www.inkscape.org/) -->

<svg
   xmlns:dc="http://purl.org/dc/elements/1.1/"
   xmlns:cc="http://creativecommons.org/ns#"
   xmlns:rdf="http://www.w3.org/1999/02/22-rdf-syntax-ns#"
   xmlns:svg="http://www.w3.org/2000/svg"
   xmlns="http://www.w3.org/2000/svg"
   xmlns:sodipodi="http://sodipodi.sourceforge.net/DTD/sodipodi-0.dtd"
   xmlns:inkscape="http://www.inkscape.org/namespaces/inkscape"
   width="100"
   height="100"
   viewBox="0 0 26.458333 26.458334"
   version="1.1"
   id="svg8"
   inkscape:version="0.92.3 (2405546, 2018-03-11)"
   sodipodi:docname="Mint.svg">
  <defs
     id="defs2" />
  <sodipodi:namedview
     id="base"
     pagecolor="#ffffff"
     bordercolor="#666666"
     borderopacity="1.0"
     inkscape:pageopacity="0.0"
     inkscape:pageshadow="2"
     inkscape:zoom="5.6568542"
     inkscape:cx="82.647068"
     inkscape:cy="63.546701"
     inkscape:document-units="px"
     inkscape:current-layer="layer1"
     showgrid="true"
     units="px"
     inkscape:window-width="1920"
     inkscape:window-height="1017"
     inkscape:window-x="-8"
     inkscape:window-y="-8"
     inkscape:window-maximized="1"
     showguides="false">
    <inkscape:grid
       type="xygrid"
       id="grid815" />
  </sodipodi:namedview>
  <metadata
     id="metadata5">
    <rdf:RDF>
      <cc:Work
         rdf:about="">
        <dc:format>image/svg+xml</dc:format>
        <dc:type
           rdf:resource="http://purl.org/dc/dcmitype/StillImage" />
        <dc:title />
      </cc:Work>
    </rdf:RDF>
  </metadata>
  <g
     inkscape:label="Layer 1"
     inkscape:groupmode="layer"
     id="layer1"
     transform="translate(0,-270.54165)">
    <path
       style="opacity:1;fill:#ffffff;fill-opacity:1;stroke:none;stroke-width:15;stroke-linecap:round;stroke-linejoin:round;stroke-miterlimit:4;stroke-dasharray:none;stroke-dashoffset:0;stroke-opacity:1;paint-order:normal"
       d="M 50 0 A 49.999997 49.999997 0 0 0 0 50 A 49.999997 49.999997 0 0 0 50 100 A 49.999997 49.999997 0 0 0 100 50 A 49.999997 49.999997 0 0 0 50 0 z M 50 25 A 25 25 0 0 1 75 50 A 25 25 0 0 1 50 75 A 25 25 0 0 1 25 50 A 25 25 0 0 1 50 25 z "
       transform="matrix(0.26458333,0,0,0.26458333,0,270.54165)"
       id="path820" />
    <g
       aria-label="HOLOHOLO"
       style="font-style:normal;font-variant:normal;font-weight:normal;font-stretch:normal;font-size:10.58333302px;line-height:125%;font-family:Montserrat;-inkscape-font-specification:Montserrat;letter-spacing:0px;word-spacing:0px;fill:#f9f9f9;fill-opacity:1;stroke:none;stroke-width:0.26458332px;stroke-linecap:butt;stroke-linejoin:miter;stroke-opacity:1"
       id="text828"
       transform="rotate(-135,13.22913,283.77076)">
      <path
         inkscape:connector-curvature="0"
         d="m 2.4383402,280.99998 0.9579372,0.17431 -0.2008327,1.10371 -0.9579372,-0.17431 -0.102311,0.56227 2.4295509,0.44208 0.102311,-0.56226 -0.9961159,-0.18126 0.2008327,-1.10371 0.9961159,0.18126 0.102311,-0.56227 -2.4295509,-0.44209 z"
         style="font-style:normal;font-variant:normal;font-weight:bold;font-stretch:normal;font-size:3.52777791px;font-family:Montserrat;-inkscape-font-specification:'Montserrat Bold';text-align:center;letter-spacing:-0.07937498px;text-anchor:middle;fill:#f9f9f9;stroke-width:0.26458332px"
         id="path851" />
      <path
         inkscape:connector-curvature="0"
         d="m 6.1894111,278.6149 c 0.4471957,-0.63432 0.3373848,-1.4153 -0.2652212,-1.84014 -0.602606,-0.42483 -1.3750795,-0.26586 -1.8222752,0.36846 -0.4492284,0.6372 -0.3345015,1.41733 0.2652212,1.84014 0.5997228,0.4228 1.3730469,0.26874 1.8222752,-0.36846 z m -0.3978929,-0.28052 c -0.2540885,0.36041 -0.7075417,0.44647 -1.0910182,0.17612 -0.3834766,-0.27035 -0.4547808,-0.72636 -0.2006923,-1.08677 0.2540884,-0.36041 0.7075416,-0.44646 1.0910182,-0.17611 0.3834765,0.27035 0.4547807,0.72635 0.2006923,1.08676 z"
         style="font-style:normal;font-variant:normal;font-weight:bold;font-stretch:normal;font-size:3.52777791px;font-family:Montserrat;-inkscape-font-specification:'Montserrat Bold';text-align:center;letter-spacing:-0.07937498px;text-anchor:middle;fill:#f9f9f9;stroke-width:0.26458332px"
         id="path853" />
      <path
         inkscape:connector-curvature="0"
         d="m 7.9052717,276.75692 1.5540021,-0.92751 -0.2386573,-0.39986 -1.0632646,0.63461 -1.0269495,-1.72061 -0.4907375,0.2929 z"
         style="font-style:normal;font-variant:normal;font-weight:bold;font-stretch:normal;font-size:3.52777791px;font-family:Montserrat;-inkscape-font-specification:'Montserrat Bold';text-align:center;letter-spacing:-0.07937498px;text-anchor:middle;fill:#f9f9f9;stroke-width:0.26458332px"
         id="path855" />
      <path
         inkscape:connector-curvature="0"
         d="m 11.546593,275.33578 c 0.765375,-0.12865 1.242978,-0.75625 1.120761,-1.48336 -0.122217,-0.7271 -0.77876,-1.16407 -1.544134,-1.03542 -0.768853,0.12923 -1.2423925,0.75973 -1.12076,1.48336 0.121632,0.72362 0.77528,1.16465 1.544133,1.03542 z m -0.0807,-0.4801 c -0.434872,0.0731 -0.815109,-0.18852 -0.892884,-0.65123 -0.07777,-0.4627 0.196035,-0.83426 0.630907,-0.90735 0.434872,-0.0731 0.81511,0.18852 0.892884,0.65122 0.07777,0.46271 -0.196035,0.83426 -0.630907,0.90736 z"
         style="font-style:normal;font-variant:normal;font-weight:bold;font-stretch:normal;font-size:3.52777791px;font-family:Montserrat;-inkscape-font-specification:'Montserrat Bold';text-align:center;letter-spacing:-0.07937498px;text-anchor:middle;fill:#f9f9f9;stroke-width:0.26458332px"
         id="path857" />
    </g>
    <g
       inkscape:transform-center-x="0.1032112"
       inkscape:transform-center-y="-4.9204819"
       id="g883"
       transform="rotate(45,13.229131,283.77076)"
       style="fill:#f9f9f9">
      <g
         aria-label="HOLOHOLO"
         style="font-style:normal;font-variant:normal;font-weight:normal;font-stretch:normal;font-size:10.58333302px;line-height:125%;font-family:Montserrat;-inkscape-font-specification:Montserrat;letter-spacing:0px;word-spacing:0px;fill:#f9f9f9;fill-opacity:1;stroke:none;stroke-width:0.26458332px;stroke-linecap:butt;stroke-linejoin:miter;stroke-opacity:1"
         id="g877">
        <path
           inkscape:connector-curvature="0"
           d="m 2.4383402,280.99998 0.9579372,0.17431 -0.2008327,1.10371 -0.9579372,-0.17431 -0.102311,0.56227 2.4295509,0.44208 0.102311,-0.56226 -0.9961159,-0.18126 0.2008327,-1.10371 0.9961159,0.18126 0.102311,-0.56227 -2.4295509,-0.44209 z"
           style="font-style:normal;font-variant:normal;font-weight:bold;font-stretch:normal;font-size:3.52777791px;font-family:Montserrat;-inkscape-font-specification:'Montserrat Bold';text-align:center;letter-spacing:-0.07937498px;text-anchor:middle;stroke-width:0.26458332px;fill:#f9f9f9"
           id="path869" />
        <path
           inkscape:connector-curvature="0"
           d="m 6.1894111,278.6149 c 0.4471957,-0.63432 0.3373848,-1.4153 -0.2652212,-1.84014 -0.602606,-0.42483 -1.3750795,-0.26586 -1.8222752,0.36846 -0.4492284,0.6372 -0.3345015,1.41733 0.2652212,1.84014 0.5997228,0.4228 1.3730469,0.26874 1.8222752,-0.36846 z m -0.3978929,-0.28052 c -0.2540885,0.36041 -0.7075417,0.44647 -1.0910182,0.17612 -0.3834766,-0.27035 -0.4547808,-0.72636 -0.2006923,-1.08677 0.2540884,-0.36041 0.7075416,-0.44646 1.0910182,-0.17611 0.3834765,0.27035 0.4547807,0.72635 0.2006923,1.08676 z"
           style="font-style:normal;font-variant:normal;font-weight:bold;font-stretch:normal;font-size:3.52777791px;font-family:Montserrat;-inkscape-font-specification:'Montserrat Bold';text-align:center;letter-spacing:-0.07937498px;text-anchor:middle;stroke-width:0.26458332px;fill:#f9f9f9"
           id="path871" />
        <path
           inkscape:connector-curvature="0"
           d="m 7.9052717,276.75692 1.5540021,-0.92751 -0.2386573,-0.39986 -1.0632646,0.63461 -1.0269495,-1.72061 -0.4907375,0.2929 z"
           style="font-style:normal;font-variant:normal;font-weight:bold;font-stretch:normal;font-size:3.52777791px;font-family:Montserrat;-inkscape-font-specification:'Montserrat Bold';text-align:center;letter-spacing:-0.07937498px;text-anchor:middle;stroke-width:0.26458332px;fill:#f9f9f9"
           id="path873" />
        <path
           inkscape:connector-curvature="0"
           d="m 11.546593,275.33578 c 0.765375,-0.12865 1.242978,-0.75625 1.120761,-1.48336 -0.122217,-0.7271 -0.77876,-1.16407 -1.544134,-1.03542 -0.768853,0.12923 -1.2423925,0.75973 -1.12076,1.48336 0.121632,0.72362 0.77528,1.16465 1.544133,1.03542 z m -0.0807,-0.4801 c -0.434872,0.0731 -0.815109,-0.18852 -0.892884,-0.65123 -0.07777,-0.4627 0.196035,-0.83426 0.630907,-0.90735 0.434872,-0.0731 0.81511,0.18852 0.892884,0.65122 0.07777,0.46271 -0.196035,0.83426 -0.630907,0.90736 z"
           style="font-style:normal;font-variant:normal;font-weight:bold;font-stretch:normal;font-size:3.52777791px;font-family:Montserrat;-inkscape-font-specification:'Montserrat Bold';text-align:center;letter-spacing:-0.07937498px;text-anchor:middle;stroke-width:0.26458332px;fill:#f9f9f9"
           id="path875" />
      </g>
    </g>
  </g>
</svg>
