<?xml version="1.0" encoding="UTF-8" standalone="no"?>
<!-- Created with Inkscape (http://www.inkscape.org/) -->

<svg
   xmlns:dc="http://purl.org/dc/elements/1.1/"
   xmlns:cc="http://creativecommons.org/ns#"
   xmlns:rdf="http://www.w3.org/1999/02/22-rdf-syntax-ns#"
   xmlns:svg="http://www.w3.org/2000/svg"
   xmlns="http://www.w3.org/2000/svg"
   xmlns:sodipodi="http://sodipodi.sourceforge.net/DTD/sodipodi-0.dtd"
   xmlns:inkscape="http://www.inkscape.org/namespaces/inkscape"
   width="100"
   height="100"
   viewBox="0 0 26.458333 26.458334"
   version="1.1"
   id="svg8"
   inkscape:version="0.92.3 (2405546, 2018-03-11)"
   sodipodi:docname="Stone Cutting Disc.svg">
  <defs
     id="defs2" />
  <sodipodi:namedview
     id="base"
     pagecolor="#ffffff"
     bordercolor="#666666"
     borderopacity="1.0"
     inkscape:pageopacity="0.0"
     inkscape:pageshadow="2"
     inkscape:zoom="5.6568543"
     inkscape:cx="8.1987162"
     inkscape:cy="45.288548"
     inkscape:document-units="px"
     inkscape:current-layer="layer1"
     showgrid="true"
     units="px"
     inkscape:window-width="1920"
     inkscape:window-height="1017"
     inkscape:window-x="-8"
     inkscape:window-y="-8"
     inkscape:window-maximized="1"
     showguides="true">
    <inkscape:grid
       type="xygrid"
       id="grid815" />
  </sodipodi:namedview>
  <metadata
     id="metadata5">
    <rdf:RDF>
      <cc:Work
         rdf:about="">
        <dc:format>image/svg+xml</dc:format>
        <dc:type
           rdf:resource="http://purl.org/dc/dcmitype/StillImage" />
        <dc:title />
      </cc:Work>
    </rdf:RDF>
  </metadata>
  <g
     inkscape:label="Layer 1"
     inkscape:groupmode="layer"
     id="layer1"
     transform="translate(0,-270.54165)">
    <path
       style="opacity:1;fill:#999999;fill-opacity:1;stroke:none;stroke-width:15.01348877;stroke-linecap:round;stroke-linejoin:round;stroke-miterlimit:4;stroke-dasharray:none;stroke-dashoffset:0;stroke-opacity:1;paint-order:normal"
       d="M 48.748047 0 A 50.044958 50.044958 0 0 0 15.523438 13.755859 L 26.351562 24.583984 A 2.502248 2.502248 0 0 1 28.765625 25.230469 A 2.502248 2.502248 0 0 1 28.765625 28.767578 A 2.502248 2.502248 0 0 1 25.228516 28.767578 A 2.502248 2.502248 0 0 1 24.582031 26.353516 L 13.78125 15.550781 A 50.044958 50.044958 0 0 0 0.017578125 48.75 L 15.304688 48.75 A 2.502248 2.502248 0 0 1 17.46875 47.5 A 2.502248 2.502248 0 0 1 19.970703 50.001953 A 2.502248 2.502248 0 0 1 17.46875 52.503906 A 2.502248 2.502248 0 0 1 15.304688 51.253906 L 0 51.253906 A 50.044958 50.044958 0 0 0 13.755859 84.476562 L 24.582031 73.648438 A 2.502248 2.502248 0 0 1 25.228516 71.234375 A 2.502248 2.502248 0 0 1 26.960938 70.5 A 2.502248 2.502248 0 0 1 28.765625 71.234375 A 2.502248 2.502248 0 0 1 28.765625 74.771484 A 2.502248 2.502248 0 0 1 26.351562 75.417969 L 15.550781 86.21875 A 50.044958 50.044958 0 0 0 48.748047 99.982422 L 48.748047 84.695312 A 2.502248 2.502248 0 0 1 47.498047 82.53125 A 2.502248 2.502248 0 0 1 50 80.029297 A 2.502248 2.502248 0 0 1 52.501953 82.53125 A 2.502248 2.502248 0 0 1 51.251953 84.695312 L 51.251953 100 A 50.044958 50.044958 0 0 0 84.474609 86.246094 L 73.648438 75.417969 A 2.502248 2.502248 0 0 1 71.234375 74.771484 A 2.502248 2.502248 0 0 1 71.234375 71.234375 A 2.502248 2.502248 0 0 1 72.966797 70.5 A 2.502248 2.502248 0 0 1 74.771484 71.234375 A 2.502248 2.502248 0 0 1 75.417969 73.648438 L 86.21875 84.449219 A 50.044958 50.044958 0 0 0 99.982422 51.253906 L 84.695312 51.253906 A 2.502248 2.502248 0 0 1 82.53125 52.503906 A 2.502248 2.502248 0 0 1 80.027344 50.001953 A 2.502248 2.502248 0 0 1 82.53125 47.5 A 2.502248 2.502248 0 0 1 84.695312 48.75 L 100 48.75 A 50.044958 50.044958 0 0 0 86.244141 15.525391 L 75.417969 26.353516 A 2.502248 2.502248 0 0 1 74.771484 28.767578 A 2.502248 2.502248 0 0 1 71.232422 28.767578 A 2.502248 2.502248 0 0 1 71.234375 25.230469 A 2.502248 2.502248 0 0 1 73.648438 24.583984 L 84.449219 13.78125 A 50.044958 50.044958 0 0 0 51.251953 0.017578125 L 51.251953 15.306641 A 2.502248 2.502248 0 0 1 52.501953 17.470703 A 2.502248 2.502248 0 0 1 50 19.972656 A 2.502248 2.502248 0 0 1 47.498047 17.470703 A 2.502248 2.502248 0 0 1 48.748047 15.306641 L 48.748047 0 z M 50 40 A 9.9999996 9.9999996 0 0 1 60 50 A 9.9999996 9.9999996 0 0 1 50 60 A 9.9999996 9.9999996 0 0 1 40 50 A 9.9999996 9.9999996 0 0 1 50 40 z "
       transform="matrix(0.26458333,0,0,0.26458333,0,270.54165)"
       id="path819" />
  </g>
</svg>
