<?xml version="1.0" encoding="UTF-8" standalone="no"?>
<!-- Created with Inkscape (http://www.inkscape.org/) -->

<svg
   xmlns:dc="http://purl.org/dc/elements/1.1/"
   xmlns:cc="http://creativecommons.org/ns#"
   xmlns:rdf="http://www.w3.org/1999/02/22-rdf-syntax-ns#"
   xmlns:svg="http://www.w3.org/2000/svg"
   xmlns="http://www.w3.org/2000/svg"
   xmlns:sodipodi="http://sodipodi.sourceforge.net/DTD/sodipodi-0.dtd"
   xmlns:inkscape="http://www.inkscape.org/namespaces/inkscape"
   width="100"
   height="100"
   viewBox="0 0 26.458333 26.458334"
   version="1.1"
   id="svg8"
   inkscape:version="0.92.3 (2405546, 2018-03-11)"
   sodipodi:docname="Wax Seal.svg">
  <defs
     id="defs2" />
  <sodipodi:namedview
     id="base"
     pagecolor="#ffffff"
     bordercolor="#666666"
     borderopacity="1.0"
     inkscape:pageopacity="0.0"
     inkscape:pageshadow="2"
     inkscape:zoom="3.959798"
     inkscape:cx="6.6609114"
     inkscape:cy="66.709822"
     inkscape:document-units="px"
     inkscape:current-layer="layer1"
     showgrid="true"
     units="px"
     inkscape:window-width="1920"
     inkscape:window-height="1017"
     inkscape:window-x="-8"
     inkscape:window-y="-8"
     inkscape:window-maximized="1"
     showguides="false">
    <inkscape:grid
       type="xygrid"
       id="grid815" />
  </sodipodi:namedview>
  <metadata
     id="metadata5">
    <rdf:RDF>
      <cc:Work
         rdf:about="">
        <dc:format>image/svg+xml</dc:format>
        <dc:type
           rdf:resource="http://purl.org/dc/dcmitype/StillImage" />
        <dc:title />
      </cc:Work>
    </rdf:RDF>
  </metadata>
  <g
     inkscape:label="Layer 1"
     inkscape:groupmode="layer"
     id="layer1"
     transform="translate(0,-270.54165)">
    <path
       sodipodi:type="star"
       style="opacity:1;fill:#aa0000;fill-opacity:1;stroke:none;stroke-width:3.96875;stroke-linecap:round;stroke-linejoin:round;stroke-miterlimit:4;stroke-dasharray:none;stroke-dashoffset:0;stroke-opacity:1;paint-order:normal"
       id="path832"
       sodipodi:sides="10"
       sodipodi:cx="13.229167"
       sodipodi:cy="283.77081"
       sodipodi:r1="13.229171"
       sodipodi:r2="13.229166"
       sodipodi:arg1="1.5707963"
       sodipodi:arg2="1.8849556"
       inkscape:flatsided="true"
       inkscape:rounded="0.5"
       inkscape:randomized="0"
       d="m 13.229168,296.99998 c -4.0880389,0 -4.4686191,-0.12365 -7.7759119,-2.52654 -3.3072929,-2.40289 -3.5425044,-2.72663 -4.80577799,-6.61459 -1.26327361,-3.88795 -1.26327363,-4.28812 -4.4e-7,-8.17607 1.26327323,-3.88796 1.49848463,-4.2117 4.80577723,-6.61459 3.3072926,-2.40289 3.6878728,-2.52655 7.7759111,-2.52655 4.088039,0 4.468619,0.12366 7.775912,2.52655 3.307293,2.40289 3.542504,2.72663 4.805778,6.61458 1.263273,3.88796 1.263273,4.28813 0,8.17608 -1.263273,3.88796 -1.498484,4.2117 -4.805777,6.61459 -3.307293,2.40289 -3.687873,2.52654 -7.775911,2.52654 z"
       transform="matrix(0.97782732,0,0,1,0.29332585,3.7617187e-6)" />
    <g
       id="g828">
      <path
         id="circle825"
         transform="matrix(0.26458333,0,0,0.26458333,0,270.54165)"
         d="M 50,5 A 44.999999,44.999999 0 0 0 5,50 44.999999,44.999999 0 0 0 50,95 44.999999,44.999999 0 0 0 95,50 44.999999,44.999999 0 0 0 50,5 Z m 0,5 A 39.999999,39.999999 0 0 1 90,50 39.999999,39.999999 0 0 1 50,90 39.999999,39.999999 0 0 1 10,50 39.999999,39.999999 0 0 1 50,10 Z"
         style="opacity:1;fill:#800000;fill-opacity:1;stroke:none;stroke-width:13.50000095;stroke-linecap:round;stroke-linejoin:round;stroke-miterlimit:4;stroke-dasharray:none;stroke-dashoffset:0;stroke-opacity:1;paint-order:normal"
         inkscape:connector-curvature="0" />
      <g
         style="stroke:#800000;stroke-opacity:1"
         transform="matrix(0.06,0,0,0.06,2.4341668,265.95082)"
         id="g889">
        <g
           style="stroke:#800000;stroke-opacity:1"
           id="g835"
           transform="matrix(0.31498016,0,0,0.31498016,22.426586,160.81449)">
          <g
             transform="translate(-2.7276402e-4,5.0215335e-4)"
             id="g900">
            <path
               style="color:#000000;font-style:normal;font-variant:normal;font-weight:normal;font-stretch:normal;font-size:medium;line-height:normal;font-family:sans-serif;font-variant-ligatures:normal;font-variant-position:normal;font-variant-caps:normal;font-variant-numeric:normal;font-variant-alternates:normal;font-feature-settings:normal;text-indent:0;text-align:start;text-decoration:none;text-decoration-line:none;text-decoration-style:solid;text-decoration-color:#000000;letter-spacing:normal;word-spacing:normal;text-transform:none;writing-mode:lr-tb;direction:ltr;text-orientation:mixed;dominant-baseline:auto;baseline-shift:baseline;text-anchor:start;white-space:normal;shape-padding:0;clip-rule:nonzero;display:inline;overflow:visible;visibility:visible;opacity:1;isolation:auto;mix-blend-mode:normal;color-interpolation:sRGB;color-interpolation-filters:linearRGB;solid-color:#000000;solid-opacity:1;vector-effect:none;fill:#800000;fill-opacity:1;fill-rule:evenodd;stroke:none;stroke-width:18.80972099;stroke-linecap:round;stroke-linejoin:round;stroke-miterlimit:4;stroke-dasharray:none;stroke-dashoffset:0;stroke-opacity:1;color-rendering:auto;image-rendering:auto;shape-rendering:auto;text-rendering:auto;enable-background:accumulate"
               d="m 354.2182,298.09178 c -2.76338,-59.35175 -49.52891,-111.56114 -111.04348,-114.32783 -57.15871,-2.57077 -109.87853,41.24239 -111.85538,99.95052 -1.69001,50.18971 37.12497,96.43825 88.93838,97.40459 43.21541,0.80598 83.01799,-33.03938 82.91523,-77.97768 -0.0829,-36.23418 -29.01726,-69.64281 -67.11249,-68.36709 -29.24543,0.97937 -56.35557,25.12107 -53.69587,56.42917 a 9.4058006,9.4058006 0 1 0 18.74175,-1.59075 c -1.65432,-19.47362 16.27909,-35.39139 35.58417,-36.03788 26.61496,-0.89127 47.61273,23.37105 47.67272,49.6088 0.077,33.67625 -30.58606,59.74615 -63.75466,59.12755 -40.69784,-0.75903 -71.83902,-37.8613 -70.48869,-77.96298 1.60607,-47.69717 45.17262,-83.91029 92.20987,-81.79474 54.68284,2.45942 95.96733,52.50572 93.06404,106.48065 -3.31666,61.6596 -59.85368,108.01637 -120.76796,104.30945 C 145.99562,409.16709 94.565348,346.13406 99.087487,278.27912 104.12556,202.68269 173.66281,146.17681 248.45944,151.52292 a 9.4058006,9.4058006 0 1 0 1.34093,-18.76197 C 164.79714,126.68532 86.076785,190.64761 80.320023,277.0282 75.11874,355.07358 134.02945,427.28325 213.48329,432.11838 c 71.08571,4.3259 136.7912,-49.54237 140.69266,-122.07398 0.21558,-4.00773 0.22648,-7.99583 0.0423,-11.95262 z"
               id="path4138"
               inkscape:connector-curvature="0" />
            <path
               style="color:#000000;font-style:normal;font-variant:normal;font-weight:normal;font-stretch:normal;font-size:medium;line-height:normal;font-family:sans-serif;font-variant-ligatures:normal;font-variant-position:normal;font-variant-caps:normal;font-variant-numeric:normal;font-variant-alternates:normal;font-feature-settings:normal;text-indent:0;text-align:start;text-decoration:none;text-decoration-line:none;text-decoration-style:solid;text-decoration-color:#000000;letter-spacing:normal;word-spacing:normal;text-transform:none;writing-mode:lr-tb;direction:ltr;text-orientation:mixed;dominant-baseline:auto;baseline-shift:baseline;text-anchor:start;white-space:normal;shape-padding:0;clip-rule:nonzero;display:inline;overflow:visible;visibility:visible;opacity:1;isolation:auto;mix-blend-mode:normal;color-interpolation:sRGB;color-interpolation-filters:linearRGB;solid-color:#000000;solid-opacity:1;vector-effect:none;fill:#800000;fill-opacity:1;fill-rule:evenodd;stroke:none;stroke-width:20;stroke-linecap:round;stroke-linejoin:round;stroke-miterlimit:4;stroke-dasharray:none;stroke-dashoffset:0;stroke-opacity:1;color-rendering:auto;image-rendering:auto;shape-rendering:auto;text-rendering:auto;enable-background:accumulate"
               d="m 699.70508,512.36719 a 10.001,10.001 0 0 0 -4.17774,1.05078 C 647.91249,537.22547 573.88888,549.86133 500,549.86133 c -73.88888,0 -147.91249,-12.63586 -195.52734,-36.44336 A 10.001,10.001 0 0 0 290,522.36133 c 0,53.33345 26.35834,105.5008 65.42969,144.57226 39.07134,39.07147 91.23697,65.42774 144.57031,65.42774 53.33334,0 105.49897,-26.35627 144.57031,-65.42774 C 683.64166,627.86213 710,575.69478 710,522.36133 a 10.001,10.001 0 0 0 -10.29492,-9.99414 z M 310.93555,538.27148 C 362.23044,559.6679 431.02813,569.86133 500,569.86133 c 68.97187,0 137.76956,-10.19343 189.06445,-31.58985 -4.62663,41.45756 -26.78258,82.66726 -58.63476,114.51954 -35.92866,35.92876 -83.76304,59.57031 -130.42969,59.57031 -46.66665,0 -94.50103,-23.64155 -130.42969,-59.57031 -31.85218,-31.85228 -54.00813,-73.06198 -58.63476,-114.51954 z"
               id="path4143"
               inkscape:connector-curvature="0" />
            <path
               style="color:#000000;font-style:normal;font-variant:normal;font-weight:normal;font-stretch:normal;font-size:medium;line-height:normal;font-family:sans-serif;font-variant-ligatures:normal;font-variant-position:normal;font-variant-caps:normal;font-variant-numeric:normal;font-variant-alternates:normal;font-feature-settings:normal;text-indent:0;text-align:start;text-decoration:none;text-decoration-line:none;text-decoration-style:solid;text-decoration-color:#000000;letter-spacing:normal;word-spacing:normal;text-transform:none;writing-mode:lr-tb;direction:ltr;text-orientation:mixed;dominant-baseline:auto;baseline-shift:baseline;text-anchor:start;white-space:normal;shape-padding:0;clip-rule:nonzero;display:inline;overflow:visible;visibility:visible;opacity:1;isolation:auto;mix-blend-mode:normal;color-interpolation:sRGB;color-interpolation-filters:linearRGB;solid-color:#000000;solid-opacity:1;vector-effect:none;fill:#800000;fill-opacity:1;fill-rule:evenodd;stroke:none;stroke-width:18.80972099;stroke-linecap:round;stroke-linejoin:round;stroke-miterlimit:4;stroke-dasharray:none;stroke-dashoffset:0;stroke-opacity:1;color-rendering:auto;image-rendering:auto;shape-rendering:auto;text-rendering:auto;enable-background:accumulate"
               d="m 919.87051,266.63254 c -2.76338,59.35175 -49.52891,111.56115 -111.04348,114.32783 -57.15871,2.57077 -109.87853,-41.24239 -111.85538,-99.95052 -1.69001,-50.18971 37.12497,-96.43825 88.93838,-97.40459 43.21541,-0.80598 83.01799,33.03939 82.91523,77.97768 -0.0829,36.23418 -29.01726,69.64281 -67.11249,68.36709 -29.24543,-0.97937 -56.35557,-25.12107 -53.69587,-56.42916 a 9.4058006,9.4058006 0 1 1 18.74175,1.59074 c -1.65432,19.47362 16.27909,35.3914 35.58417,36.03789 26.61496,0.89127 47.61273,-23.37105 47.67272,-49.60881 0.077,-33.67625 -30.58606,-59.74615 -63.75466,-59.12754 -40.69784,0.75902 -71.83902,37.86129 -70.48869,77.96298 1.60607,47.69716 45.17262,83.91028 92.20987,81.79473 54.68284,-2.45942 95.96733,-52.50571 93.06404,-106.48065 -3.31666,-61.6596 -59.85368,-108.01637 -120.76796,-104.30945 -68.63021,4.17647 -120.06048,67.20951 -115.53834,135.06444 5.03807,75.59643 74.57532,132.10231 149.37195,126.75621 a 9.4058006,9.4058006 0 1 1 1.34093,18.76196 C 730.44945,438.039 651.72909,374.07671 645.97233,287.69613 640.77105,209.65074 699.68176,137.44107 779.1356,132.60594 c 71.08571,-4.3259 136.7912,49.54238 140.69266,122.07398 0.21558,4.00773 0.22648,7.99584 0.0422,11.95262 z"
               id="path4152"
               inkscape:connector-curvature="0" />
          </g>
        </g>
      </g>
    </g>
  </g>
</svg>
