<?xml version="1.0" encoding="UTF-8" standalone="no"?>
<!-- Created with Inkscape (http://www.inkscape.org/) -->

<svg
   xmlns:dc="http://purl.org/dc/elements/1.1/"
   xmlns:cc="http://creativecommons.org/ns#"
   xmlns:rdf="http://www.w3.org/1999/02/22-rdf-syntax-ns#"
   xmlns:svg="http://www.w3.org/2000/svg"
   xmlns="http://www.w3.org/2000/svg"
   xmlns:sodipodi="http://sodipodi.sourceforge.net/DTD/sodipodi-0.dtd"
   xmlns:inkscape="http://www.inkscape.org/namespaces/inkscape"
   width="100"
   height="100"
   viewBox="0 0 26.458333 26.458334"
   version="1.1"
   id="svg8"
   inkscape:version="0.92.3 (2405546, 2018-03-11)"
   sodipodi:docname="Toilet Roll Pattern.svg"
   inkscape:export-filename="E:\Pictures\Game Development\Projects\RotorBall\Assets\Customisation Features\Ball Trails\Toilet Roll\Toilet Roll Pattern.png"
   inkscape:export-xdpi="96"
   inkscape:export-ydpi="96">
  <defs
     id="defs2" />
  <sodipodi:namedview
     id="base"
     pagecolor="#ffffff"
     bordercolor="#666666"
     borderopacity="1.0"
     inkscape:pageopacity="0.0"
     inkscape:pageshadow="2"
     inkscape:zoom="5.6568542"
     inkscape:cx="25.258299"
     inkscape:cy="48.924748"
     inkscape:document-units="px"
     inkscape:current-layer="g824"
     showgrid="true"
     inkscape:window-width="1920"
     inkscape:window-height="1017"
     inkscape:window-x="-8"
     inkscape:window-y="-8"
     inkscape:window-maximized="1"
     units="px"
     inkscape:pagecheckerboard="true">
    <inkscape:grid
       type="xygrid"
       id="grid815" />
  </sodipodi:namedview>
  <metadata
     id="metadata5">
    <rdf:RDF>
      <cc:Work
         rdf:about="">
        <dc:format>image/svg+xml</dc:format>
        <dc:type
           rdf:resource="http://purl.org/dc/dcmitype/StillImage" />
        <dc:title></dc:title>
      </cc:Work>
    </rdf:RDF>
  </metadata>
  <g
     inkscape:label="Path"
     inkscape:groupmode="layer"
     id="layer1"
     transform="translate(0,-270.54164)"
     style="display:inline">
    <g
       style="display:inline"
       id="g824"
       transform="translate(0,2.6458275)">
      <rect
         style="opacity:1;fill:#ffffff;fill-opacity:1;stroke:none;stroke-width:0.27939999;stroke-linecap:round;stroke-linejoin:round;stroke-miterlimit:4;stroke-dasharray:none;stroke-dashoffset:0;stroke-opacity:1;paint-order:normal"
         id="rect825"
         width="26.458332"
         height="26.458332"
         x="0"
         y="267.89581" />
      <g
         id="g922"
         transform="matrix(1,0,0,1.0833333,0,-22.324639)">
        <path
           inkscape:connector-curvature="0"
           id="rect855"
           d="M 2.6458333,263.92706 6.9999998e-8,267.89581 2.6458333,271.86456 5.2916666,267.89581 Z m 0,0.39688 2.3812499,3.57187 -2.3812499,3.57188 -2.3812499,-3.57188 z"
           style="opacity:1;fill:#ececec;fill-opacity:1;stroke:none;stroke-width:0.27939999;stroke-linecap:round;stroke-linejoin:round;stroke-miterlimit:4;stroke-dasharray:none;stroke-dashoffset:0;stroke-opacity:1;paint-order:normal" />
        <path
           style="opacity:1;fill:#ececec;fill-opacity:1;stroke:none;stroke-width:0.27939999;stroke-linecap:round;stroke-linejoin:round;stroke-miterlimit:4;stroke-dasharray:none;stroke-dashoffset:0;stroke-opacity:1;paint-order:normal"
           d="m 7.9375001,263.92706 -2.6458332,3.96875 2.6458332,3.96875 2.6458329,-3.96875 z m 0,0.39688 2.3812499,3.57187 -2.3812499,3.57188 -2.3812499,-3.57188 z"
           id="path861"
           inkscape:connector-curvature="0" />
        <path
           inkscape:connector-curvature="0"
           id="path863"
           d="m 13.229167,263.92706 -2.645833,3.96875 2.645833,3.96875 2.645833,-3.96875 z m 0,0.39688 2.38125,3.57187 -2.38125,3.57188 -2.38125,-3.57188 z"
           style="opacity:1;fill:#ececec;fill-opacity:1;stroke:none;stroke-width:0.27939999;stroke-linecap:round;stroke-linejoin:round;stroke-miterlimit:4;stroke-dasharray:none;stroke-dashoffset:0;stroke-opacity:1;paint-order:normal" />
        <path
           style="opacity:1;fill:#ececec;fill-opacity:1;stroke:none;stroke-width:0.27939999;stroke-linecap:round;stroke-linejoin:round;stroke-miterlimit:4;stroke-dasharray:none;stroke-dashoffset:0;stroke-opacity:1;paint-order:normal"
           d="m 18.520833,263.92706 -2.645833,3.96875 2.645833,3.96875 2.645833,-3.96875 z m 0,0.39688 2.38125,3.57187 -2.38125,3.57188 -2.38125,-3.57188 z"
           id="path865"
           inkscape:connector-curvature="0" />
        <path
           inkscape:connector-curvature="0"
           id="path867"
           d="m 23.8125,263.92706 -2.645833,3.96875 2.645833,3.96875 2.645833,-3.96875 z m 0,0.39688 2.38125,3.57187 -2.38125,3.57188 -2.38125,-3.57188 z"
           style="opacity:1;fill:#ececec;fill-opacity:1;stroke:none;stroke-width:0.27939999;stroke-linecap:round;stroke-linejoin:round;stroke-miterlimit:4;stroke-dasharray:none;stroke-dashoffset:0;stroke-opacity:1;paint-order:normal" />
      </g>
      <g
         id="g929"
         transform="matrix(1,0,0,1.0833333,0,-22.104152)">
        <path
           style="opacity:1;fill:#ececec;fill-opacity:1;stroke:none;stroke-width:0.2793912;stroke-linecap:round;stroke-linejoin:round;stroke-miterlimit:4;stroke-dasharray:none;stroke-dashoffset:0;stroke-opacity:1;paint-order:normal"
           d="M 2.6458333,271.86456 6.9999998e-8,275.83331 2.6458333,279.80206 5.2916666,275.83331 Z m 0,0.39697 2.3812499,3.57178 -2.3812499,3.57178 -2.3812499,-3.57178 z"
           id="path869"
           inkscape:connector-curvature="0" />
        <path
           inkscape:connector-curvature="0"
           id="path871"
           d="m 7.9375001,271.86456 -2.6458332,3.96875 2.6458332,3.96875 2.6458329,-3.96875 z m 0,0.39697 2.3812499,3.57178 -2.3812499,3.57178 -2.3812499,-3.57178 z"
           style="opacity:1;fill:#ececec;fill-opacity:1;stroke:none;stroke-width:0.2793912;stroke-linecap:round;stroke-linejoin:round;stroke-miterlimit:4;stroke-dasharray:none;stroke-dashoffset:0;stroke-opacity:1;paint-order:normal" />
        <path
           style="opacity:1;fill:#ececec;fill-opacity:1;stroke:none;stroke-width:0.2793912;stroke-linecap:round;stroke-linejoin:round;stroke-miterlimit:4;stroke-dasharray:none;stroke-dashoffset:0;stroke-opacity:1;paint-order:normal"
           d="m 13.229167,271.86456 -2.645833,3.96875 2.645833,3.96875 2.645833,-3.96875 z m 0,0.39697 2.38125,3.57178 -2.38125,3.57178 -2.38125,-3.57178 z"
           id="path873"
           inkscape:connector-curvature="0" />
        <path
           inkscape:connector-curvature="0"
           id="path875"
           d="m 18.520833,271.86456 -2.645833,3.96875 2.645833,3.96875 2.645833,-3.96875 z m 0,0.39697 2.38125,3.57178 -2.38125,3.57178 -2.38125,-3.57178 z"
           style="opacity:1;fill:#ececec;fill-opacity:1;stroke:none;stroke-width:0.2793912;stroke-linecap:round;stroke-linejoin:round;stroke-miterlimit:4;stroke-dasharray:none;stroke-dashoffset:0;stroke-opacity:1;paint-order:normal" />
        <path
           style="opacity:1;fill:#ececec;fill-opacity:1;stroke:none;stroke-width:0.2793912;stroke-linecap:round;stroke-linejoin:round;stroke-miterlimit:4;stroke-dasharray:none;stroke-dashoffset:0;stroke-opacity:1;paint-order:normal"
           d="m 23.8125,271.86456 -2.645833,3.96875 2.645833,3.96875 2.645833,-3.96875 z m 0,0.39697 2.38125,3.57178 -2.38125,3.57178 -2.38125,-3.57178 z"
           id="path877"
           inkscape:connector-curvature="0" />
      </g>
      <g
         id="g936"
         transform="matrix(1,0,0,1.0833333,0,-21.883667)">
        <path
           inkscape:connector-curvature="0"
           id="path879"
           d="M 2.6458333,279.80206 6.9999998e-8,283.77081 2.6458333,287.73956 5.2916666,283.77081 Z m 0,0.39697 2.3812499,3.57178 -2.3812499,3.57178 -2.3812499,-3.57178 z"
           style="opacity:1;fill:#ececec;fill-opacity:1;stroke:none;stroke-width:0.2793912;stroke-linecap:round;stroke-linejoin:round;stroke-miterlimit:4;stroke-dasharray:none;stroke-dashoffset:0;stroke-opacity:1;paint-order:normal" />
        <path
           style="opacity:1;fill:#ececec;fill-opacity:1;stroke:none;stroke-width:0.2793912;stroke-linecap:round;stroke-linejoin:round;stroke-miterlimit:4;stroke-dasharray:none;stroke-dashoffset:0;stroke-opacity:1;paint-order:normal"
           d="m 7.9375001,279.80206 -2.6458332,3.96875 2.6458332,3.96875 2.6458329,-3.96875 z m 0,0.39697 2.3812499,3.57178 -2.3812499,3.57178 -2.3812499,-3.57178 z"
           id="path881"
           inkscape:connector-curvature="0" />
        <path
           inkscape:connector-curvature="0"
           id="path883"
           d="m 13.229167,279.80206 -2.645833,3.96875 2.645833,3.96875 2.645833,-3.96875 z m 0,0.39697 2.38125,3.57178 -2.38125,3.57178 -2.38125,-3.57178 z"
           style="opacity:1;fill:#ececec;fill-opacity:1;stroke:none;stroke-width:0.2793912;stroke-linecap:round;stroke-linejoin:round;stroke-miterlimit:4;stroke-dasharray:none;stroke-dashoffset:0;stroke-opacity:1;paint-order:normal" />
        <path
           style="opacity:1;fill:#ececec;fill-opacity:1;stroke:none;stroke-width:0.2793912;stroke-linecap:round;stroke-linejoin:round;stroke-miterlimit:4;stroke-dasharray:none;stroke-dashoffset:0;stroke-opacity:1;paint-order:normal"
           d="m 18.520833,279.80206 -2.645833,3.96875 2.645833,3.96875 2.645833,-3.96875 z m 0,0.39697 2.38125,3.57178 -2.38125,3.57178 -2.38125,-3.57178 z"
           id="path885"
           inkscape:connector-curvature="0" />
        <path
           inkscape:connector-curvature="0"
           id="path887"
           d="m 23.8125,279.80206 -2.645833,3.96875 2.645833,3.96875 2.645833,-3.96875 z m 0,0.39697 2.38125,3.57178 -2.38125,3.57178 -2.38125,-3.57178 z"
           style="opacity:1;fill:#ececec;fill-opacity:1;stroke:none;stroke-width:0.2793912;stroke-linecap:round;stroke-linejoin:round;stroke-miterlimit:4;stroke-dasharray:none;stroke-dashoffset:0;stroke-opacity:1;paint-order:normal" />
      </g>
      <g
         id="g943"
         transform="matrix(1,0,0,1.0833333,0,-24.529507)">
        <path
           style="opacity:1;fill:#ececec;fill-opacity:1;stroke:none;stroke-width:0.2793912;stroke-linecap:round;stroke-linejoin:round;stroke-miterlimit:4;stroke-dasharray:none;stroke-dashoffset:0;stroke-opacity:1;paint-order:normal"
           d="M 2.6458334,290.3854 6.9999998e-8,294.35415 2.6458334,298.3229 5.2916667,294.35415 Z m 0,0.39697 2.3812499,3.57178 -2.3812499,3.57177 -2.38124999,-3.57177 z"
           id="path889"
           inkscape:connector-curvature="0" />
        <path
           inkscape:connector-curvature="0"
           id="path891"
           d="m 7.9375003,290.3854 -2.6458333,3.96875 2.6458333,3.96875 2.6458327,-3.96875 z m 0,0.39697 2.3812497,3.57178 -2.3812497,3.57177 -2.38125,-3.57177 z"
           style="opacity:1;fill:#ececec;fill-opacity:1;stroke:none;stroke-width:0.2793912;stroke-linecap:round;stroke-linejoin:round;stroke-miterlimit:4;stroke-dasharray:none;stroke-dashoffset:0;stroke-opacity:1;paint-order:normal" />
        <path
           style="opacity:1;fill:#ececec;fill-opacity:1;stroke:none;stroke-width:0.2793912;stroke-linecap:round;stroke-linejoin:round;stroke-miterlimit:4;stroke-dasharray:none;stroke-dashoffset:0;stroke-opacity:1;paint-order:normal"
           d="m 13.229167,290.3854 -2.645833,3.96875 2.645833,3.96875 2.645833,-3.96875 z m 0,0.39697 2.38125,3.57178 -2.38125,3.57177 -2.38125,-3.57177 z"
           id="path893"
           inkscape:connector-curvature="0" />
        <path
           inkscape:connector-curvature="0"
           id="path895"
           d="m 18.520833,290.3854 -2.645833,3.96875 2.645833,3.96875 2.645833,-3.96875 z m 0,0.39697 2.38125,3.57178 -2.38125,3.57177 -2.38125,-3.57177 z"
           style="opacity:1;fill:#ececec;fill-opacity:1;stroke:none;stroke-width:0.2793912;stroke-linecap:round;stroke-linejoin:round;stroke-miterlimit:4;stroke-dasharray:none;stroke-dashoffset:0;stroke-opacity:1;paint-order:normal" />
        <path
           style="opacity:1;fill:#ececec;fill-opacity:1;stroke:none;stroke-width:0.2793912;stroke-linecap:round;stroke-linejoin:round;stroke-miterlimit:4;stroke-dasharray:none;stroke-dashoffset:0;stroke-opacity:1;paint-order:normal"
           d="m 23.812501,290.3854 -2.645834,3.96875 2.645834,3.96875 2.645833,-3.96875 z m 0,0.39697 2.38125,3.57178 -2.38125,3.57177 -2.381251,-3.57177 z"
           id="path897"
           inkscape:connector-curvature="0" />
      </g>
      <g
         id="g906">
        <rect
           y="267.89581"
           x="-0.66145831"
           height="2.6458333"
           width="1.3229166"
           id="rect827"
           style="opacity:1;fill:#b3b3b3;fill-opacity:1;stroke:none;stroke-width:0.19756563;stroke-linecap:round;stroke-linejoin:round;stroke-miterlimit:4;stroke-dasharray:none;stroke-dashoffset:0;stroke-opacity:1;paint-order:normal" />
        <rect
           y="271.86456"
           x="-0.66145831"
           height="2.6458333"
           width="1.3229166"
           id="rect829"
           style="opacity:1;fill:#b3b3b3;fill-opacity:1;stroke:none;stroke-width:0.19756563;stroke-linecap:round;stroke-linejoin:round;stroke-miterlimit:4;stroke-dasharray:none;stroke-dashoffset:0;stroke-opacity:1;paint-order:normal" />
        <rect
           y="275.83331"
           x="-0.66145831"
           height="2.6458333"
           width="1.3229166"
           id="rect831"
           style="opacity:1;fill:#b3b3b3;fill-opacity:1;stroke:none;stroke-width:0.19756563;stroke-linecap:round;stroke-linejoin:round;stroke-miterlimit:4;stroke-dasharray:none;stroke-dashoffset:0;stroke-opacity:1;paint-order:normal" />
        <rect
           y="279.80206"
           x="-0.66145831"
           height="2.6458333"
           width="1.3229166"
           id="rect833"
           style="opacity:1;fill:#b3b3b3;fill-opacity:1;stroke:none;stroke-width:0.19756563;stroke-linecap:round;stroke-linejoin:round;stroke-miterlimit:4;stroke-dasharray:none;stroke-dashoffset:0;stroke-opacity:1;paint-order:normal" />
        <rect
           y="283.77081"
           x="-0.66145831"
           height="2.6458333"
           width="1.3229166"
           id="rect835"
           style="opacity:1;fill:#b3b3b3;fill-opacity:1;stroke:none;stroke-width:0.19756563;stroke-linecap:round;stroke-linejoin:round;stroke-miterlimit:4;stroke-dasharray:none;stroke-dashoffset:0;stroke-opacity:1;paint-order:normal" />
        <rect
           y="287.73956"
           x="-0.66145831"
           height="2.6458333"
           width="1.3229166"
           id="rect837"
           style="opacity:1;fill:#b3b3b3;fill-opacity:1;stroke:none;stroke-width:0.19756563;stroke-linecap:round;stroke-linejoin:round;stroke-miterlimit:4;stroke-dasharray:none;stroke-dashoffset:0;stroke-opacity:1;paint-order:normal" />
        <rect
           y="291.70831"
           x="-0.66145831"
           height="2.6458333"
           width="1.3229166"
           id="rect839"
           style="opacity:1;fill:#b3b3b3;fill-opacity:1;stroke:none;stroke-width:0.19756563;stroke-linecap:round;stroke-linejoin:round;stroke-miterlimit:4;stroke-dasharray:none;stroke-dashoffset:0;stroke-opacity:1;paint-order:normal" />
      </g>
      <g
         id="g915">
        <rect
           style="opacity:1;fill:#b3b3b3;fill-opacity:1;stroke:none;stroke-width:0.19756563;stroke-linecap:round;stroke-linejoin:round;stroke-miterlimit:4;stroke-dasharray:none;stroke-dashoffset:0;stroke-opacity:1;paint-order:normal"
           id="rect841"
           width="1.3229166"
           height="2.6458333"
           x="25.796875"
           y="267.89581" />
        <rect
           style="opacity:1;fill:#b3b3b3;fill-opacity:1;stroke:none;stroke-width:0.19756563;stroke-linecap:round;stroke-linejoin:round;stroke-miterlimit:4;stroke-dasharray:none;stroke-dashoffset:0;stroke-opacity:1;paint-order:normal"
           id="rect843"
           width="1.3229166"
           height="2.6458333"
           x="25.796875"
           y="271.86456" />
        <rect
           style="opacity:1;fill:#b3b3b3;fill-opacity:1;stroke:none;stroke-width:0.19756563;stroke-linecap:round;stroke-linejoin:round;stroke-miterlimit:4;stroke-dasharray:none;stroke-dashoffset:0;stroke-opacity:1;paint-order:normal"
           id="rect845"
           width="1.3229166"
           height="2.6458333"
           x="25.796875"
           y="275.83331" />
        <rect
           style="opacity:1;fill:#b3b3b3;fill-opacity:1;stroke:none;stroke-width:0.19756563;stroke-linecap:round;stroke-linejoin:round;stroke-miterlimit:4;stroke-dasharray:none;stroke-dashoffset:0;stroke-opacity:1;paint-order:normal"
           id="rect847"
           width="1.3229166"
           height="2.6458333"
           x="25.796875"
           y="279.80206" />
        <rect
           style="opacity:1;fill:#b3b3b3;fill-opacity:1;stroke:none;stroke-width:0.19756563;stroke-linecap:round;stroke-linejoin:round;stroke-miterlimit:4;stroke-dasharray:none;stroke-dashoffset:0;stroke-opacity:1;paint-order:normal"
           id="rect849"
           width="1.3229166"
           height="2.6458333"
           x="25.796875"
           y="283.77081" />
        <rect
           style="opacity:1;fill:#b3b3b3;fill-opacity:1;stroke:none;stroke-width:0.19756563;stroke-linecap:round;stroke-linejoin:round;stroke-miterlimit:4;stroke-dasharray:none;stroke-dashoffset:0;stroke-opacity:1;paint-order:normal"
           id="rect851"
           width="1.3229166"
           height="2.6458333"
           x="25.796875"
           y="287.73956" />
        <rect
           style="opacity:1;fill:#b3b3b3;fill-opacity:1;stroke:none;stroke-width:0.19756563;stroke-linecap:round;stroke-linejoin:round;stroke-miterlimit:4;stroke-dasharray:none;stroke-dashoffset:0;stroke-opacity:1;paint-order:normal"
           id="rect853"
           width="1.3229166"
           height="2.6458333"
           x="25.796875"
           y="291.70831" />
      </g>
    </g>
  </g>
  <g
     inkscape:groupmode="layer"
     id="layer2"
     inkscape:label="Stroke"
     style="display:none">
    <g
       transform="translate(0,-270.54165)"
       id="g842">
      <path
         sodipodi:nodetypes="cccccccccsc"
         inkscape:connector-curvature="0"
         id="path832"
         d="m 0,283.77081 h 1.3229167 c 1.3229167,-1.32292 1.3229167,-1.32292 2.6458334,0 h 3.9687501 l 1.3229167,2.64583 2.6458331,-15.875 1.322917,21.16667 1.322917,-7.9375 c 1.322916,-3.96875 2.645833,-3.96875 3.96875,0 1.322916,-1.32292 1.322916,0 2.645833,0 1.322916,0 3.704166,0 5.291666,0"
         style="fill:none;fill-rule:evenodd;stroke:#000000;stroke-width:0.26458335px;stroke-linecap:butt;stroke-linejoin:miter;stroke-opacity:1" />
      <path
         style="fill:none;fill-rule:evenodd;stroke:#000000;stroke-width:0.26458335px;stroke-linecap:butt;stroke-linejoin:miter;stroke-opacity:1"
         d="m 26.458334,283.77081 h 1.322917 c 1.322916,-1.32292 1.322916,-1.32292 2.645833,0 h 3.96875 l 1.322917,2.64583 2.645833,-15.875 1.322917,21.16667 1.322917,-7.9375 c 1.322916,-3.96875 2.645833,-3.96875 3.96875,0 1.322916,-1.32292 1.322916,0 2.645833,0 1.322916,0 3.704166,0 5.291666,0"
         id="path838"
         inkscape:connector-curvature="0"
         sodipodi:nodetypes="cccccccccsc" />
    </g>
  </g>
</svg>
