<?xml version="1.0" encoding="UTF-8" standalone="no"?>
<!-- Created with Inkscape (http://www.inkscape.org/) -->

<svg
   xmlns:dc="http://purl.org/dc/elements/1.1/"
   xmlns:cc="http://creativecommons.org/ns#"
   xmlns:rdf="http://www.w3.org/1999/02/22-rdf-syntax-ns#"
   xmlns:svg="http://www.w3.org/2000/svg"
   xmlns="http://www.w3.org/2000/svg"
   xmlns:sodipodi="http://sodipodi.sourceforge.net/DTD/sodipodi-0.dtd"
   xmlns:inkscape="http://www.inkscape.org/namespaces/inkscape"
   width="100"
   height="100"
   viewBox="0 0 26.458333 26.458334"
   version="1.1"
   id="svg8"
   inkscape:version="0.92.3 (2405546, 2018-03-11)"
   sodipodi:docname="Biscuit - Party Ring (Pink).svg">
  <defs
     id="defs2" />
  <sodipodi:namedview
     id="base"
     pagecolor="#ffffff"
     bordercolor="#666666"
     borderopacity="1.0"
     inkscape:pageopacity="0.0"
     inkscape:pageshadow="2"
     inkscape:zoom="4"
     inkscape:cx="4.259441"
     inkscape:cy="40.681988"
     inkscape:document-units="px"
     inkscape:current-layer="layer1"
     showgrid="true"
     units="px"
     inkscape:window-width="1920"
     inkscape:window-height="1017"
     inkscape:window-x="-8"
     inkscape:window-y="-8"
     inkscape:window-maximized="1"
     showguides="false">
    <inkscape:grid
       type="xygrid"
       id="grid815" />
  </sodipodi:namedview>
  <metadata
     id="metadata5">
    <rdf:RDF>
      <cc:Work
         rdf:about="">
        <dc:format>image/svg+xml</dc:format>
        <dc:type
           rdf:resource="http://purl.org/dc/dcmitype/StillImage" />
        <dc:title />
      </cc:Work>
    </rdf:RDF>
  </metadata>
  <g
     inkscape:label="Layer 1"
     inkscape:groupmode="layer"
     id="layer1"
     transform="translate(0,-270.54165)">
    <path
       style="opacity:1;fill:#e6e6e6;fill-opacity:1;stroke:none;stroke-width:3.96875;stroke-linecap:round;stroke-linejoin:round;stroke-miterlimit:4;stroke-dasharray:none;stroke-dashoffset:0;stroke-opacity:1;paint-order:normal"
       d="M 13.229167,270.54165 A 13.229166,13.229166 0 0 0 2.4999999e-7,283.77082 13.229166,13.229166 0 0 0 13.229167,296.99998 13.229166,13.229166 0 0 0 26.458333,283.77082 13.229166,13.229166 0 0 0 13.229167,270.54165 Z m 0,8.59896 a 4.6302083,4.6302083 0 0 1 4.630208,4.63021 4.6302083,4.6302083 0 0 1 -4.630208,4.6302 4.6302083,4.6302083 0 0 1 -4.6302085,-4.6302 4.6302083,4.6302083 0 0 1 4.6302085,-4.63021 z"
       id="path860"
       inkscape:connector-curvature="0" />
    <path
       style="opacity:1;fill:#ffffff;fill-opacity:1;stroke:none;stroke-width:15;stroke-linecap:round;stroke-linejoin:round;stroke-miterlimit:4;stroke-dasharray:none;stroke-dashoffset:0;stroke-opacity:1;paint-order:normal"
       d="M 49.519531 0.0234375 A 49.999996 49.999996 0 0 0 37.107422 1.7519531 L 98.279297 62.923828 A 49.999996 49.999996 0 0 0 99.982422 50.486328 L 49.519531 0.0234375 z M 57.128906 0.56054688 L 99.425781 42.857422 A 49.999996 49.999996 0 0 0 57.128906 0.56054688 z M 31.777344 3.4921875 A 49.999996 49.999996 0 0 0 22.453125 8.3125 L 46.917969 32.777344 A 17.5 17.499999 0 0 1 50 32.5 A 17.5 17.499999 0 0 1 67.5 50 A 17.5 17.499999 0 0 1 67.210938 53.070312 L 91.691406 77.550781 A 49.999996 49.999996 0 0 0 96.539062 68.253906 L 31.777344 3.4921875 z M 18.378906 11.308594 A 49.999996 49.999996 0 0 0 11.308594 18.378906 L 34.609375 41.679688 A 17.5 17.499999 0 0 1 41.689453 34.619141 L 18.378906 11.308594 z M 8.3085938 22.449219 A 49.999996 49.999996 0 0 0 3.4609375 31.746094 L 68.222656 96.507812 A 49.999996 49.999996 0 0 0 77.546875 91.6875 L 53.082031 67.222656 A 17.5 17.499999 0 0 1 50 67.5 A 17.5 17.499999 0 0 1 32.5 50 A 17.5 17.499999 0 0 1 32.789062 46.929688 L 8.3085938 22.449219 z M 1.7207031 37.076172 A 49.999996 49.999996 0 0 0 0.017578125 49.513672 L 50.480469 99.976562 A 49.999996 49.999996 0 0 0 62.892578 98.248047 L 1.7207031 37.076172 z M 0.57421875 57.142578 A 49.999996 49.999996 0 0 0 42.871094 99.439453 L 0.57421875 57.142578 z M 65.390625 58.320312 A 17.5 17.499999 0 0 1 58.310547 65.380859 L 81.621094 88.691406 A 49.999996 49.999996 0 0 0 88.691406 81.621094 L 65.390625 58.320312 z "
       transform="matrix(0.26458333,0,0,0.26458333,0,270.54165)"
       id="path841" />
  </g>
</svg>
