<?xml version="1.0" encoding="UTF-8" standalone="no"?>
<!-- Created with Inkscape (http://www.inkscape.org/) -->

<svg
   xmlns:dc="http://purl.org/dc/elements/1.1/"
   xmlns:cc="http://creativecommons.org/ns#"
   xmlns:rdf="http://www.w3.org/1999/02/22-rdf-syntax-ns#"
   xmlns:svg="http://www.w3.org/2000/svg"
   xmlns="http://www.w3.org/2000/svg"
   xmlns:sodipodi="http://sodipodi.sourceforge.net/DTD/sodipodi-0.dtd"
   xmlns:inkscape="http://www.inkscape.org/namespaces/inkscape"
   width="100"
   height="100"
   viewBox="0 0 26.458333 26.458334"
   version="1.1"
   id="svg8"
   inkscape:version="0.92.3 (2405546, 2018-03-11)"
   sodipodi:docname="Biscuit - Jam-Filled.svg">
  <defs
     id="defs2" />
  <sodipodi:namedview
     id="base"
     pagecolor="#ffffff"
     bordercolor="#666666"
     borderopacity="1.0"
     inkscape:pageopacity="0.0"
     inkscape:pageshadow="2"
     inkscape:zoom="4"
     inkscape:cx="55.664129"
     inkscape:cy="37.543144"
     inkscape:document-units="px"
     inkscape:current-layer="layer1"
     showgrid="true"
     units="px"
     inkscape:window-width="1920"
     inkscape:window-height="1017"
     inkscape:window-x="-8"
     inkscape:window-y="-8"
     inkscape:window-maximized="1"
     showguides="false">
    <inkscape:grid
       type="xygrid"
       id="grid815" />
  </sodipodi:namedview>
  <metadata
     id="metadata5">
    <rdf:RDF>
      <cc:Work
         rdf:about="">
        <dc:format>image/svg+xml</dc:format>
        <dc:type
           rdf:resource="http://purl.org/dc/dcmitype/StillImage" />
        <dc:title />
      </cc:Work>
    </rdf:RDF>
  </metadata>
  <g
     inkscape:label="Layer 1"
     inkscape:groupmode="layer"
     id="layer1"
     transform="translate(0,-270.54165)">
    <path
       sodipodi:type="star"
       style="opacity:1;fill:#d99753;fill-opacity:1;stroke:none;stroke-width:3.96875;stroke-linecap:round;stroke-linejoin:round;stroke-miterlimit:4;stroke-dasharray:none;stroke-dashoffset:0;stroke-opacity:1;paint-order:normal"
       id="path850"
       sodipodi:sides="20"
       sodipodi:cx="13.229166"
       sodipodi:cy="283.77081"
       sodipodi:r1="13.229166"
       sodipodi:r2="12.567708"
       sodipodi:arg1="1.5707963"
       sodipodi:arg2="1.7278759"
       inkscape:flatsided="false"
       inkscape:rounded="0.4"
       inkscape:randomized="0"
       d="m 13.229166,296.99998 c -0.851484,0 -1.125021,-0.68299 -1.966022,-0.81619 -0.841001,-0.1332 -1.3122051,0.43183 -2.1220148,0.16871 -0.8098093,-0.26313 -0.8589048,-0.99721 -1.6175825,-1.38378 -0.7586781,-0.38656 -1.3814238,0.005 -2.0702891,-0.49529 -0.688865,-0.50049 -0.5087125,-1.21381 -1.1108026,-1.8159 -0.6020903,-0.6021 -1.315419,-0.42194 -1.8159089,-1.11081 -0.5004897,-0.68886 -0.1087239,-1.31161 -0.4952896,-2.07029 -0.3865657,-0.75867 -1.12065177,-0.80777 -1.38377492,-1.61758 -0.26312304,-0.80981 0.30190735,-1.28101 0.16870589,-2.12201 C 0.68298597,284.89584 5.0645187e-8,284.6223 0,283.77081 c -5.0645161e-8,-0.85148 0.68298583,-1.12502 0.81618724,-1.96602 0.13320146,-0.841 -0.43182893,-1.3122 -0.16870588,-2.12201 0.26312295,-0.80981 0.99720894,-0.85891 1.38377454,-1.61759 0.3865657,-0.75867 -0.0052,-1.38142 0.4952898,-2.07029 0.5004896,-0.68886 1.2138182,-0.50871 1.8159082,-1.1108 0.6020903,-0.60209 0.421938,-1.31542 1.1108032,-1.81591 0.6888649,-0.50049 1.3116105,-0.10872 2.0702882,-0.49529 0.758678,-0.38656 0.8077737,-1.12065 1.6175833,-1.38377 0.8098093,-0.26312 1.2810134,0.30191 2.1220144,0.1687 0.841001,-0.1332 1.114538,-0.81618 1.966023,-0.81618 0.851484,0 1.125021,0.68298 1.966022,0.81618 0.841001,0.13321 1.312205,-0.43182 2.122015,-0.1687 0.809809,0.26312 0.858905,0.99721 1.617582,1.38377 0.758678,0.38657 1.381424,-0.005 2.070289,0.49529 0.688865,0.50049 0.508713,1.21382 1.110803,1.81591 0.60209,0.60209 1.315419,0.42194 1.815909,1.1108 0.50049,0.68887 0.108724,1.31161 0.49529,2.07029 0.386565,0.75868 1.120651,0.80778 1.383774,1.61759 0.263124,0.8098 -0.301907,1.28101 -0.168705,2.12201 0.133201,0.841 0.816187,1.11454 0.816187,1.96602 0,0.85149 -0.682986,1.12502 -0.816187,1.96602 -0.133202,0.84101 0.431829,1.31221 0.168706,2.12202 -0.263123,0.80981 -0.997209,0.8589 -1.383775,1.61758 -0.386566,0.75868 0.0052,1.38143 -0.49529,2.07029 -0.500489,0.68887 -1.213818,0.50871 -1.815908,1.1108 -0.60209,0.60209 -0.421938,1.31542 -1.110803,1.81591 -0.688865,0.50049 -1.311611,0.10873 -2.070288,0.49529 -0.758678,0.38657 -0.807774,1.12065 -1.617584,1.38378 -0.809809,0.26312 -1.281013,-0.30191 -2.122014,-0.16871 -0.841001,0.1332 -1.114538,0.81619 -1.966023,0.81619 z" />
    <path
       d="m 13.229167,295.67706 c -0.766335,0 -1.012519,-0.61468 -1.76942,-0.73457 -0.756901,-0.11988 -1.180985,0.38865 -1.9098133,0.15184 -0.7288284,-0.23681 -0.7730145,-0.89749 -1.4558245,-1.2454 -0.6828102,-0.34791 -1.2432814,0.005 -1.8632601,-0.44576 -0.6199785,-0.45044 -0.4578414,-1.09243 -0.9997225,-1.63432 -0.5418813,-0.54188 -1.1838771,-0.37974 -1.634318,-0.99972 -0.4504408,-0.61998 -0.097852,-1.18045 -0.4457608,-1.86326 -0.3479092,-0.68281 -1.0085865,-0.72699 -1.2453974,-1.45582 -0.2368107,-0.72883 0.2717165,-1.15292 0.1518352,-1.90982 -0.1198813,-0.7569 -0.7345686,-1.00308 -0.7345686,-1.76942 -10e-8,-0.76633 0.6146871,-1.01252 0.7345684,-1.76942 0.1198813,-0.7569 -0.3886459,-1.18098 -0.1518352,-1.90981 0.2368107,-0.72883 0.897488,-0.77301 1.245397,-1.45582 0.3479092,-0.68281 -0.00468,-1.24329 0.445761,-1.86326 0.4504407,-0.61998 1.0924364,-0.45785 1.6343174,-0.99973 0.5418813,-0.54188 0.3797443,-1.18387 0.999723,-1.63432 0.6199784,-0.45044 1.1804495,-0.0978 1.8632594,-0.44576 0.6828103,-0.34791 0.7269964,-1.00858 1.4558251,-1.24539 0.7288279,-0.23681 1.1529119,0.27171 1.9098129,0.15183 0.756901,-0.11988 1.003085,-0.73457 1.769421,-0.73457 0.766335,0 1.012519,0.61469 1.76942,0.73457 0.756901,0.11988 1.180985,-0.38864 1.909813,-0.15183 0.728829,0.23681 0.773015,0.89748 1.455825,1.24539 0.68281,0.34791 1.243281,-0.005 1.86326,0.44576 0.619978,0.45044 0.457841,1.09244 0.999722,1.63432 0.541882,0.54188 1.183877,0.37975 1.634318,0.99972 0.450441,0.61998 0.09785,1.18045 0.445761,1.86326 0.347909,0.68281 1.008587,0.727 1.245398,1.45583 0.23681,0.72883 -0.271717,1.15291 -0.151836,1.90981 0.119882,0.7569 0.734569,1.00309 0.734569,1.76942 0,0.76634 -0.614687,1.01252 -0.734568,1.76942 -0.119882,0.7569 0.388645,1.18099 0.151835,1.90982 -0.236811,0.72882 -0.897488,0.77301 -1.245397,1.45582 -0.347909,0.68281 0.0047,1.24328 -0.445761,1.86326 -0.450441,0.61998 -1.092437,0.45784 -1.634318,0.99972 -0.541881,0.54188 -0.379744,1.18388 -0.999723,1.63432 -0.619978,0.45044 -1.180449,0.0978 -1.863259,0.44576 -0.68281,0.34791 -0.726996,1.00859 -1.455825,1.2454 -0.728829,0.23681 -1.152912,-0.27172 -1.909813,-0.15184 -0.756901,0.11989 -1.003085,0.73457 -1.769421,0.73457 z"
       inkscape:randomized="0"
       inkscape:rounded="0.4"
       inkscape:flatsided="false"
       sodipodi:arg2="1.7278759"
       sodipodi:arg1="1.5707963"
       sodipodi:r2="11.310938"
       sodipodi:r1="11.90625"
       sodipodi:cy="283.77082"
       sodipodi:cx="13.229167"
       sodipodi:sides="20"
       id="path841"
       style="opacity:1;fill:#dea66c;fill-opacity:1;stroke:none;stroke-width:3.5718751;stroke-linecap:round;stroke-linejoin:round;stroke-miterlimit:4;stroke-dasharray:none;stroke-dashoffset:0;stroke-opacity:1;paint-order:normal"
       sodipodi:type="star" />
    <circle
       r="5.2916665"
       cy="283.77081"
       cx="13.229167"
       id="circle855"
       style="opacity:1;fill:#d99753;fill-opacity:1;stroke:none;stroke-width:5.29166651;stroke-linecap:round;stroke-linejoin:round;stroke-miterlimit:4;stroke-dasharray:none;stroke-dashoffset:0;stroke-opacity:1;paint-order:normal" />
    <circle
       style="opacity:1;fill:#ff0000;fill-opacity:1;stroke:none;stroke-width:3.96875;stroke-linecap:round;stroke-linejoin:round;stroke-miterlimit:4;stroke-dasharray:none;stroke-dashoffset:0;stroke-opacity:1;paint-order:normal"
       id="path853"
       cx="13.229167"
       cy="283.77081"
       r="3.96875" />
  </g>
</svg>
