<?xml version="1.0" encoding="UTF-8" standalone="no"?>
<!-- Created with Inkscape (http://www.inkscape.org/) -->

<svg
   xmlns:dc="http://purl.org/dc/elements/1.1/"
   xmlns:cc="http://creativecommons.org/ns#"
   xmlns:rdf="http://www.w3.org/1999/02/22-rdf-syntax-ns#"
   xmlns:svg="http://www.w3.org/2000/svg"
   xmlns="http://www.w3.org/2000/svg"
   xmlns:sodipodi="http://sodipodi.sourceforge.net/DTD/sodipodi-0.dtd"
   xmlns:inkscape="http://www.inkscape.org/namespaces/inkscape"
   width="100"
   height="100"
   viewBox="0 0 100 100"
   id="svg2"
   version="1.1"
   inkscape:version="0.92.3 (2405546, 2018-03-11)"
   inkscape:export-filename="E:\Pictures\Game Development\Projects\RotorBall\UI\Boost Icons\Shrink Icon\Shrink Icon (500x500).png"
   inkscape:export-xdpi="480"
   inkscape:export-ydpi="480"
   sodipodi:docname="Shrink Icon.svg">
  <defs
     id="defs4" />
  <sodipodi:namedview
     id="base"
     pagecolor="#ffffff"
     bordercolor="#666666"
     borderopacity="1.0"
     inkscape:pageopacity="0.0"
     inkscape:pageshadow="2"
     inkscape:zoom="4.0000001"
     inkscape:cx="58.73229"
     inkscape:cy="38.078865"
     inkscape:document-units="px"
     inkscape:current-layer="layer1"
     showgrid="true"
     units="px"
     inkscape:window-width="1920"
     inkscape:window-height="1017"
     inkscape:window-x="-8"
     inkscape:window-y="-8"
     inkscape:window-maximized="1"
     showguides="false"
     inkscape:measure-start="50,83"
     inkscape:measure-end="50,90">
    <inkscape:grid
       type="xygrid"
       id="grid4542" />
  </sodipodi:namedview>
  <metadata
     id="metadata7">
    <rdf:RDF>
      <cc:Work
         rdf:about="">
        <dc:format>image/svg+xml</dc:format>
        <dc:type
           rdf:resource="http://purl.org/dc/dcmitype/StillImage" />
        <dc:title />
      </cc:Work>
    </rdf:RDF>
  </metadata>
  <g
     inkscape:label="Layer 1"
     inkscape:groupmode="layer"
     id="layer1"
     transform="translate(0,-952.36216)">
    <g
       id="g821"
       transform="translate(-2.5,2.4999774)"
       style="fill:#000000" />
    <g
       id="g906"
       transform="rotate(-45,49.999967,1002.3622)">
      <g
         inkscape:transform-center-y="-27.5"
         transform="translate(-2.5000026,-4.9999997)"
         id="g830" />
      <g
         inkscape:transform-center-x="27.500036"
         id="g838"
         transform="rotate(-90,48.749993,1006.1122)"
         inkscape:transform-center-y="1.8480733e-005" />
      <g
         inkscape:transform-center-y="27.500056"
         transform="rotate(-180,51.250024,1004.8622)"
         id="g846"
         inkscape:transform-center-x="-4.5625405e-005" />
      <g
         inkscape:transform-center-x="-27.499969"
         id="g854"
         transform="rotate(90,53.75004,1003.6121)"
         inkscape:transform-center-y="-0.00010998829" />
    </g>
    <g
       id="g931"
       transform="rotate(-45,50,1002.3622)">
      <path
         style="opacity:1;fill:#ffffff;fill-opacity:1;stroke:none;stroke-width:5;stroke-linecap:round;stroke-linejoin:round;stroke-miterlimit:4;stroke-dasharray:none;stroke-dashoffset:0;stroke-opacity:1;paint-order:normal"
         d="M 50.730469 0.005859375 A 50 50 0 0 0 14.644531 14.644531 A 50 50 0 0 0 14.644531 85.355469 A 50 50 0 0 0 85.355469 85.355469 A 50 50 0 0 0 85.355469 14.644531 A 50 50 0 0 0 50.730469 0.005859375 z M 19.947266 17.445312 C 20.586313 17.445312 21.225172 17.690016 21.714844 18.179688 L 38.662109 35.125 L 38.662109 31.158203 C 38.662109 29.773203 39.777109 28.658203 41.162109 28.658203 C 42.547109 28.658203 43.662109 29.773203 43.662109 31.158203 L 43.662109 41.142578 C 43.663458 41.314988 43.645623 41.486552 43.611328 41.65625 C 43.604085 41.691991 43.590771 41.724602 43.582031 41.759766 C 43.551113 41.88476 43.517351 42.008889 43.466797 42.128906 C 43.466245 42.130221 43.465398 42.131499 43.464844 42.132812 C 43.464292 42.134128 43.463445 42.135404 43.462891 42.136719 C 43.446805 42.174537 43.422337 42.208933 43.404297 42.246094 C 43.354515 42.34864 43.304897 42.450415 43.240234 42.546875 C 43.237827 42.550486 43.236801 42.554998 43.234375 42.558594 C 43.233569 42.559794 43.23323 42.561301 43.232422 42.5625 C 43.166243 42.660258 43.086931 42.747106 43.007812 42.833984 C 42.980411 42.864074 42.958487 42.898932 42.929688 42.927734 L 42.929688 42.929688 C 42.897576 42.961798 42.859525 42.983667 42.826172 43.013672 C 42.735615 43.095285 42.64482 43.176341 42.542969 43.244141 C 42.478713 43.287014 42.408854 43.315278 42.341797 43.351562 C 42.269706 43.390574 42.201182 43.434887 42.125 43.466797 C 42.00848 43.515688 41.888798 43.549678 41.767578 43.580078 C 41.729895 43.58953 41.694604 43.603604 41.65625 43.611328 C 41.486552 43.645623 41.314988 43.663458 41.142578 43.662109 L 31.158203 43.662109 C 29.773203 43.662109 28.658203 42.547109 28.658203 41.162109 C 28.658203 39.777109 29.773203 38.662109 31.158203 38.662109 L 35.125 38.662109 L 18.179688 21.714844 C 17.200344 20.735501 17.200344 19.15903 18.179688 18.179688 C 18.669359 17.690016 19.308218 17.445312 19.947266 17.445312 z M 80.052734 17.445312 C 80.691782 17.445312 81.330641 17.690016 81.820312 18.179688 C 82.799656 19.15903 82.799656 20.735501 81.820312 21.714844 L 64.875 38.660156 L 68.841797 38.660156 C 70.226797 38.660156 71.341797 39.775156 71.341797 41.160156 C 71.341797 42.545156 70.226797 43.660156 68.841797 43.660156 L 58.841797 43.660156 C 58.822399 43.660156 58.804445 43.654732 58.785156 43.654297 C 58.667869 43.651653 58.551696 43.640166 58.435547 43.621094 C 58.238338 43.588978 58.047761 43.539986 57.869141 43.464844 L 57.867188 43.464844 C 57.845844 43.455846 57.827673 43.441208 57.806641 43.431641 C 57.788144 43.421193 57.769169 43.411624 57.75 43.402344 C 57.649622 43.353397 57.549613 43.305411 57.455078 43.242188 L 57.453125 43.240234 C 57.331121 43.158868 57.218771 43.065869 57.113281 42.964844 C 57.107617 42.95942 57.101327 42.954688 57.095703 42.949219 C 57.088292 42.941993 57.079797 42.936722 57.072266 42.929688 L 57.070312 42.929688 L 57.068359 42.927734 C 57.025717 42.885092 56.99415 42.8329 56.955078 42.787109 C 56.88754 42.708773 56.817264 42.633292 56.759766 42.546875 C 56.757951 42.544153 56.755713 42.541792 56.753906 42.539062 C 56.731265 42.505005 56.716106 42.468465 56.695312 42.433594 C 56.655995 42.367481 56.623016 42.297358 56.587891 42.228516 C 56.571987 42.194869 56.549584 42.16532 56.535156 42.130859 C 56.533433 42.126818 56.530982 42.123203 56.529297 42.119141 C 56.484832 42.012331 56.45669 41.901811 56.427734 41.791016 C 56.416718 41.748728 56.40233 41.708668 56.392578 41.666016 C 56.391792 41.662577 56.38937 41.659733 56.388672 41.65625 C 56.354371 41.486526 56.336537 41.313061 56.337891 41.140625 L 56.337891 31.158203 C 56.337891 29.773203 57.452891 28.658203 58.837891 28.658203 C 60.222891 28.658203 61.337891 29.773203 61.337891 31.158203 L 61.337891 35.125 L 78.283203 18.179688 C 78.772875 17.690016 79.413687 17.445312 80.052734 17.445312 z M 41.160156 56.335938 C 41.328711 56.335937 41.498249 56.356559 41.664062 56.390625 C 41.824601 56.423607 41.981853 56.472194 42.134766 56.537109 C 42.137428 56.538239 42.139919 56.539876 42.142578 56.541016 C 42.427083 56.66297 42.694701 56.837559 42.927734 57.070312 C 42.9281 57.070677 42.929322 57.069947 42.929688 57.070312 L 42.929688 57.072266 C 42.965705 57.108362 42.993558 57.151272 43.027344 57.189453 C 43.102438 57.274316 43.177104 57.358624 43.240234 57.453125 C 43.30737 57.553275 43.359062 57.658947 43.410156 57.765625 C 43.426754 57.800449 43.44985 57.831449 43.464844 57.867188 C 43.465398 57.868502 43.466245 57.869778 43.466797 57.871094 C 43.530365 58.022009 43.576854 58.177642 43.609375 58.335938 C 43.646088 58.514635 43.663009 58.697272 43.660156 58.878906 L 43.660156 68.841797 C 43.660156 70.226797 42.545156 71.341797 41.160156 71.341797 C 39.775156 71.341797 38.660156 70.226797 38.660156 68.841797 L 38.660156 64.876953 L 21.714844 81.820312 C 20.735501 82.799655 19.15903 82.799655 18.179688 81.820312 C 17.200345 80.84097 17.200345 79.264499 18.179688 78.285156 L 35.123047 61.339844 L 31.158203 61.339844 C 29.773203 61.339844 28.658203 60.224844 28.658203 58.839844 C 28.658203 57.454844 29.773203 56.339844 31.158203 56.339844 L 41.121094 56.339844 C 41.13419 56.339638 41.147059 56.335938 41.160156 56.335938 z M 58.837891 56.335938 C 58.844413 56.335938 58.8509 56.33784 58.857422 56.337891 L 68.841797 56.337891 C 70.226797 56.337891 71.341797 57.452891 71.341797 58.837891 C 71.341797 60.222891 70.226797 61.337891 68.841797 61.337891 L 64.875 61.337891 L 81.820312 78.283203 C 82.799656 79.262546 82.799656 80.84097 81.820312 81.820312 C 80.84097 82.799656 79.262546 82.799656 78.283203 81.820312 L 61.337891 64.875 L 61.337891 68.841797 C 61.337891 70.226797 60.222891 71.341797 58.837891 71.341797 C 57.452891 71.341797 56.337891 70.226797 56.337891 68.841797 L 56.337891 58.857422 C 56.336542 58.685012 56.354377 58.513448 56.388672 58.34375 C 56.395915 58.308009 56.409229 58.275398 56.417969 58.240234 C 56.448887 58.11524 56.482649 57.991111 56.533203 57.871094 C 56.533755 57.869779 56.534602 57.868501 56.535156 57.867188 C 56.535726 57.865836 56.536537 57.864632 56.537109 57.863281 C 56.541781 57.8522 56.549862 57.843029 56.554688 57.832031 C 56.557411 57.825853 56.561697 57.820614 56.564453 57.814453 C 56.620227 57.69108 56.680923 57.570048 56.757812 57.455078 C 56.761499 57.44951 56.763833 57.443027 56.767578 57.4375 C 56.833594 57.339622 56.913044 57.25288 56.992188 57.166016 C 57.019796 57.135564 57.04094 57.101674 57.070312 57.072266 L 57.070312 57.070312 C 57.102424 57.038202 57.140475 57.016333 57.173828 56.986328 C 57.264385 56.904715 57.35518 56.823659 57.457031 56.755859 C 57.521287 56.712986 57.591146 56.684722 57.658203 56.648438 C 57.730294 56.609426 57.798818 56.565113 57.875 56.533203 C 57.99152 56.484312 58.111202 56.450322 58.232422 56.419922 C 58.270105 56.41047 58.305396 56.396396 58.34375 56.388672 C 58.507028 56.355674 58.671999 56.335938 58.837891 56.335938 z "
         transform="rotate(45,-1099.6028,526.18112)"
         id="circle856" />
      <g
         id="g864"
         transform="matrix(1,0,0,-1,-2.50001,1954.7244)"
         inkscape:transform-center-y="27.500037" />
      <g
         inkscape:transform-center-y="1.6480733e-005"
         transform="matrix(0,-1,-1,0,1002.3621,1054.8622)"
         id="g872"
         inkscape:transform-center-x="-27.499992" />
      <g
         inkscape:transform-center-x="-4.5625405e-005"
         id="g880"
         transform="matrix(-1,0,0,1,102.50003,49.999858)"
         inkscape:transform-center-y="-27.500056" />
      <g
         inkscape:transform-center-y="-0.00011198829"
         transform="matrix(0,1,1,0,-902.36221,949.86207)"
         id="g888"
         inkscape:transform-center-x="27.499965" />
    </g>
  </g>
</svg>
