<?xml version="1.0" encoding="UTF-8" standalone="no"?>
<!-- Created with Inkscape (http://www.inkscape.org/) -->

<svg
   xmlns:dc="http://purl.org/dc/elements/1.1/"
   xmlns:cc="http://creativecommons.org/ns#"
   xmlns:rdf="http://www.w3.org/1999/02/22-rdf-syntax-ns#"
   xmlns:svg="http://www.w3.org/2000/svg"
   xmlns="http://www.w3.org/2000/svg"
   xmlns:sodipodi="http://sodipodi.sourceforge.net/DTD/sodipodi-0.dtd"
   xmlns:inkscape="http://www.inkscape.org/namespaces/inkscape"
   width="100"
   height="100"
   viewBox="0 0 26.458333 26.458334"
   version="1.1"
   id="svg8"
   inkscape:version="0.92.3 (2405546, 2018-03-11)"
   sodipodi:docname="Doughnut - Pink Icing.svg">
  <defs
     id="defs2" />
  <sodipodi:namedview
     id="base"
     pagecolor="#ffffff"
     bordercolor="#666666"
     borderopacity="1.0"
     inkscape:pageopacity="0.0"
     inkscape:pageshadow="2"
     inkscape:zoom="5.6"
     inkscape:cx="33.294828"
     inkscape:cy="54.206913"
     inkscape:document-units="px"
     inkscape:current-layer="layer1"
     showgrid="true"
     units="px"
     inkscape:window-width="1920"
     inkscape:window-height="1017"
     inkscape:window-x="-8"
     inkscape:window-y="-8"
     inkscape:window-maximized="1"
     showguides="true">
    <inkscape:grid
       type="xygrid"
       id="grid815" />
  </sodipodi:namedview>
  <metadata
     id="metadata5">
    <rdf:RDF>
      <cc:Work
         rdf:about="">
        <dc:format>image/svg+xml</dc:format>
        <dc:type
           rdf:resource="http://purl.org/dc/dcmitype/StillImage" />
        <dc:title />
      </cc:Work>
    </rdf:RDF>
  </metadata>
  <g
     inkscape:label="Layer 1"
     inkscape:groupmode="layer"
     id="layer1"
     transform="translate(0,-270.54165)">
    <path
       style="opacity:1;fill:#c87137;fill-opacity:1;stroke:none;stroke-width:20;stroke-linecap:round;stroke-linejoin:round;stroke-miterlimit:4;stroke-dasharray:none;stroke-dashoffset:0;stroke-opacity:1;paint-order:normal"
       d="M 50 0 A 49.999997 49.999997 0 0 0 0 50 A 49.999997 49.999997 0 0 0 50 100 A 49.999997 49.999997 0 0 0 100 50 A 49.999997 49.999997 0 0 0 50 0 z M 50 35 A 15 15 0 0 1 65 50 A 15 15 0 0 1 50 65 A 15 15 0 0 1 35 50 A 15 15 0 0 1 50 35 z "
       transform="matrix(0.26458333,0,0,0.26458333,0,270.54165)"
       id="path4520" />
    <path
       style="opacity:1;fill:#eeaaff;fill-opacity:1;stroke:none;stroke-width:1.87088668;stroke-linecap:round;stroke-linejoin:round;stroke-miterlimit:4;stroke-dasharray:none;stroke-dashoffset:0;stroke-opacity:1;paint-order:normal"
       d="m 13.229162,270.54168 c -1.059987,0 -2.057597,1.45424 -3.081466,1.72858 -1.0238692,0.27435 -2.6151421,-0.48607 -3.5331181,0.0439 -0.917975,0.52999 -1.055017,2.28801 -1.80454,3.03754 -0.749525,0.74952 -2.507548,0.88656 -3.037541,1.80454 -0.529994,0.91797 0.23042,2.50925 -0.04392,3.53311 -0.274345,1.02387 -1.728576950000004,2.02148 -1.728576950000004,3.08147 0,1.05999 1.454231950000004,2.0576 1.728576950000004,3.08147 0.274345,1.02386 -0.486069,2.61514 0.04392,3.53311 0.529993,0.91798 2.288016,1.05502 3.037541,1.80454 0.749523,0.74953 0.886565,2.50755 1.80454,3.03754 0.917976,0.53 2.5092494,-0.23041 3.5331181,0.0439 1.023869,0.27434 2.021478,1.72858 3.081466,1.72858 1.059987,0 2.057596,-1.45424 3.081465,-1.72858 1.023869,-0.27434 2.615142,0.48607 3.533118,-0.0439 0.917976,-0.52999 1.055018,-2.28801 1.804541,-3.03754 0.749524,-0.74952 2.507547,-0.88656 3.037541,-1.80454 0.529993,-0.91797 -0.23042,-2.50925 0.04393,-3.53311 0.274345,-1.02387 1.728577,-2.02148 1.728577,-3.08147 0,-1.05999 -1.454232,-2.0576 -1.728577,-3.08147 -0.274345,-1.02386 0.486069,-2.61514 -0.04393,-3.53311 -0.529994,-0.91798 -2.288017,-1.05502 -3.037541,-1.80454 -0.749524,-0.74953 -0.886565,-2.50755 -1.804541,-3.03754 -0.917976,-0.53 -2.509249,0.23041 -3.533118,-0.0439 -1.023869,-0.27434 -2.021478,-1.72858 -3.081465,-1.72858 z m 0,9.26042 a 3.9687499,3.9687499 0 0 1 3.96875,3.96875 3.9687499,3.9687499 0 0 1 -3.96875,3.96875 3.9687499,3.9687499 0 0 1 -3.9687504,-3.96875 3.9687499,3.9687499 0 0 1 3.9687504,-3.96875 z"
       id="path818"
       inkscape:connector-curvature="0" />
  </g>
</svg>
